<?xml version="1.0" encoding="UTF-8" standalone="no"?>
<!-- Generator: Adobe Illustrator 19.1.0, SVG Export Plug-In . SVG Version: 6.00 Build 0)  -->

<svg
   xmlns:dc="http://purl.org/dc/elements/1.1/"
   xmlns:cc="http://creativecommons.org/ns#"
   xmlns:rdf="http://www.w3.org/1999/02/22-rdf-syntax-ns#"
   xmlns:svg="http://www.w3.org/2000/svg"
   xmlns="http://www.w3.org/2000/svg"
   xmlns:sodipodi="http://sodipodi.sourceforge.net/DTD/sodipodi-0.dtd"
   xmlns:inkscape="http://www.inkscape.org/namespaces/inkscape"
   version="1.1"
   id="Calque_1"
   x="0px"
   y="0px"
   viewBox="0 0 640 480"
   style="enable-background:new 0 0 640 480;"
   xml:space="preserve"
   inkscape:version="0.92.1 r15371"
   width="100%"
   height="100%"
   sodipodi:docname="foss4gbe.svg"
   inkscape:export-filename="/home/johan/oldhome/johan/src/2016.foss4g.be/htdocs/images/foss4gbe-g.png"
   inkscape:export-xdpi="90"
   inkscape:export-ydpi="90"><metadata
     id="metadata4303"><rdf:RDF><cc:Work
         rdf:about=""><dc:format>image/svg+xml</dc:format><dc:type
           rdf:resource="http://purl.org/dc/dcmitype/StillImage" /><dc:title></dc:title></cc:Work></rdf:RDF></metadata><defs
     id="defs4301" /><sodipodi:namedview
     pagecolor="#ffffff"
     bordercolor="#666666"
     borderopacity="1"
     objecttolerance="10"
     gridtolerance="10"
     guidetolerance="10"
     inkscape:pageopacity="0"
     inkscape:pageshadow="2"
     inkscape:window-width="1920"
     inkscape:window-height="1021"
     id="namedview4299"
     showgrid="false"
     inkscape:zoom="1.7645833"
     inkscape:cx="109.18535"
     inkscape:cy="240"
     inkscape:window-x="0"
     inkscape:window-y="0"
     inkscape:window-maximized="1"
     inkscape:current-layer="_x32_015" /><style
     type="text/css"
     id="style4088">
	.st0{fill:#8F0000;}
	.st1{fill:#979797;}
	.st2{fill:#E3BB00;}
	.st3{display:none;}
	.st4{display:inline;}
	.st5{font-family:'Satisfy';}
	.st6{font-size:33.1346px;}
	.st7{display:inline;fill:#E3BB00;}
	.st8{display:inline;fill:#979797;}
	.st9{display:inline;fill:#8F0000;}
	.st10{fill-rule:evenodd;clip-rule:evenodd;fill:#3A3A3A;}
	.st11{fill-rule:evenodd;clip-rule:evenodd;fill:#303030;}
	.st12{fill-rule:evenodd;clip-rule:evenodd;fill:#777777;}
	.st13{fill:#459939;}
	.st14{fill:#316C29;}
	.st15{fill:#666666;}
	.st16{display:none;fill:#4CAE3F;}
	.st17{font-family:'SourceSansPro-Black';}
	.st18{font-size:72.1123px;}
	.st19{letter-spacing:-1,;}
	.st20{display:none;fill:#979797;}
	.st21{font-size:100.1841px;}
	.st22{letter-spacing:-1,4;}
</style><path
     class="st0"
     d="M539.5,302.1c7.7,20.9,33.2,19.4,48.2,15.7c23.2-5.7,36.2-25.6,36.2-25.6l-4.6-13.3l-6.4-18.2  c-0.7,3.8-6.9,22.1-22.4,29.2c-23.5,10.8-30.3-1.8-30.3-1.8l-22.2,2.1L539.5,302.1z"
     id="path4090" /><path
     class="st1"
     d="M504.1,242.1L549,285c-1.6,1.6-36.1,31.4-36.1,31.4c-5.6-1.9-28-28.9-28-28.9c-9.3-10.3-4.4-16.6-4.4-16.6  L504.1,242.1"
     id="path4092" /><path
     d="M537.2,283.3c0,0-32.2-33.5-33.3-39.2c-0.8-4.4,4-2.2,5.9-1.2c1.8,1,24.8,13.1,35.5,10.9"
     id="path4094" /><path
     class="st2"
     d="M539.5,302.1c0,0-6.9-37.7,1.6-45.2c10-8.9,24.4-7.6,24.4-7.6s4.4,35.5,4,36.3  C569.2,286.5,546.6,287.1,539.5,302.1z"
     id="path4096" /><g
     id="ceci"><path
       d="M142.9,368.1c0.7,0,1.4-0.3,2.2-0.8c0.8-0.5,1.6-1.1,2.4-1.9c0.8-0.7,1.5-1.4,2.1-2.2c0.6-0.7,1.1-1.3,1.4-1.8   c0.2-0.3,0.4-0.4,0.6-0.5c0.2-0.1,0.3,0,0.4,0.1c0.1,0.1,0.1,0.3,0.1,0.5c0,0.2-0.1,0.5-0.3,0.8c-0.2,0.3-0.4,0.6-0.8,1.1   c-0.4,0.5-0.8,1-1.3,1.6c-0.5,0.6-1,1.2-1.7,1.7c-0.6,0.6-1.3,1.1-1.9,1.6c-0.7,0.5-1.4,0.9-2.1,1.2c-0.7,0.3-1.4,0.5-2.1,0.5   c-1,0-1.7-0.2-2.4-0.5c-0.6-0.4-1.1-0.8-1.5-1.4c-0.4-0.6-0.6-1.2-0.8-1.9s-0.2-1.4-0.2-2c0-0.7,0.2-1.5,0.5-2.5   c0.3-1,0.8-1.9,1.3-2.9s1.3-1.7,2.3-2.4c0.9-0.7,2-1,3.2-1c0.7,0,1.3,0.2,1.8,0.7c0.5,0.5,0.7,1.1,0.7,1.9c0,0.4-0.1,0.8-0.2,1.1   c-0.1,0.4-0.3,0.7-0.5,1c-0.2,0.3-0.5,0.5-0.8,0.7c-0.3,0.2-0.6,0.3-1,0.3c-0.3,0-0.5-0.1-0.6-0.3c-0.1-0.2-0.2-0.4-0.3-0.7   c0-0.3,0-0.5,0-0.8s0.1-0.4,0.1-0.5c0.1-0.2,0.2-0.3,0.4-0.3c0.1-0.1,0.3-0.1,0.5-0.2c0.1-0.1,0.2-0.2,0.3-0.3   c0.1-0.1,0.1-0.3,0.1-0.4c0-0.2,0-0.3-0.1-0.4c-0.1-0.1-0.2-0.2-0.4-0.2c-0.2,0-0.5,0.2-1.1,0.5c-0.5,0.3-1,0.8-1.6,1.4   c-0.5,0.6-1,1.4-1.4,2.3c-0.4,0.9-0.6,2-0.6,3.2c0,0.7,0.1,1.3,0.3,1.7c0.2,0.5,0.5,0.8,0.8,1.1c0.3,0.3,0.7,0.4,1.1,0.6   C142.1,368.1,142.5,368.1,142.9,368.1z"
       id="path4099" /><path
       d="M164.1,362.5c-0.6,0.9-1.4,1.9-2.2,2.8c-0.8,0.9-1.7,1.7-2.6,2.4s-1.9,1.3-2.8,1.7c-1,0.4-1.9,0.6-2.8,0.6   c-0.5,0-1-0.1-1.5-0.3c-0.6-0.2-1.1-0.6-1.5-1.1c-0.5-0.5-0.8-1.1-1.1-1.8c-0.3-0.8-0.4-1.7-0.2-2.8c0.1-0.9,0.4-1.8,0.8-2.8   c0.5-1,1-1.9,1.7-2.7c0.7-0.8,1.4-1.5,2.3-2c0.9-0.5,1.7-0.8,2.6-0.8c0.8,0,1.4,0.2,1.8,0.6c0.4,0.4,0.5,0.9,0.5,1.5   c-0.1,0.7-0.3,1.3-0.6,1.8c-0.3,0.6-0.7,1.1-1.1,1.5c-0.4,0.5-0.9,0.9-1.4,1.2c-0.5,0.4-0.9,0.7-1.4,1c-0.5,0.3-0.9,0.6-1.4,0.9   c-0.4,0.3-0.8,0.6-1.1,0.8c0,0.5,0.1,1,0.3,1.4c0.2,0.4,0.4,0.7,0.6,0.9s0.6,0.4,0.9,0.5c0.3,0.1,0.7,0.1,1,0.1   c0.7,0,1.5-0.2,2.3-0.7c0.8-0.5,1.6-1,2.4-1.7c0.8-0.7,1.5-1.3,2.1-2.1c0.7-0.7,1.2-1.3,1.6-1.8c0.2-0.2,0.3-0.3,0.5-0.3   s0.3,0,0.4,0.1c0.1,0.1,0.1,0.2,0.1,0.4S164.2,362.2,164.1,362.5z M155.8,357.5c-0.3,0-0.6,0.1-0.9,0.4s-0.7,0.6-1.1,1.1   c-0.3,0.5-0.7,1.1-1,1.8c-0.3,0.7-0.5,1.5-0.7,2.4c0.3-0.2,0.5-0.4,0.8-0.6c0.3-0.2,0.6-0.4,0.9-0.7c0.9-0.7,1.6-1.3,1.9-1.9   c0.4-0.5,0.6-1,0.6-1.4c0-0.4,0-0.7-0.1-0.9C156.2,357.6,156,357.5,155.8,357.5z"
       id="path4101" /><path
       d="M167.3,368.1c0.7,0,1.4-0.3,2.2-0.8c0.8-0.5,1.6-1.1,2.4-1.9c0.8-0.7,1.5-1.4,2.1-2.2c0.6-0.7,1.1-1.3,1.4-1.8   c0.2-0.3,0.4-0.4,0.6-0.5c0.2-0.1,0.3,0,0.4,0.1c0.1,0.1,0.1,0.3,0.1,0.5c0,0.2-0.1,0.5-0.3,0.8c-0.2,0.3-0.4,0.6-0.8,1.1   c-0.4,0.5-0.8,1-1.3,1.6c-0.5,0.6-1,1.2-1.7,1.7c-0.6,0.6-1.3,1.1-1.9,1.6c-0.7,0.5-1.4,0.9-2.1,1.2c-0.7,0.3-1.4,0.5-2.1,0.5   c-1,0-1.7-0.2-2.4-0.5c-0.6-0.4-1.1-0.8-1.5-1.4c-0.4-0.6-0.6-1.2-0.8-1.9s-0.2-1.4-0.2-2c0-0.7,0.2-1.5,0.5-2.5   c0.3-1,0.8-1.9,1.3-2.9s1.3-1.7,2.3-2.4c0.9-0.7,2-1,3.2-1c0.7,0,1.3,0.2,1.8,0.7c0.5,0.5,0.7,1.1,0.7,1.9c0,0.4-0.1,0.8-0.2,1.1   c-0.1,0.4-0.3,0.7-0.5,1c-0.2,0.3-0.5,0.5-0.8,0.7c-0.3,0.2-0.6,0.3-1,0.3c-0.3,0-0.5-0.1-0.6-0.3c-0.1-0.2-0.2-0.4-0.3-0.7   c0-0.3,0-0.5,0-0.8s0.1-0.4,0.1-0.5c0.1-0.2,0.2-0.3,0.4-0.3c0.1-0.1,0.3-0.1,0.5-0.2c0.1-0.1,0.2-0.2,0.3-0.3   c0.1-0.1,0.1-0.3,0.1-0.4c0-0.2,0-0.3-0.1-0.4c-0.1-0.1-0.2-0.2-0.4-0.2c-0.2,0-0.5,0.2-1.1,0.5c-0.5,0.3-1,0.8-1.6,1.4   c-0.5,0.6-1,1.4-1.4,2.3c-0.4,0.9-0.6,2-0.6,3.2c0,0.7,0.1,1.3,0.3,1.7c0.2,0.5,0.5,0.8,0.8,1.1c0.3,0.3,0.7,0.4,1.1,0.6   C166.5,368.1,166.9,368.1,167.3,368.1z"
       id="path4103" /><path
       d="M176.5,357c0.1-0.1,0.3-0.2,0.6-0.3c0.3-0.1,0.6-0.2,0.9-0.2c0.3-0.1,0.6-0.1,0.9-0.1c0.3,0,0.4,0,0.5,0c0,0,0,0.2-0.2,0.7   c-0.1,0.4-0.3,0.9-0.5,1.5c-0.2,0.6-0.4,1.2-0.6,1.8s-0.4,1.1-0.5,1.5c-0.1,0.4-0.2,0.8-0.4,1.3c-0.2,0.5-0.3,1-0.4,1.4   s-0.2,0.9-0.2,1.3c0,0.4,0,0.7,0.1,0.9c0.1,0.3,0.2,0.4,0.4,0.5c0.1,0.1,0.3,0.1,0.4,0.1c0.4,0,1-0.2,1.6-0.7c0.7-0.5,1.3-1,2-1.7   c0.7-0.7,1.3-1.3,1.9-2c0.6-0.7,1-1.2,1.3-1.6c0.2-0.2,0.4-0.4,0.5-0.4c0.2-0.1,0.3-0.1,0.5,0c0.1,0.1,0.2,0.2,0.2,0.4   c0,0.2-0.1,0.4-0.2,0.7c-0.3,0.6-0.9,1.3-1.5,2.2c-0.7,0.8-1.4,1.6-2.1,2.4c-0.8,0.8-1.5,1.4-2.2,2s-1.3,0.8-1.8,0.8   c-0.4,0-0.7,0-1.1-0.2s-0.7-0.3-1-0.6c-0.3-0.2-0.5-0.5-0.7-0.9c-0.2-0.3-0.3-0.7-0.3-1.1c-0.1-0.5-0.1-1.3,0-2.2   c0.1-0.9,0.2-1.9,0.4-2.9c0.2-1,0.4-1.9,0.7-2.8C175.8,358.1,176.1,357.5,176.5,357z M181,350.2c-0.1,0.2-0.2,0.5-0.4,0.7   s-0.4,0.4-0.6,0.5c-0.2,0.1-0.5,0.2-0.7,0.3c-0.2,0-0.4,0-0.6-0.1c-0.5-0.3-0.7-0.7-0.7-1.1c0-0.4,0.1-0.8,0.3-1.1   c0.2-0.4,0.5-0.7,0.8-0.9c0.3-0.2,0.6-0.4,0.8-0.4s0.4,0,0.6,0.1s0.3,0.3,0.4,0.5c0.1,0.2,0.1,0.5,0.1,0.8S181,349.9,181,350.2z"
       id="path4105" /><path
       class="st2"
       d="M201.9,370c-0.5,0-0.9-0.1-1.3-0.3c-0.4-0.2-0.6-0.4-0.9-0.7c-0.2-0.3-0.4-0.7-0.4-1.1c-0.1-0.4,0-0.8,0.1-1.3   c0.1-0.3,0.2-0.7,0.3-1.2c0.2-0.5,0.3-1.1,0.5-1.7c0.2-0.6,0.3-1.2,0.5-1.8c0.1-0.6,0.2-1.1,0.3-1.6c0-0.5,0-0.9-0.1-1.2   s-0.3-0.5-0.6-0.5c-0.3,0-0.7,0.1-1.1,0.3c-0.4,0.2-0.7,0.5-1.1,0.9c-0.4,0.4-0.8,0.8-1.1,1.3c-0.4,0.5-0.8,1-1.1,1.6   c-0.2,0.7-0.4,1.4-0.5,1.9c-0.1,0.6-0.2,1-0.3,1.5c-0.1,0.4-0.2,0.8-0.3,1.2c-0.1,0.3-0.2,0.7-0.2,1c-0.1,0.2-0.3,0.4-0.6,0.6   s-0.7,0.4-1,0.5c-0.4,0.1-0.7,0.2-1,0.2c-0.3,0-0.4-0.1-0.3-0.3c0-0.1,0.1-0.4,0.2-0.9c0.1-0.5,0.3-1,0.4-1.6   c0.2-0.6,0.3-1.3,0.5-2c0.2-0.7,0.3-1.3,0.5-2c0.1-0.5,0.2-1,0.4-1.7c0.1-0.5,0.2-1.1,0.4-1.8s0.4-1.4,0.6-2.3   c0.2-0.1,0.3-0.2,0.5-0.3c0.2-0.1,0.3-0.1,0.5-0.2c0.2-0.1,0.4-0.1,0.6-0.1c0.2,0,0.3,0,0.5,0c0.2,0,0.3,0.1,0.5,0.1   c0.2,0.1,0.3,0.1,0.4,0.2c-0.1,0.2-0.1,0.4-0.2,0.6c-0.1,0.3-0.2,0.6-0.3,0.9c-0.1,0.3-0.2,0.7-0.3,1.1c0.3-0.4,0.6-0.8,1-1.2   c0.4-0.4,0.7-0.8,1.2-1.1s0.9-0.6,1.3-0.8c0.5-0.2,1-0.3,1.5-0.3c0.4,0,0.8,0.1,1.1,0.4c0.3,0.2,0.6,0.6,0.8,1   c0.2,0.4,0.3,0.9,0.3,1.5c0,0.6,0,1.2-0.2,1.9l-0.4,1.4c-0.1,0.5-0.2,1-0.4,1.6c-0.2,0.6-0.4,1.3-0.6,2c-0.1,0.5-0.2,0.9-0.1,1.2   c0,0.3,0.2,0.5,0.6,0.5c0.4,0,0.9-0.2,1.5-0.7s1.2-1,1.8-1.7c0.6-0.7,1.2-1.4,1.7-2.1c0.5-0.7,1-1.3,1.2-1.7   c0.2-0.3,0.4-0.5,0.6-0.6c0.2-0.1,0.3-0.1,0.4,0c0.1,0.1,0.1,0.2,0.1,0.4s-0.1,0.5-0.3,0.9c-0.2,0.3-0.4,0.7-0.7,1.2   c-0.3,0.5-0.7,1-1.1,1.6c-0.4,0.6-0.9,1.1-1.4,1.7s-1,1.1-1.6,1.6c-0.5,0.5-1.1,0.8-1.6,1.1C202.8,369.9,202.3,370,201.9,370z"
       id="path4107" /><path
       class="st2"
       d="M210.7,350.5c-0.3,0-0.6-0.2-0.9-0.5c-0.2-0.3-0.3-0.7-0.2-1.1c0-0.3,0.2-0.6,0.3-0.9c0.2-0.3,0.4-0.5,0.6-0.7   c0.2-0.2,0.5-0.3,0.8-0.4c0.3-0.1,0.6-0.1,0.9-0.1c0.6,0.1,0.9,0.3,1.1,0.8c0.2,0.5,0.2,1,0.1,1.6c0,0.3-0.1,0.7-0.3,1.1   c-0.1,0.4-0.3,0.8-0.6,1.3c-0.2,0.4-0.6,0.9-0.9,1.3c-0.4,0.4-0.8,0.8-1.3,1.1c-0.2,0.1-0.4,0.2-0.5,0.2s-0.2-0.1-0.2-0.2   s0-0.2,0-0.4c0-0.2,0.1-0.3,0.2-0.4c0.2-0.2,0.5-0.6,0.8-1.1c0.3-0.5,0.5-1,0.6-1.6c-0.1,0-0.2,0-0.3,0.1   C210.9,350.6,210.8,350.6,210.7,350.5z"
       id="path4109" /><path
       class="st2"
       d="M227.4,362.5c-0.6,0.9-1.4,1.9-2.2,2.8c-0.8,0.9-1.7,1.7-2.6,2.4s-1.9,1.3-2.8,1.7c-1,0.4-1.9,0.6-2.8,0.6   c-0.5,0-1-0.1-1.5-0.3c-0.6-0.2-1.1-0.6-1.5-1.1c-0.5-0.5-0.8-1.1-1.1-1.8c-0.3-0.8-0.4-1.7-0.2-2.8c0.1-0.9,0.4-1.8,0.8-2.8   c0.5-1,1-1.9,1.7-2.7c0.7-0.8,1.4-1.5,2.3-2c0.9-0.5,1.7-0.8,2.6-0.8c0.8,0,1.4,0.2,1.8,0.6c0.4,0.4,0.5,0.9,0.5,1.5   c-0.1,0.7-0.3,1.3-0.6,1.8c-0.3,0.6-0.7,1.1-1.1,1.5c-0.4,0.5-0.9,0.9-1.4,1.2c-0.5,0.4-0.9,0.7-1.4,1c-0.5,0.3-0.9,0.6-1.4,0.9   c-0.4,0.3-0.8,0.6-1.1,0.8c0,0.5,0.1,1,0.3,1.4c0.2,0.4,0.4,0.7,0.6,0.9s0.6,0.4,0.9,0.5c0.3,0.1,0.7,0.1,1,0.1   c0.7,0,1.5-0.2,2.3-0.7c0.8-0.5,1.6-1,2.4-1.7c0.8-0.7,1.5-1.3,2.1-2.1c0.7-0.7,1.2-1.3,1.6-1.8c0.2-0.2,0.3-0.3,0.5-0.3   s0.3,0,0.4,0.1c0.1,0.1,0.1,0.2,0.1,0.4S227.5,362.2,227.4,362.5z M219.1,357.5c-0.3,0-0.6,0.1-0.9,0.4s-0.7,0.6-1.1,1.1   c-0.3,0.5-0.7,1.1-1,1.8c-0.3,0.7-0.5,1.5-0.7,2.4c0.3-0.2,0.5-0.4,0.8-0.6c0.3-0.2,0.6-0.4,0.9-0.7c0.9-0.7,1.6-1.3,1.9-1.9   c0.4-0.5,0.6-1,0.6-1.4c0-0.4,0-0.7-0.1-0.9C219.5,357.6,219.3,357.5,219.1,357.5z"
       id="path4111" /><path
       class="st2"
       d="M229.6,368.1c0.1,0.1,0.3,0.1,0.5,0.1c0.2,0,0.4,0,0.6-0.1c0.2-0.1,0.4-0.2,0.6-0.4c0.2-0.2,0.3-0.3,0.4-0.6   c0.1-0.2,0.1-0.6,0-1c-0.1-0.4-0.2-0.9-0.4-1.4s-0.4-1-0.6-1.5c-0.2-0.5-0.4-1-0.6-1.4c-0.1-0.3-0.2-0.6-0.3-0.9   c-0.1-0.2-0.2-0.5-0.2-0.7s-0.1-0.4-0.2-0.5c-0.1,0.2-0.3,0.5-0.6,0.8c-0.3,0.4-0.6,0.8-0.9,1.2c-0.3,0.4-0.6,0.8-0.9,1.2   c-0.3,0.4-0.5,0.6-0.6,0.7c-0.2,0.2-0.3,0.3-0.5,0.3s-0.3,0-0.4-0.1c-0.1-0.1-0.2-0.2-0.2-0.4s0.1-0.4,0.2-0.7   c0.1-0.2,0.3-0.4,0.6-0.8c0.3-0.4,0.5-0.8,0.8-1.2s0.5-0.8,0.7-1.1c0.2-0.3,0.3-0.5,0.4-0.6c0-0.2,0-0.4-0.2-0.7   c-0.2-0.3-0.2-0.6-0.1-1c0.1-0.3,0.3-0.7,0.6-1.1s0.7-0.8,1.1-1.1c0.4-0.3,0.8-0.6,1.3-0.7c0.4-0.2,0.8-0.2,1.2,0   c0.3,0.2,0.5,0.4,0.7,0.6c0.2,0.2,0.2,0.4,0.2,0.6c0,0.1-0.1,0.2-0.2,0.4c-0.1,0.2-0.2,0.4-0.4,0.6c-0.2,0.2-0.4,0.6-0.7,1   c0.1,0.5,0.2,0.9,0.3,1.4c0.1,0.4,0.2,0.8,0.3,1.1c0.1,0.4,0.3,0.7,0.4,1c0.2,0.4,0.4,0.8,0.6,1.2c0.2,0.4,0.4,0.8,0.6,1.2   s0.3,0.8,0.4,1.1c0.1,0.3,0.1,0.6,0.1,0.9c-0.1,0.4-0.3,0.8-0.6,1.3c-0.3,0.5-0.7,1-1.2,1.5c-0.5,0.5-1,0.9-1.6,1.2   c-0.6,0.3-1.2,0.5-1.9,0.5c-0.5,0-0.9-0.1-1.3-0.4c-0.4-0.3-0.8-0.6-1.1-1c-0.3-0.4-0.5-0.7-0.6-1.1c-0.1-0.4-0.2-0.6,0-0.8   c0.1-0.3,0.2-0.5,0.4-0.6c0.1-0.2,0.3-0.3,0.5-0.5c0.1-0.1,0.2-0.1,0.3-0.2c0.1-0.1,0.3-0.1,0.5-0.2c0.2-0.1,0.4-0.1,0.7-0.2   c0.2,0.7,0.4,1.2,0.6,1.6c0.2,0.4,0.3,0.7,0.4,0.9C229.4,367.9,229.5,368,229.6,368.1z"
       id="path4113" /><path
       class="st2"
       d="M248.7,361c0.1-0.1,0.2-0.2,0.3-0.2c0.1,0,0.3,0,0.3,0c0.1,0.1,0.1,0.2,0.1,0.3c0,0.2,0,0.4-0.2,0.6   c-0.4,0.8-1,1.7-1.7,2.7c-0.7,0.9-1.4,1.8-2.2,2.7s-1.5,1.5-2.3,2.1c-0.7,0.5-1.4,0.8-1.8,0.8c-0.7,0-1.3-0.1-1.8-0.4   c-0.5-0.3-0.8-0.6-1.1-1c-0.3-0.4-0.5-0.9-0.6-1.3c-0.1-0.5-0.1-0.9-0.1-1.3c0-0.3,0.1-1,0.2-1.9c0.1-0.9,0.3-1.9,0.5-3.1   s0.5-2.4,0.7-3.8c0.3-1.3,0.6-2.6,0.9-3.9c-0.4,0-0.7,0.1-1.1,0.1c-0.4,0-0.7,0.1-1,0.1c-0.7,0-1.3-0.1-2-0.2   c-0.6-0.2-1.1-0.3-1.4-0.5c-0.2-0.1-0.2-0.2-0.2-0.4s0.1-0.3,0.2-0.5c0.1-0.2,0.2-0.3,0.4-0.4c0.2-0.1,0.3-0.2,0.4-0.2   c0.4,0,0.9,0.1,1.3,0.1c0.5,0,1,0,1.6,0c0.4,0,0.8-0.1,1.2-0.1c0.4,0,0.8-0.1,1.1-0.2c0.3-1,0.6-1.9,0.8-2.7   c0.3-0.8,0.5-1.3,0.7-1.6c0.1-0.1,0.2-0.2,0.4-0.3c0.2-0.1,0.5-0.1,0.7-0.2s0.5,0,0.7,0s0.4,0.1,0.5,0.2c0.1,0.2,0.2,0.6,0.1,1.3   c0,0.7-0.1,1.6-0.4,2.7c0.9,0,1.7,0,2.4,0.1c0.7,0.1,1.3,0.2,1.8,0.3c0.5,0.1,0.9,0.2,1.2,0.4c0.3,0.1,0.5,0.2,0.7,0.2   c0.2,0,0.2,0.2,0.2,0.3c0,0.2,0,0.4-0.1,0.5c-0.1,0.2-0.2,0.3-0.4,0.5c-0.2,0.1-0.4,0.2-0.6,0.1c-0.2,0-0.5-0.1-0.7-0.1   c-0.3-0.1-0.6-0.1-1-0.2s-0.8-0.1-1.3-0.1c-0.5,0-1.1-0.1-1.8-0.1c-0.1,0-0.3,0-0.4,0s-0.3,0-0.5,0c-0.1,0.3-0.2,0.7-0.2,1   c-0.1,0.3-0.2,0.7-0.3,1.1c-0.3,0.9-0.6,1.8-1,2.8c-0.3,0.9-0.7,1.9-1.2,3c-0.5,1.1-1,2.4-1.5,3.7c-0.1,0.9-0.1,1.6,0,2.1   s0.4,0.8,0.6,1.1c0.3,0.2,0.6,0.4,1,0.4c0.3,0,0.7-0.1,1.2-0.3c0.5-0.3,0.9-0.6,1.4-1.1c0.5-0.5,1-0.9,1.5-1.5   c0.5-0.5,1-1.1,1.4-1.6c0.4-0.5,0.8-1,1.1-1.4S248.5,361.2,248.7,361z"
       id="path4115" /><path
       class="st2"
       d="M253.7,383c-0.2-0.1-0.3-0.2-0.5-0.3c-0.1-0.1-0.3-0.2-0.4-0.4c-0.1-0.2-0.2-0.4-0.3-0.6   c0.6-2.3,1.1-4.3,1.5-6s0.8-3.1,1.1-4.3c0.3-1.3,0.6-2.5,0.8-3.4c0.2-0.9,0.4-1.7,0.6-2.6c0.2-0.8,0.4-1.6,0.6-2.4   c0.2-0.9,0.4-1.7,0.6-2.4c0.2-0.8,0.3-1.5,0.4-2c0-0.5-0.1-0.9-0.5-1.3c0.3-0.2,0.5-0.4,0.8-0.5c0.3-0.1,0.5-0.2,0.7-0.2   c0.2-0.1,0.5-0.1,0.7-0.1c0.6,0,0.9,0.2,1.1,0.5c0.1,0.3,0.2,0.8,0,1.6c0,0.1,0,0.2,0,0.3c0,0.1,0,0.2,0,0.2c0.3-0.3,0.6-0.7,1-1   c0.4-0.3,0.7-0.6,1.1-0.9c0.4-0.3,0.8-0.5,1.2-0.6c0.4-0.2,0.8-0.2,1.2-0.2c0.5,0,0.9,0.1,1.2,0.4c0.3,0.2,0.6,0.6,0.7,1   c0.2,0.4,0.3,0.9,0.3,1.4c0,0.5,0.1,1,0,1.5c0,0.5-0.1,1.1-0.3,1.7c-0.2,0.6-0.4,1.2-0.7,1.8c-0.3,0.6-0.6,1.2-1,1.8   c-0.4,0.6-0.8,1.2-1.2,1.7c0.1,0,0.1,0,0.2,0c0,0,0,0,0,0s0,0,0,0c0,0,0.1,0,0.2,0c0.5,0,1-0.1,1.5-0.4s1-0.6,1.5-1   c0.5-0.4,1-0.8,1.4-1.3c0.5-0.5,0.9-0.9,1.3-1.4s0.7-0.8,1-1.2c0.3-0.4,0.5-0.6,0.6-0.8c0.2-0.2,0.3-0.4,0.5-0.4   c0.2-0.1,0.3-0.1,0.4,0c0.1,0.1,0.1,0.2,0.1,0.4c0,0.2-0.1,0.4-0.2,0.7c-0.1,0.2-0.3,0.5-0.6,0.9s-0.6,0.9-1,1.5   c-0.4,0.5-0.9,1.1-1.4,1.7c-0.5,0.6-1.1,1.1-1.7,1.6c-0.6,0.5-1.2,0.9-1.8,1.2s-1.2,0.5-1.8,0.5c-0.3,0-0.5,0-0.7,0   c-0.2,0-0.3-0.1-0.4-0.1c-0.1-0.1-0.2-0.1-0.3-0.2c-0.1-0.1-0.2-0.1-0.4-0.2c-0.4,0.3-0.8,0.5-1.2,0.7c-0.4,0.2-0.8,0.2-1.2,0.2   c-0.4,0-0.7-0.1-1-0.2c-0.3-0.1-0.5-0.3-0.7-0.5c-0.2-0.2-0.3-0.4-0.4-0.7c-0.1-0.2-0.2-0.5-0.3-0.7c0,0.1,0,0.2,0,0.2   c0,0.1,0,0.2,0,0.3c-0.3,1-0.5,2.2-0.8,3.6c-0.2,1.2-0.5,2.6-0.9,4.3c-0.3,1.7-0.7,3.6-1.1,5.7c-0.1,0.6-0.4,0.9-0.7,1   C254.5,383.2,254.1,383.2,253.7,383z M259.6,363c-0.1,0.4-0.2,0.8-0.3,1.3c-0.1,0.5-0.3,1.1-0.4,1.7c0.2-0.1,0.4-0.2,0.6-0.3   c0.2-0.1,0.4-0.1,0.6-0.1c0.2,0,0.5,0.1,0.9,0.4c0.4,0.2,0.8,0.5,1.3,0.8c0.3-0.4,0.7-0.8,1-1.3s0.7-1,1-1.5c0.3-0.5,0.5-1,0.7-1.6   c0.2-0.5,0.3-1.1,0.3-1.6c0-0.6,0-1.2-0.2-1.5c-0.2-0.4-0.5-0.6-1-0.6c-0.7,0-1.4,0.4-2.2,1.2C261.2,360.7,260.4,361.7,259.6,363z"
       id="path4117" /><path
       class="st2"
       d="M287.6,362.8c-0.3,0.4-0.7,1-1.2,1.6c-0.5,0.6-1,1.3-1.5,1.9c-0.5,0.6-1,1.2-1.5,1.7c-0.5,0.5-0.9,0.9-1.2,1.1   c-0.2,0.1-0.5,0.2-0.7,0.3s-0.6,0.1-0.9,0.2c-0.3,0-0.6,0-0.8,0c-0.3-0.1-0.5-0.1-0.7-0.3c-0.2-0.2-0.4-0.4-0.5-0.6   c-0.1-0.2-0.2-0.6-0.3-0.9c-0.1-0.4-0.1-0.9-0.1-1.5c-0.5,0.9-1.1,1.5-1.7,2c-0.6,0.5-1.2,0.8-1.8,1c-0.6,0.2-1.3,0.4-1.9,0.4   c-0.3,0-0.6-0.1-1-0.3c-0.3-0.2-0.6-0.5-0.9-1c-0.2-0.4-0.4-1-0.5-1.7c-0.1-0.7,0-1.5,0.3-2.5c0.3-1.3,0.8-2.5,1.4-3.6   c0.7-1.1,1.4-2,2.2-2.8c0.8-0.8,1.5-1.3,2.3-1.7c0.8-0.4,1.4-0.6,1.9-0.5c0.6,0.1,1.1,0.3,1.4,0.5c0.3,0.2,0.5,0.5,0.6,1   s-0.1,1-0.5,1.7c0.3-0.1,0.6-0.1,0.8-0.1c0.2,0,0.4,0,0.5,0c0.1,0,0.2,0,0.3,0c0,0,0,0.1,0,0.3c0,0.1,0,0.4-0.1,0.8   c-0.1,0.4-0.2,0.9-0.3,1.5c-0.1,0.6-0.3,1.4-0.5,2.4c0,0.2-0.1,0.4-0.1,0.5c0,0.2-0.1,0.3-0.1,0.5c0,0.2-0.1,0.4-0.1,0.6   c0,0.2-0.1,0.5-0.2,0.8c0,0.2,0,0.4,0,0.6c0,0.2,0,0.4,0.1,0.6c0.1,0.2,0.2,0.4,0.3,0.5c0.1,0.1,0.3,0.2,0.6,0.2   c0.2,0,0.5-0.1,0.8-0.4c0.3-0.3,0.7-0.6,1.1-1c0.4-0.4,0.8-0.9,1.2-1.4s0.8-1,1.2-1.5c0.4-0.5,0.7-0.9,1-1.3   c0.3-0.4,0.5-0.6,0.6-0.8c0.2-0.2,0.3-0.3,0.5-0.3c0.2,0,0.3,0,0.4,0.1s0.1,0.3,0,0.6C288,362.1,287.9,362.4,287.6,362.8z    M278.1,364.2c0.1-0.4,0.2-0.9,0.4-1.5c0.2-0.6,0.3-1.1,0.4-1.7c0.1-0.5,0.2-1,0.2-1.3c0.1-0.4,0-0.5,0-0.5c-0.1,0-0.2,0.1-0.4,0.1   c-0.1,0-0.2,0.1-0.4,0.1c-0.2,0-0.3,0.1-0.5,0.1c0.2-0.3,0.3-0.6,0.3-0.9c0-0.2,0-0.4,0-0.5c0-0.2-0.1-0.3-0.1-0.4   c-0.2-0.2-0.7,0-1.2,0.5s-1.3,1.4-2.1,2.8c-0.3,0.6-0.6,1.2-0.8,1.8c-0.2,0.6-0.3,1.2-0.4,1.8c-0.1,0.6-0.1,1.1,0,1.5   c0,0.4,0.1,0.7,0.3,0.8c0.2,0.2,0.5,0.4,0.8,0.3s0.6-0.1,0.9-0.3c0.3-0.2,0.6-0.4,0.9-0.6c0.3-0.3,0.6-0.5,0.8-0.8   c0.2-0.3,0.5-0.5,0.6-0.8C278,364.5,278.1,364.3,278.1,364.2z"
       id="path4119" /><path
       class="st2"
       d="M290,368.1c0.1,0.1,0.3,0.1,0.5,0.1c0.2,0,0.4,0,0.6-0.1c0.2-0.1,0.4-0.2,0.6-0.4c0.2-0.2,0.3-0.3,0.4-0.6   c0.1-0.2,0.1-0.6,0-1c-0.1-0.4-0.2-0.9-0.4-1.4s-0.4-1-0.6-1.5c-0.2-0.5-0.4-1-0.6-1.4c-0.1-0.3-0.2-0.6-0.3-0.9   c-0.1-0.2-0.2-0.5-0.2-0.7s-0.1-0.4-0.2-0.5c-0.1,0.2-0.3,0.5-0.6,0.8c-0.3,0.4-0.6,0.8-0.9,1.2c-0.3,0.4-0.6,0.8-0.9,1.2   c-0.3,0.4-0.5,0.6-0.6,0.7c-0.2,0.2-0.3,0.3-0.5,0.3s-0.3,0-0.4-0.1c-0.1-0.1-0.2-0.2-0.2-0.4s0.1-0.4,0.2-0.7   c0.1-0.2,0.3-0.4,0.6-0.8c0.3-0.4,0.5-0.8,0.8-1.2s0.5-0.8,0.7-1.1c0.2-0.3,0.3-0.5,0.4-0.6c0-0.2,0-0.4-0.2-0.7   c-0.2-0.3-0.2-0.6-0.1-1c0.1-0.3,0.3-0.7,0.6-1.1s0.7-0.8,1.1-1.1c0.4-0.3,0.8-0.6,1.3-0.7c0.4-0.2,0.8-0.2,1.2,0   c0.3,0.2,0.5,0.4,0.7,0.6c0.2,0.2,0.2,0.4,0.2,0.6c0,0.1-0.1,0.2-0.2,0.4c-0.1,0.2-0.2,0.4-0.4,0.6c-0.2,0.2-0.4,0.6-0.7,1   c0.1,0.5,0.2,0.9,0.3,1.4c0.1,0.4,0.2,0.8,0.3,1.1c0.1,0.4,0.3,0.7,0.4,1c0.2,0.4,0.4,0.8,0.6,1.2c0.2,0.4,0.4,0.8,0.6,1.2   s0.3,0.8,0.4,1.1c0.1,0.3,0.1,0.6,0.1,0.9c-0.1,0.4-0.3,0.8-0.6,1.3c-0.3,0.5-0.7,1-1.2,1.5c-0.5,0.5-1,0.9-1.6,1.2   c-0.6,0.3-1.2,0.5-1.9,0.5c-0.5,0-0.9-0.1-1.3-0.4c-0.4-0.3-0.8-0.6-1.1-1c-0.3-0.4-0.5-0.7-0.6-1.1c-0.1-0.4-0.2-0.6,0-0.8   c0.1-0.3,0.2-0.5,0.4-0.6c0.1-0.2,0.3-0.3,0.5-0.5c0.1-0.1,0.2-0.1,0.3-0.2c0.1-0.1,0.3-0.1,0.5-0.2c0.2-0.1,0.4-0.1,0.7-0.2   c0.2,0.7,0.4,1.2,0.6,1.6c0.2,0.4,0.3,0.7,0.4,0.9C289.8,367.9,289.9,368,290,368.1z"
       id="path4121" /><path
       class="st0"
       d="M310.4,369.7c-0.8,0-1.5-0.1-2-0.4c-0.5-0.3-0.9-0.6-1.2-1c-0.3-0.4-0.5-0.8-0.6-1.2c-0.1-0.4-0.2-0.8-0.2-1.2   c0-0.6,0.1-1.3,0.2-2.1c0.1-0.7,0.2-1.4,0.4-2s0.3-1.1,0.4-1.6c0.1-0.4,0.2-0.7,0.2-0.8c0.2-0.6,0.4-1.2,0.8-1.6   c0.3-0.5,0.8-0.8,1.3-1c0.2,0,0.4-0.1,0.7-0.1c0.2,0,0.4,0,0.6,0c0.2,0,0.4,0,0.6,0.1c-0.6,1.5-1,2.7-1.4,3.7   c-0.3,1-0.6,1.8-0.8,2.4c-0.2,0.7-0.3,1.3-0.4,1.7c-0.1,1,0,1.7,0.3,2.2c0.3,0.5,0.9,0.7,1.7,0.7c0.6,0,1.1-0.2,1.6-0.6   c0.5-0.4,1-1,1.4-1.6c-0.1-0.3-0.1-0.7-0.1-1.1c0-0.7,0.1-1.4,0.2-2s0.3-1.3,0.4-1.8c0.2-0.6,0.3-1.1,0.5-1.5s0.3-0.8,0.5-1.1   c0.2-0.5,0.5-0.8,0.6-1c0.2-0.1,0.5-0.2,0.9-0.2c0.2,0,0.3,0,0.4,0c0.1,0,0.2,0,0.3,0c0.3,0.1,0.4,0.2,0.4,0.4c0,0.3,0,0.9-0.1,1.6   c0,0.7-0.2,1.4-0.4,2.1c-0.2,0.6-0.3,1.1-0.4,1.5s-0.3,0.8-0.4,1.1c-0.1,0.3-0.3,0.5-0.4,0.7c-0.1,0.2-0.2,0.4-0.4,0.5   c0,0.6,0.1,1.2,0.2,1.6c0.1,0.4,0.1,0.7,0.2,0.9s0.2,0.3,0.4,0.4c0.1,0.1,0.3,0.1,0.5,0.1c0.3,0,0.7-0.1,1.1-0.4   c0.4-0.3,0.8-0.7,1.3-1.1c0.4-0.4,0.9-0.9,1.3-1.5c0.4-0.5,0.8-1,1.2-1.5c0.4-0.5,0.7-0.9,0.9-1.2c0.3-0.4,0.4-0.6,0.5-0.7   c0.2-0.2,0.3-0.3,0.4-0.4c0.1,0,0.3,0,0.3,0c0.1,0.1,0.1,0.2,0.1,0.4c0,0.2,0,0.3-0.1,0.5c-0.4,0.8-1,1.7-1.6,2.6   c-0.6,0.9-1.3,1.8-2,2.5c-0.7,0.8-1.5,1.4-2.2,1.9c-0.7,0.5-1.4,0.8-2.1,0.8c-0.6,0-1-0.2-1.4-0.6c-0.3-0.4-0.6-1-0.9-1.7   c-0.5,0.8-1.1,1.4-1.8,1.8C312,369.5,311.3,369.7,310.4,369.7z"
       id="path4123" /><path
       class="st0"
       d="M331.6,370c-0.5,0-0.9-0.1-1.3-0.3c-0.4-0.2-0.6-0.4-0.9-0.7s-0.4-0.7-0.4-1.1c-0.1-0.4,0-0.8,0.1-1.3   c0.1-0.3,0.2-0.7,0.3-1.2c0.2-0.5,0.3-1.1,0.5-1.7c0.2-0.6,0.3-1.2,0.5-1.8c0.1-0.6,0.2-1.1,0.3-1.6c0-0.5,0-0.9-0.1-1.2   c-0.1-0.3-0.3-0.5-0.6-0.5c-0.3,0-0.7,0.1-1.1,0.3s-0.7,0.5-1.1,0.9c-0.4,0.4-0.8,0.8-1.1,1.3s-0.8,1-1.1,1.6   c-0.2,0.7-0.4,1.4-0.5,1.9c-0.1,0.6-0.2,1-0.3,1.5s-0.2,0.8-0.3,1.2c-0.1,0.3-0.2,0.7-0.2,1c-0.1,0.2-0.3,0.4-0.6,0.6   s-0.7,0.4-1,0.5c-0.4,0.1-0.7,0.2-1,0.2c-0.3,0-0.4-0.1-0.3-0.3c0-0.1,0.1-0.4,0.2-0.9c0.1-0.5,0.3-1,0.4-1.6   c0.2-0.6,0.3-1.3,0.5-2s0.3-1.3,0.5-2c0.1-0.5,0.2-1,0.4-1.7c0.1-0.5,0.2-1.1,0.4-1.8s0.4-1.4,0.6-2.3c0.2-0.1,0.3-0.2,0.5-0.3   c0.2-0.1,0.3-0.1,0.5-0.2c0.2-0.1,0.4-0.1,0.6-0.1c0.2,0,0.3,0,0.5,0c0.2,0,0.3,0.1,0.5,0.1c0.2,0.1,0.3,0.1,0.4,0.2   c-0.1,0.2-0.1,0.4-0.2,0.6c-0.1,0.3-0.2,0.6-0.3,0.9c-0.1,0.3-0.2,0.7-0.3,1.1c0.3-0.4,0.6-0.8,1-1.2c0.4-0.4,0.7-0.8,1.2-1.1   c0.4-0.3,0.9-0.6,1.3-0.8c0.5-0.2,1-0.3,1.5-0.3c0.4,0,0.8,0.1,1.1,0.4c0.3,0.2,0.6,0.6,0.8,1c0.2,0.4,0.3,0.9,0.3,1.5   c0,0.6,0,1.2-0.2,1.9l-0.4,1.4c-0.1,0.5-0.2,1-0.4,1.6c-0.2,0.6-0.4,1.3-0.6,2c-0.1,0.5-0.2,0.9-0.1,1.2c0,0.3,0.2,0.5,0.6,0.5   c0.4,0,0.9-0.2,1.5-0.7c0.6-0.5,1.2-1,1.8-1.7c0.6-0.7,1.2-1.4,1.7-2.1c0.5-0.7,1-1.3,1.2-1.7c0.2-0.3,0.4-0.5,0.6-0.6   c0.2-0.1,0.3-0.1,0.4,0c0.1,0.1,0.1,0.2,0.1,0.4s-0.1,0.5-0.3,0.9c-0.2,0.3-0.4,0.7-0.7,1.2s-0.7,1-1.1,1.6   c-0.4,0.6-0.9,1.1-1.4,1.7s-1,1.1-1.6,1.6c-0.5,0.5-1.1,0.8-1.6,1.1C332.6,369.9,332.1,370,331.6,370z"
       id="path4125" /><path
       class="st0"
       d="M352,362.5c-0.6,0.9-1.4,1.9-2.2,2.8c-0.8,0.9-1.7,1.7-2.6,2.4c-0.9,0.7-1.9,1.3-2.8,1.7   c-1,0.4-1.9,0.6-2.8,0.6c-0.5,0-1-0.1-1.5-0.3s-1.1-0.6-1.5-1.1c-0.5-0.5-0.8-1.1-1.1-1.8s-0.4-1.7-0.2-2.8   c0.1-0.9,0.4-1.8,0.8-2.8c0.5-1,1-1.9,1.7-2.7c0.7-0.8,1.4-1.5,2.3-2c0.9-0.5,1.7-0.8,2.6-0.8c0.8,0,1.4,0.2,1.8,0.6   c0.4,0.4,0.5,0.9,0.5,1.5c-0.1,0.7-0.3,1.3-0.6,1.8c-0.3,0.6-0.7,1.1-1.1,1.5c-0.4,0.5-0.9,0.9-1.4,1.2c-0.5,0.4-0.9,0.7-1.4,1   c-0.5,0.3-0.9,0.6-1.4,0.9c-0.4,0.3-0.8,0.6-1.1,0.8c0,0.5,0.1,1,0.3,1.4c0.2,0.4,0.4,0.7,0.6,0.9c0.3,0.2,0.6,0.4,0.9,0.5   c0.3,0.1,0.7,0.1,1,0.1c0.7,0,1.5-0.2,2.3-0.7c0.8-0.5,1.6-1,2.4-1.7c0.8-0.7,1.5-1.3,2.1-2.1s1.2-1.3,1.6-1.8   c0.2-0.2,0.3-0.3,0.5-0.3s0.3,0,0.4,0.1c0.1,0.1,0.1,0.2,0.1,0.4S352.1,362.2,352,362.5z M343.7,357.5c-0.3,0-0.6,0.1-0.9,0.4   s-0.7,0.6-1.1,1.1c-0.3,0.5-0.7,1.1-1,1.8c-0.3,0.7-0.5,1.5-0.7,2.4c0.3-0.2,0.5-0.4,0.8-0.6c0.3-0.2,0.6-0.4,0.9-0.7   c0.9-0.7,1.6-1.3,1.9-1.9s0.6-1,0.6-1.4c0-0.4,0-0.7-0.1-0.9C344.1,357.6,343.9,357.5,343.7,357.5z"
       id="path4127" /><path
       class="st0"
       d="M364.5,368.1c0.7,0,1.4-0.3,2.2-0.8s1.6-1.1,2.4-1.9c0.8-0.7,1.5-1.4,2.1-2.2s1.1-1.3,1.4-1.8   c0.2-0.3,0.4-0.4,0.6-0.5c0.2-0.1,0.3,0,0.4,0.1c0.1,0.1,0.1,0.3,0.1,0.5s-0.1,0.5-0.3,0.8c-0.2,0.3-0.4,0.6-0.8,1.1   c-0.4,0.5-0.8,1-1.3,1.6c-0.5,0.6-1,1.2-1.7,1.7c-0.6,0.6-1.3,1.1-1.9,1.6c-0.7,0.5-1.4,0.9-2.1,1.2c-0.7,0.3-1.4,0.5-2.1,0.5   c-1,0-1.7-0.2-2.4-0.5c-0.6-0.4-1.1-0.8-1.5-1.4c-0.4-0.6-0.6-1.2-0.8-1.9c-0.2-0.7-0.2-1.4-0.2-2c0-0.7,0.2-1.5,0.5-2.5   s0.8-1.9,1.3-2.9c0.6-0.9,1.3-1.7,2.3-2.4s2-1,3.2-1c0.7,0,1.3,0.2,1.8,0.7c0.5,0.5,0.7,1.1,0.7,1.9c0,0.4-0.1,0.8-0.2,1.1   c-0.1,0.4-0.3,0.7-0.5,1c-0.2,0.3-0.5,0.5-0.8,0.7c-0.3,0.2-0.6,0.3-1,0.3c-0.3,0-0.5-0.1-0.6-0.3c-0.1-0.2-0.2-0.4-0.3-0.7   c0-0.3,0-0.5,0-0.8s0.1-0.4,0.1-0.5c0.1-0.2,0.2-0.3,0.4-0.3c0.1-0.1,0.3-0.1,0.5-0.2c0.1-0.1,0.2-0.2,0.3-0.3   c0.1-0.1,0.1-0.3,0.1-0.4c0-0.2,0-0.3-0.1-0.4c-0.1-0.1-0.2-0.2-0.4-0.2c-0.2,0-0.5,0.2-1.1,0.5c-0.5,0.3-1,0.8-1.6,1.4   c-0.5,0.6-1,1.4-1.4,2.3c-0.4,0.9-0.6,2-0.6,3.2c0,0.7,0.1,1.3,0.3,1.7c0.2,0.5,0.5,0.8,0.8,1.1c0.3,0.3,0.7,0.4,1.1,0.6   S364.1,368.1,364.5,368.1z"
       id="path4129" /><path
       class="st0"
       d="M380.6,364.1c-0.2,0.8-0.5,1.6-0.9,2.3s-0.8,1.3-1.3,1.8s-1.1,0.9-1.7,1.2c-0.6,0.3-1.3,0.4-2.1,0.4   c-0.9,0-1.6-0.2-2.1-0.6c-0.5-0.4-0.9-0.8-1.1-1.4c-0.2-0.6-0.4-1.2-0.5-1.8c-0.1-0.7-0.1-1.3-0.1-1.9c0-0.4,0-0.9,0.1-1.4   c0.1-0.5,0.2-1,0.4-1.5c0.2-0.5,0.4-1,0.7-1.6c0.3-0.5,0.6-1,1-1.4c0.1-0.4,0.3-0.7,0.6-1c0.3-0.3,0.6-0.5,0.9-0.7   c0.4-0.2,0.7-0.3,1.2-0.4c0.4-0.1,0.8-0.1,1.2-0.1c0.1,0,0.1,0,0.2,0c0.1,0,0.1,0,0.2,0.1c0.3,0,0.6,0.1,1.1,0.3   c0.4,0.2,0.8,0.5,1.2,0.9c0.4,0.4,0.7,0.9,1,1.5c0.3,0.6,0.4,1.3,0.4,2.2c0,0.2,0,0.4,0,0.6s0,0.5-0.1,0.6c0.5-0.2,1-0.4,1.6-0.7   s1.1-0.6,1.6-0.9s1-0.6,1.4-1c0.4-0.3,0.8-0.6,1-0.9c0.2-0.2,0.4-0.3,0.6-0.3c0.2,0,0.3,0,0.3,0.1c0.1,0.1,0.1,0.3,0,0.5   c0,0.2-0.2,0.4-0.4,0.6c-0.1,0.1-0.4,0.4-0.8,0.8c-0.4,0.4-1,0.8-1.6,1.3c-0.6,0.5-1.3,0.9-2,1.3S381.3,363.9,380.6,364.1z    M373.1,364.8c0,0.4,0,0.8,0.1,1.1c0,0.4,0.1,0.7,0.3,1s0.3,0.5,0.5,0.7c0.2,0.2,0.5,0.3,0.8,0.3c0.4,0,0.7-0.1,1.1-0.3   c0.3-0.2,0.6-0.4,0.9-0.7c0.3-0.3,0.5-0.6,0.7-1c0.2-0.4,0.4-0.8,0.5-1.2c-0.2,0-0.3,0-0.4,0c-0.1,0-0.3,0-0.5,0   c-0.8,0-1.5-0.2-2.1-0.7c-0.6-0.5-1.1-1.1-1.4-1.9c-0.1,0.5-0.2,0.9-0.3,1.3C373.1,364.1,373.1,364.5,373.1,364.8z M375.1,359.2   c-0.1,0.2-0.1,0.4-0.1,0.6c0,0.3,0,0.7,0.1,1.1c0,0.4,0.2,0.7,0.3,1c0.2,0.3,0.4,0.6,0.8,0.8s0.9,0.3,1.6,0.3c0.1,0,0.2,0,0.3,0   c0.1,0,0.2,0,0.3,0c0.1-0.3,0.1-0.5,0.2-0.8s0.1-0.4,0.1-0.6c0-0.4,0-0.8,0-1.3s-0.1-0.8-0.2-1.2c-0.1-0.4-0.3-0.6-0.5-0.9   s-0.4-0.3-0.7-0.3c-0.4,0-0.8,0.1-1.2,0.3S375.5,358.7,375.1,359.2z"
       id="path4131" /><path
       class="st0"
       d="M393.7,370c-0.5,0-0.9-0.1-1.3-0.3c-0.4-0.2-0.6-0.4-0.9-0.7s-0.4-0.7-0.4-1.1c-0.1-0.4,0-0.8,0.1-1.3   c0.1-0.3,0.2-0.7,0.3-1.2c0.2-0.5,0.3-1.1,0.5-1.7c0.2-0.6,0.3-1.2,0.5-1.8c0.1-0.6,0.2-1.1,0.3-1.6c0-0.5,0-0.9-0.1-1.2   c-0.1-0.3-0.3-0.5-0.6-0.5c-0.3,0-0.7,0.1-1.1,0.3s-0.7,0.5-1.1,0.9c-0.4,0.4-0.8,0.8-1.1,1.3s-0.8,1-1.1,1.6   c-0.2,0.7-0.4,1.4-0.5,1.9c-0.1,0.6-0.2,1-0.3,1.5s-0.2,0.8-0.3,1.2c-0.1,0.3-0.2,0.7-0.2,1c-0.1,0.2-0.3,0.4-0.6,0.6   s-0.7,0.4-1,0.5c-0.4,0.1-0.7,0.2-1,0.2c-0.3,0-0.4-0.1-0.3-0.3c0-0.1,0.1-0.4,0.2-0.9c0.1-0.5,0.3-1,0.4-1.6   c0.2-0.6,0.3-1.3,0.5-2s0.3-1.3,0.5-2c0.1-0.5,0.2-1,0.4-1.7c0.1-0.5,0.2-1.1,0.4-1.8s0.4-1.4,0.6-2.3c0.2-0.1,0.3-0.2,0.5-0.3   c0.2-0.1,0.3-0.1,0.5-0.2c0.2-0.1,0.4-0.1,0.6-0.1c0.2,0,0.3,0,0.5,0c0.2,0,0.3,0.1,0.5,0.1c0.2,0.1,0.3,0.1,0.4,0.2   c-0.1,0.2-0.1,0.4-0.2,0.6c-0.1,0.3-0.2,0.6-0.3,0.9c-0.1,0.3-0.2,0.7-0.3,1.1c0.3-0.4,0.6-0.8,1-1.2c0.4-0.4,0.7-0.8,1.2-1.1   c0.4-0.3,0.9-0.6,1.3-0.8c0.5-0.2,1-0.3,1.5-0.3c0.4,0,0.8,0.1,1.1,0.4c0.3,0.2,0.6,0.6,0.8,1c0.2,0.4,0.3,0.9,0.3,1.5   c0,0.6,0,1.2-0.2,1.9l-0.4,1.4c-0.1,0.5-0.2,1-0.4,1.6c-0.2,0.6-0.4,1.3-0.6,2c-0.1,0.5-0.2,0.9-0.1,1.2c0,0.3,0.2,0.5,0.6,0.5   c0.4,0,0.9-0.2,1.5-0.7c0.6-0.5,1.2-1,1.8-1.7c0.6-0.7,1.2-1.4,1.7-2.1c0.5-0.7,1-1.3,1.2-1.7c0.2-0.3,0.4-0.5,0.6-0.6   c0.2-0.1,0.3-0.1,0.4,0c0.1,0.1,0.1,0.2,0.1,0.4s-0.1,0.5-0.3,0.9c-0.2,0.3-0.4,0.7-0.7,1.2s-0.7,1-1.1,1.6   c-0.4,0.6-0.9,1.1-1.4,1.7s-1,1.1-1.6,1.6c-0.5,0.5-1.1,0.8-1.6,1.1C394.7,369.9,394.2,370,393.7,370z"
       id="path4133" /><path
       class="st0"
       d="M400.1,365.9c-0.2-0.2-0.4-0.5-0.5-0.7c-0.1-0.2-0.2-0.4-0.2-0.7c0-0.2,0-0.5,0-0.7c0.1-0.3,0.2-0.6,0.4-0.8   c0.2-0.2,0.4-0.5,0.6-0.7c0.3-0.2,0.6-0.5,1-0.7c0.3-0.7,0.5-1.4,0.8-2.2c0.2-0.8,0.4-1.5,0.6-2.1c0.2-0.7,0.4-1.5,0.5-2.2   c0.5-1.8,0.8-3.3,0.8-4.5c0-1.2,0-1.9-0.1-2.3c0-0.2,0-0.3-0.1-0.5c0-0.1-0.1-0.3-0.1-0.4c0-0.2-0.1-0.3-0.1-0.5   c0.2-0.1,0.4-0.2,0.6-0.3s0.3-0.2,0.5-0.2c0.2-0.1,0.3-0.1,0.4-0.1c0.5-0.1,1-0.2,1.4-0.2c0.4,0,0.7,0.1,0.7,0.2   c0,0.1,0,0.3,0.1,0.6c0,0.3,0,0.6,0,1c0,0.4,0,0.9-0.1,1.4c-0.1,0.5-0.2,1-0.4,1.6c-0.2,0.5-0.4,1.2-0.6,2.1   c-0.2,0.8-0.6,1.8-0.9,3c-0.4,1.3-0.9,2.9-1.5,4.8c0.6-0.2,1.4-0.4,2.1-0.6c0.8-0.2,1.6-0.4,2.4-0.5c0.8-0.1,1.6-0.2,2.4-0.3   c0.8-0.1,1.6-0.1,2.3,0c0.1,0,0.2,0.1,0.3,0.2c0.1,0.1,0.1,0.2,0,0.4c-0.1,0.1-0.2,0.3-0.4,0.4s-0.4,0.2-0.8,0.2   c-0.4,0-0.9,0.1-1.4,0.1c-0.5,0.1-1.1,0.1-1.6,0.2c-0.6,0.1-1.1,0.2-1.6,0.4c-0.5,0.1-1,0.3-1.5,0.5c-0.4,0.1-0.7,0.3-1.1,0.4   c-0.3,0.1-0.6,0.2-1,0.4s-0.6,0.3-0.8,0.4l-0.7,2.4c1.3,0.9,2.2,1.8,2.9,2.7c0.7,0.9,1.2,1.8,1.5,2.6c0.4,0.9,0.6,1.8,0.6,2.7   c0,0.9-0.1,1.9-0.4,2.9c-0.3,1-0.7,1.9-1.1,2.8c-0.5,0.9-1,1.7-1.6,2.4c-0.6,0.8-1.3,1.4-1.9,1.9s-1.4,0.9-2.1,1.2s-1.4,0.4-2,0.3   c-0.5,0-0.8-0.2-1.1-0.4c-0.3-0.2-0.5-0.6-0.7-0.9c-0.2-0.4-0.2-0.8-0.3-1.3s0-0.9,0.1-1.4c0.1-0.5,0.3-1.3,0.6-2.5   c0.2-1,0.6-2.5,1.1-4.5C398.5,371.8,399.2,369.1,400.1,365.9z M402,367.4c-0.3,1.1-0.6,2.1-0.8,3c-0.2,0.9-0.4,1.7-0.6,2.4   c-0.2,0.8-0.3,1.5-0.5,2.2c-0.2,0.8-0.4,1.6-0.6,2.4c-0.2,0.8-0.4,1.5-0.5,2.2s-0.2,1.1-0.1,1.5c0,0.4,0.2,0.6,0.4,0.6   c0.6,0,1.3-0.2,2-0.7c0.7-0.5,1.3-1.2,1.9-2c0.6-0.8,1-1.7,1.4-2.6s0.6-1.8,0.6-2.6c0-0.9-0.1-1.8-0.4-2.6   c-0.2-0.5-0.4-0.9-0.7-1.3c-0.2-0.4-0.5-0.8-0.9-1.2C402.8,368.1,402.4,367.7,402,367.4z"
       id="path4135" /><path
       class="st0"
       d="M424.9,362.5c-0.6,0.9-1.4,1.9-2.2,2.8c-0.8,0.9-1.7,1.7-2.6,2.4c-0.9,0.7-1.9,1.3-2.8,1.7   c-1,0.4-1.9,0.6-2.8,0.6c-0.5,0-1-0.1-1.5-0.3c-0.6-0.2-1.1-0.6-1.5-1.1c-0.5-0.5-0.8-1.1-1.1-1.8c-0.3-0.8-0.4-1.7-0.2-2.8   c0.1-0.9,0.4-1.8,0.8-2.8c0.5-1,1-1.9,1.7-2.7c0.7-0.8,1.4-1.5,2.3-2s1.7-0.8,2.6-0.8c0.8,0,1.4,0.2,1.8,0.6   c0.4,0.4,0.5,0.9,0.5,1.5c-0.1,0.7-0.3,1.3-0.6,1.8c-0.3,0.6-0.7,1.1-1.1,1.5c-0.4,0.5-0.9,0.9-1.4,1.2c-0.5,0.4-0.9,0.7-1.4,1   c-0.5,0.3-0.9,0.6-1.4,0.9s-0.8,0.6-1.1,0.8c0,0.5,0.1,1,0.3,1.4c0.2,0.4,0.4,0.7,0.6,0.9c0.3,0.2,0.6,0.4,0.9,0.5   c0.3,0.1,0.7,0.1,1,0.1c0.7,0,1.5-0.2,2.3-0.7c0.8-0.5,1.6-1,2.3-1.7c0.8-0.7,1.5-1.3,2.1-2.1c0.7-0.7,1.2-1.3,1.6-1.8   c0.2-0.2,0.3-0.3,0.5-0.3s0.3,0,0.4,0.1c0.1,0.1,0.1,0.2,0.1,0.4S425,362.2,424.9,362.5z M416.6,357.5c-0.3,0-0.6,0.1-0.9,0.4   s-0.7,0.6-1.1,1.1s-0.7,1.1-1,1.8c-0.3,0.7-0.5,1.5-0.7,2.4c0.3-0.2,0.5-0.4,0.8-0.6s0.6-0.4,0.9-0.7c0.9-0.7,1.6-1.3,1.9-1.9   c0.4-0.5,0.6-1,0.6-1.4c0-0.4,0-0.7-0.1-0.9S416.8,357.5,416.6,357.5z M419.2,349.3c0.2-0.2,0.4-0.1,0.6,0c0.2,0.2,0.4,0.4,0.5,0.8   c0.2,0.5,0.2,0.8,0,1s-0.3,0.4-0.6,0.6c-0.1,0.1-0.4,0.3-0.7,0.5s-0.7,0.4-1.2,0.6c-0.4,0.2-0.8,0.4-1.2,0.5   c-0.4,0.2-0.7,0.3-0.9,0.3c-0.2,0-0.4,0-0.6-0.1c-0.1-0.1-0.2-0.2-0.3-0.3c-0.1-0.1-0.1-0.2-0.1-0.4s0-0.3,0-0.4   c1.7-1.2,2.9-2,3.5-2.5C418.7,349.7,419,349.5,419.2,349.3z"
       id="path4137" /><path
       class="st0"
       d="M421.3,369.1c-0.2,0.2-0.3,0.4-0.5,0.5c-0.2,0.1-0.3,0.1-0.5,0s-0.2-0.2-0.3-0.3s0-0.4,0.1-0.6   c0.1-0.1,0.2-0.4,0.4-0.9c0.2-0.5,0.5-1,0.8-1.6c0.3-0.6,0.7-1.3,1-2.1s0.7-1.5,1.1-2.1c0.3-0.7,0.6-1.3,0.9-1.8   c0.3-0.5,0.5-0.9,0.6-1.1c-0.2-0.2-0.4-0.4-0.5-0.5c-0.1-0.1-0.2-0.3-0.2-0.6c0-0.3,0-0.6,0.2-1.1s0.4-0.9,0.7-1.3   c0.3-0.4,0.6-0.8,0.9-1.1c0.3-0.3,0.7-0.5,1-0.5c0.6,0,1,0.2,1.3,0.6c0.2,0.4,0.4,0.8,0.4,1.2c0,0.3,0,0.6-0.1,1.1   c-0.1,0.4-0.2,0.8-0.5,1.2c0.1,0,0.2,0.1,0.3,0.1c0.1,0.1,0.3,0.1,0.5,0.1c0.3,0,0.6,0,0.7-0.1c0.1,0,0.4-0.1,0.7-0.1   c0.4,0,0.7,0.1,0.9,0.3c0.2,0.2,0.4,0.4,0.6,0.7c0.2,0.3,0.3,0.6,0.3,0.9c0.1,0.3,0.1,0.6,0.1,0.9c0.1,0.5-0.1,1.1-0.4,1.7   c-0.3,0.6-0.8,1.2-1.3,1.9c-0.3,0.4-0.6,0.9-0.9,1.5c-0.3,0.5-0.4,1-0.4,1.5c0,0.3,0.1,0.5,0.2,0.7c0.1,0.2,0.4,0.3,0.9,0.3   c0.4,0,0.8-0.1,1.2-0.4c0.4-0.3,0.9-0.6,1.4-1s0.9-0.9,1.4-1.4c0.5-0.5,0.9-1,1.3-1.5s0.7-0.9,1-1.3c0.3-0.4,0.5-0.7,0.6-0.8   c0.1-0.2,0.2-0.3,0.4-0.4s0.3-0.1,0.5,0c0.1,0.1,0.2,0.2,0.2,0.4c0,0.2,0,0.5-0.2,0.8c-0.1,0.2-0.4,0.6-0.7,1   c-0.3,0.5-0.7,1-1.1,1.6c-0.4,0.6-0.9,1.2-1.5,1.8c-0.5,0.6-1.1,1.2-1.7,1.7c-0.6,0.5-1.2,0.9-1.8,1.2c-0.6,0.3-1.2,0.5-1.7,0.5   c-0.6,0-1-0.1-1.4-0.3c-0.4-0.2-0.7-0.5-0.9-0.8c-0.2-0.3-0.4-0.7-0.5-1c-0.1-0.4-0.1-0.7-0.1-1.1c0-0.3,0.1-0.5,0.2-0.8   c0.1-0.3,0.3-0.6,0.4-0.9c0.2-0.3,0.3-0.6,0.5-0.9s0.4-0.6,0.5-0.9c0.4-0.6,0.7-1.2,0.9-1.6c0.2-0.4,0.3-0.8,0.3-1.1   c0-0.2,0-0.4-0.1-0.5c-0.1-0.2-0.2-0.2-0.4-0.2c-0.1,0-0.2,0-0.3,0c-0.1,0-0.1,0-0.2,0c-0.1,0-0.1,0-0.2,0c-0.1,0-0.2,0-0.4,0   c-0.3,0-0.5,0-0.7-0.1c-0.2-0.1-0.4-0.2-0.6-0.2c-0.1,0.2-0.3,0.5-0.6,1c-0.3,0.5-0.7,1.1-1.1,1.7c-0.4,0.7-0.8,1.4-1.3,2.1   c-0.4,0.7-0.9,1.4-1.2,2.1c-0.4,0.6-0.7,1.2-1,1.6C421.5,368.7,421.4,369,421.3,369.1z"
       id="path4139" /><path
       class="st0"
       d="M450.7,362.5c-0.6,0.9-1.4,1.9-2.2,2.8c-0.8,0.9-1.7,1.7-2.6,2.4c-0.9,0.7-1.9,1.3-2.8,1.7   c-1,0.4-1.9,0.6-2.8,0.6c-0.5,0-1-0.1-1.5-0.3c-0.6-0.2-1.1-0.6-1.5-1.1c-0.5-0.5-0.8-1.1-1.1-1.8c-0.3-0.8-0.4-1.7-0.2-2.8   c0.1-0.9,0.4-1.8,0.8-2.8c0.5-1,1-1.9,1.7-2.7c0.7-0.8,1.4-1.5,2.3-2s1.7-0.8,2.6-0.8c0.8,0,1.4,0.2,1.8,0.6   c0.4,0.4,0.5,0.9,0.5,1.5c-0.1,0.7-0.3,1.3-0.6,1.8c-0.3,0.6-0.7,1.1-1.1,1.5c-0.4,0.5-0.9,0.9-1.4,1.2c-0.5,0.4-0.9,0.7-1.4,1   c-0.5,0.3-0.9,0.6-1.4,0.9s-0.8,0.6-1.1,0.8c0,0.5,0.1,1,0.3,1.4c0.2,0.4,0.4,0.7,0.6,0.9c0.3,0.2,0.6,0.4,0.9,0.5   c0.3,0.1,0.7,0.1,1,0.1c0.7,0,1.5-0.2,2.3-0.7c0.8-0.5,1.6-1,2.3-1.7c0.8-0.7,1.5-1.3,2.1-2.1c0.7-0.7,1.2-1.3,1.6-1.8   c0.2-0.2,0.3-0.3,0.5-0.3s0.3,0,0.4,0.1c0.1,0.1,0.1,0.2,0.1,0.4S450.9,362.2,450.7,362.5z M442.4,357.5c-0.3,0-0.6,0.1-0.9,0.4   s-0.7,0.6-1.1,1.1s-0.7,1.1-1,1.8c-0.3,0.7-0.5,1.5-0.7,2.4c0.3-0.2,0.5-0.4,0.8-0.6s0.6-0.4,0.9-0.7c0.9-0.7,1.6-1.3,1.9-1.9   c0.4-0.5,0.6-1,0.6-1.4c0-0.4,0-0.7-0.1-0.9S442.7,357.5,442.4,357.5z"
       id="path4141" /><path
       class="st0"
       d="M458,370c-0.5,0-0.9-0.1-1.3-0.3c-0.4-0.2-0.6-0.4-0.9-0.7c-0.2-0.3-0.4-0.7-0.4-1.1c-0.1-0.4,0-0.8,0.1-1.3   c0.1-0.3,0.2-0.7,0.3-1.2s0.3-1.1,0.5-1.7c0.2-0.6,0.3-1.2,0.5-1.8c0.1-0.6,0.2-1.1,0.3-1.6s0-0.9-0.1-1.2   c-0.1-0.3-0.3-0.5-0.6-0.5c-0.3,0-0.7,0.1-1.1,0.3c-0.4,0.2-0.7,0.5-1.1,0.9c-0.4,0.4-0.8,0.8-1.1,1.3c-0.4,0.5-0.8,1-1.1,1.6   c-0.2,0.7-0.4,1.4-0.5,1.9c-0.1,0.6-0.2,1-0.3,1.5c-0.1,0.4-0.2,0.8-0.3,1.2c-0.1,0.3-0.2,0.7-0.2,1c-0.1,0.2-0.3,0.4-0.6,0.6   s-0.7,0.4-1,0.5c-0.4,0.1-0.7,0.2-1,0.2c-0.3,0-0.4-0.1-0.3-0.3c0-0.1,0.1-0.4,0.2-0.9c0.1-0.5,0.3-1,0.4-1.6   c0.2-0.6,0.3-1.3,0.5-2c0.2-0.7,0.3-1.3,0.5-2c0.1-0.5,0.2-1,0.4-1.7c0.1-0.5,0.2-1.1,0.4-1.8s0.4-1.4,0.6-2.3   c0.2-0.1,0.3-0.2,0.5-0.3c0.2-0.1,0.3-0.1,0.5-0.2c0.2-0.1,0.4-0.1,0.6-0.1c0.2,0,0.3,0,0.5,0c0.2,0,0.3,0.1,0.5,0.1   c0.2,0.1,0.3,0.1,0.4,0.2c-0.1,0.2-0.1,0.4-0.2,0.6c-0.1,0.3-0.2,0.6-0.3,0.9c-0.1,0.3-0.2,0.7-0.3,1.1c0.3-0.4,0.6-0.8,1-1.2   c0.4-0.4,0.7-0.8,1.2-1.1c0.4-0.3,0.9-0.6,1.3-0.8c0.5-0.2,1-0.3,1.5-0.3c0.4,0,0.8,0.1,1.1,0.4s0.6,0.6,0.8,1   c0.2,0.4,0.3,0.9,0.3,1.5c0,0.6,0,1.2-0.2,1.9l-0.4,1.4c-0.1,0.5-0.2,1-0.4,1.6c-0.2,0.6-0.4,1.3-0.6,2c-0.1,0.5-0.2,0.9-0.1,1.2   c0,0.3,0.2,0.5,0.6,0.5s0.9-0.2,1.5-0.7c0.6-0.5,1.2-1,1.8-1.7c0.6-0.7,1.2-1.4,1.7-2.1c0.5-0.7,1-1.3,1.2-1.7   c0.2-0.3,0.4-0.5,0.6-0.6c0.2-0.1,0.3-0.1,0.4,0c0.1,0.1,0.1,0.2,0.1,0.4s-0.1,0.5-0.3,0.9c-0.2,0.3-0.4,0.7-0.7,1.2   c-0.3,0.5-0.7,1-1.1,1.6c-0.4,0.6-0.9,1.1-1.4,1.7s-1,1.1-1.6,1.6c-0.5,0.5-1.1,0.8-1.6,1.1S458.5,370,458,370z"
       id="path4143" /><path
       class="st0"
       d="M469.2,368.1c0.7,0,1.4-0.3,2.2-0.8s1.6-1.1,2.4-1.9c0.8-0.7,1.5-1.4,2.1-2.2c0.6-0.7,1.1-1.3,1.4-1.8   c0.2-0.3,0.4-0.4,0.6-0.5c0.2-0.1,0.3,0,0.4,0.1c0.1,0.1,0.1,0.3,0.1,0.5s-0.1,0.5-0.3,0.8c-0.2,0.3-0.4,0.6-0.8,1.1   s-0.8,1-1.3,1.6c-0.5,0.6-1,1.2-1.7,1.7c-0.6,0.6-1.3,1.1-1.9,1.6c-0.7,0.5-1.4,0.9-2.1,1.2c-0.7,0.3-1.4,0.5-2.1,0.5   c-1,0-1.7-0.2-2.4-0.5c-0.6-0.4-1.1-0.8-1.5-1.4c-0.4-0.6-0.6-1.2-0.8-1.9c-0.2-0.7-0.2-1.4-0.2-2c0-0.7,0.2-1.5,0.5-2.5   s0.8-1.9,1.3-2.9c0.6-0.9,1.3-1.7,2.3-2.4s2-1,3.2-1c0.7,0,1.3,0.2,1.8,0.7c0.5,0.5,0.7,1.1,0.7,1.9c0,0.4-0.1,0.8-0.2,1.1   c-0.1,0.4-0.3,0.7-0.5,1c-0.2,0.3-0.5,0.5-0.8,0.7c-0.3,0.2-0.6,0.3-1,0.3c-0.3,0-0.5-0.1-0.6-0.3c-0.1-0.2-0.2-0.4-0.3-0.7   c0-0.3,0-0.5,0-0.8s0.1-0.4,0.1-0.5c0.1-0.2,0.2-0.3,0.4-0.3c0.1-0.1,0.3-0.1,0.5-0.2c0.1-0.1,0.2-0.2,0.3-0.3   c0.1-0.1,0.1-0.3,0.1-0.4c0-0.2,0-0.3-0.1-0.4c-0.1-0.1-0.2-0.2-0.4-0.2c-0.2,0-0.5,0.2-1.1,0.5c-0.5,0.3-1,0.8-1.6,1.4   c-0.5,0.6-1,1.4-1.4,2.3c-0.4,0.9-0.6,2-0.6,3.2c0,0.7,0.1,1.3,0.3,1.7c0.2,0.5,0.5,0.8,0.8,1.1c0.3,0.3,0.7,0.4,1.1,0.6   S468.9,368.1,469.2,368.1z"
       id="path4145" /><path
       class="st0"
       d="M490.5,362.5c-0.6,0.9-1.4,1.9-2.2,2.8c-0.8,0.9-1.7,1.7-2.6,2.4s-1.9,1.3-2.8,1.7c-1,0.4-1.9,0.6-2.8,0.6   c-0.5,0-1-0.1-1.5-0.3c-0.6-0.2-1.1-0.6-1.5-1.1c-0.5-0.5-0.8-1.1-1.1-1.8c-0.3-0.8-0.4-1.7-0.2-2.8c0.1-0.9,0.4-1.8,0.8-2.8   c0.5-1,1-1.9,1.7-2.7c0.7-0.8,1.4-1.5,2.3-2s1.7-0.8,2.6-0.8c0.8,0,1.4,0.2,1.8,0.6c0.4,0.4,0.5,0.9,0.5,1.5   c-0.1,0.7-0.3,1.3-0.6,1.8c-0.3,0.6-0.7,1.1-1.1,1.5c-0.4,0.5-0.9,0.9-1.4,1.2c-0.5,0.4-0.9,0.7-1.4,1c-0.5,0.3-0.9,0.6-1.4,0.9   c-0.4,0.3-0.8,0.6-1.1,0.8c0,0.5,0.1,1,0.3,1.4c0.2,0.4,0.4,0.7,0.6,0.9c0.3,0.2,0.6,0.4,0.9,0.5c0.3,0.1,0.7,0.1,1,0.1   c0.7,0,1.5-0.2,2.3-0.7c0.8-0.5,1.6-1,2.3-1.7c0.8-0.7,1.5-1.3,2.1-2.1s1.2-1.3,1.6-1.8c0.2-0.2,0.3-0.3,0.5-0.3s0.3,0,0.4,0.1   c0.1,0.1,0.1,0.2,0.1,0.4S490.6,362.2,490.5,362.5z M482.2,357.5c-0.3,0-0.6,0.1-0.9,0.4c-0.4,0.3-0.7,0.6-1.1,1.1   c-0.3,0.5-0.7,1.1-1,1.8c-0.3,0.7-0.5,1.5-0.7,2.4c0.3-0.2,0.5-0.4,0.8-0.6s0.6-0.4,0.9-0.7c0.9-0.7,1.6-1.3,1.9-1.9   c0.4-0.5,0.6-1,0.6-1.4c0-0.4,0-0.7-0.1-0.9C482.6,357.6,482.4,357.5,482.2,357.5z"
       id="path4147" /></g><text
     transform="matrix(1.0017,0,0,1,137.3576,369.2169)"
     class="st3"
     id="text4149"
     style="line-height:0%;display:none"><tspan
       x="0"
       y="0"
       class="st4 st5 st6"
       id="tspan4151"
       style="font-size:33.13460159px;font-family:Satisfy;display:inline">ceci </tspan><tspan
       x="54.799999"
       y="0"
       class="st7 st5 st6"
       id="tspan4153"
       style="font-size:33.13460159px;font-family:Satisfy;display:inline;fill:#e3bb00">n’est pas</tspan><tspan
       x="159.5"
       y="0"
       class="st8 st5 st6"
       id="tspan4155"
       style="font-size:33.13460159px;font-family:Satisfy;display:inline;fill:#979797" /><tspan
       x="168.8"
       y="0"
       class="st9 st5 st6"
       id="tspan4157"
       style="font-size:33.13460159px;font-family:Satisfy;display:inline;fill:#8f0000">une conférence</tspan></text>
<g
     id="dit"
     class="st3"><path
       class="st4"
       d="M223.1,363c-0.1,0.7-0.2,1.3-0.3,1.9c-0.1,0.6-0.2,1.1-0.2,1.5c0,0.5,0.1,0.9,0.3,1.2c0.2,0.2,0.5,0.4,0.7,0.4   c0.3,0,0.7-0.2,1.1-0.5c0.4-0.3,0.9-0.7,1.4-1.1s1-0.9,1.5-1.5c0.5-0.5,1-1.1,1.4-1.5s0.8-0.9,1.1-1.3c0.3-0.4,0.5-0.6,0.6-0.7   c0.1-0.1,0.3-0.2,0.4-0.2c0.1,0,0.3,0,0.3,0.1c0.1,0.1,0.1,0.2,0.1,0.4s-0.1,0.4-0.3,0.6c-0.3,0.4-0.6,0.9-1,1.4   c-0.4,0.5-0.9,1.1-1.4,1.7c-0.5,0.6-1,1.2-1.6,1.7c-0.6,0.6-1.1,1.1-1.7,1.5c-0.6,0.4-1.1,0.8-1.6,1.1c-0.5,0.3-1,0.4-1.4,0.4   c-0.3,0-0.6-0.1-0.9-0.3s-0.5-0.4-0.7-0.7c-0.2-0.3-0.4-0.6-0.5-0.9c-0.1-0.3-0.2-0.7-0.1-1c0-0.2,0.1-0.4,0.1-0.8   c-0.9,1-1.8,1.8-2.7,2.4c-0.9,0.6-1.8,0.9-2.6,0.9c-0.3,0-0.6-0.1-1-0.2c-0.3-0.2-0.7-0.4-0.9-0.7c-0.3-0.3-0.5-0.8-0.7-1.4   c-0.2-0.6-0.2-1.2-0.2-2c0.1-1.3,0.3-2.4,0.7-3.6c0.4-1.1,1-2.1,1.6-2.9c0.7-0.8,1.4-1.5,2.2-2c0.8-0.5,1.7-0.7,2.5-0.7   c0.4,0,0.7,0.1,1,0.3s0.6,0.4,0.8,0.7c0.2,0.3,0.4,0.6,0.5,1c0.1,0.3,0.2,0.7,0.3,1c0.2-0.6,0.3-1.2,0.4-1.8   c0.1-0.6,0.3-1.2,0.4-1.7c0.2-0.8,0.4-1.7,0.7-2.6c0.2-0.8,0.5-1.7,0.7-2.8c0.3-1,0.6-2.1,0.9-3.3c0.2-0.2,0.4-0.3,0.6-0.4   c0.2-0.1,0.4-0.2,0.6-0.2c0.2-0.1,0.4-0.1,0.6-0.1c0.2,0,0.4,0,0.6,0.1s0.3,0.2,0.4,0.4c0.1,0.2,0.2,0.6,0.2,1s0,1.1,0,1.8   c0,0.9-0.2,2-0.5,3.1c-0.3,1.1-0.7,2.3-1.2,3.5c-0.5,1.2-1,2.4-1.6,3.6S223.8,362,223.1,363z M221.1,363.5c0.1-0.4,0.2-0.8,0.2-1.2   c0.1-0.4,0.2-0.8,0.3-1.3c0,0-0.1,0-0.1,0.1s-0.1,0-0.1,0.1c-0.2,0.1-0.4,0.1-0.5,0c-0.1-0.1-0.1-0.3-0.1-0.6c0-0.1,0-0.4,0-0.7   c0-0.3-0.1-0.7-0.2-1c-0.1-0.4-0.2-0.7-0.4-0.9c-0.2-0.3-0.5-0.4-0.8-0.4c-0.5,0-1,0.3-1.5,0.8c-0.5,0.5-1,1.1-1.5,1.8   c-0.5,0.7-0.8,1.5-1.1,2.3c-0.3,0.8-0.5,1.6-0.5,2.2c0,1,0.1,1.8,0.4,2.2c0.3,0.5,0.7,0.7,1.2,0.7c0.4,0,0.8-0.2,1.3-0.5   c0.5-0.3,0.9-0.7,1.4-1.1c0.4-0.4,0.9-0.9,1.2-1.3S220.9,363.8,221.1,363.5z"
       id="path4160" /><path
       class="st4"
       d="M231.4,357c0.1-0.1,0.3-0.2,0.6-0.3c0.3-0.1,0.6-0.2,0.9-0.2c0.3-0.1,0.6-0.1,0.9-0.1c0.3,0,0.4,0,0.5,0   c0,0,0,0.2-0.2,0.7c-0.1,0.4-0.3,0.9-0.5,1.5c-0.2,0.6-0.4,1.2-0.6,1.8s-0.4,1.1-0.5,1.5c-0.1,0.4-0.2,0.8-0.4,1.3   c-0.2,0.5-0.3,1-0.4,1.4s-0.2,0.9-0.2,1.3c0,0.4,0,0.7,0.1,0.9c0.1,0.3,0.2,0.4,0.4,0.5c0.1,0.1,0.3,0.1,0.4,0.1   c0.4,0,1-0.2,1.6-0.7c0.7-0.5,1.3-1,2-1.7c0.7-0.7,1.3-1.3,1.9-2c0.6-0.7,1-1.2,1.3-1.6c0.2-0.2,0.4-0.4,0.5-0.4   c0.2-0.1,0.3-0.1,0.5,0c0.1,0.1,0.2,0.2,0.2,0.4c0,0.2-0.1,0.4-0.2,0.7c-0.3,0.6-0.9,1.3-1.5,2.2c-0.7,0.8-1.4,1.6-2.1,2.4   c-0.8,0.8-1.5,1.4-2.2,2s-1.3,0.8-1.8,0.8c-0.4,0-0.7,0-1.1-0.2s-0.7-0.3-1-0.6c-0.3-0.2-0.5-0.5-0.7-0.9c-0.2-0.3-0.3-0.7-0.3-1.1   c-0.1-0.5-0.1-1.3,0-2.2c0.1-0.9,0.2-1.9,0.4-2.9c0.2-1,0.4-1.9,0.7-2.8C230.8,358.1,231.1,357.5,231.4,357z M235.9,350.2   c-0.1,0.2-0.2,0.5-0.4,0.7s-0.4,0.4-0.6,0.5c-0.2,0.1-0.5,0.2-0.7,0.3c-0.2,0-0.4,0-0.6-0.1c-0.5-0.3-0.7-0.7-0.7-1.1   c0-0.4,0.1-0.8,0.3-1.1c0.2-0.4,0.5-0.7,0.8-0.9c0.3-0.2,0.6-0.4,0.8-0.4s0.4,0,0.6,0.1s0.3,0.3,0.4,0.5c0.1,0.2,0.1,0.5,0.1,0.8   S236,349.9,235.9,350.2z"
       id="path4162" /><path
       class="st4"
       d="M249.9,361c0.1-0.1,0.2-0.2,0.3-0.2c0.1,0,0.3,0,0.3,0c0.1,0.1,0.1,0.2,0.1,0.3c0,0.2,0,0.4-0.2,0.6   c-0.4,0.8-1,1.7-1.7,2.7c-0.7,0.9-1.4,1.8-2.2,2.7s-1.5,1.5-2.3,2.1c-0.7,0.5-1.4,0.8-1.8,0.8c-0.7,0-1.3-0.1-1.8-0.4   c-0.5-0.3-0.8-0.6-1.1-1c-0.3-0.4-0.5-0.9-0.6-1.3c-0.1-0.5-0.1-0.9-0.1-1.3c0-0.3,0.1-1,0.2-1.9c0.1-0.9,0.3-1.9,0.5-3.1   s0.5-2.4,0.7-3.8c0.3-1.3,0.6-2.6,0.9-3.9c-0.4,0-0.7,0.1-1.1,0.1c-0.4,0-0.7,0.1-1,0.1c-0.7,0-1.3-0.1-2-0.2   c-0.6-0.2-1.1-0.3-1.4-0.5c-0.2-0.1-0.2-0.2-0.2-0.4s0.1-0.3,0.2-0.5c0.1-0.2,0.2-0.3,0.4-0.4c0.2-0.1,0.3-0.2,0.4-0.2   c0.4,0,0.9,0.1,1.3,0.1c0.5,0,1,0,1.6,0c0.4,0,0.8-0.1,1.2-0.1c0.4,0,0.8-0.1,1.1-0.2c0.3-1,0.6-1.9,0.8-2.7   c0.3-0.8,0.5-1.3,0.7-1.6c0.1-0.1,0.2-0.2,0.4-0.3c0.2-0.1,0.5-0.1,0.7-0.2s0.5,0,0.7,0s0.4,0.1,0.5,0.2c0.1,0.2,0.2,0.6,0.1,1.3   c0,0.7-0.1,1.6-0.4,2.7c0.9,0,1.7,0,2.4,0.1c0.7,0.1,1.3,0.2,1.8,0.3c0.5,0.1,0.9,0.2,1.2,0.4c0.3,0.1,0.5,0.2,0.7,0.2   c0.2,0,0.2,0.2,0.2,0.3c0,0.2,0,0.4-0.1,0.5c-0.1,0.2-0.2,0.3-0.4,0.5c-0.2,0.1-0.4,0.2-0.6,0.1c-0.2,0-0.5-0.1-0.7-0.1   c-0.3-0.1-0.6-0.1-1-0.2s-0.8-0.1-1.3-0.1c-0.5,0-1.1-0.1-1.8-0.1c-0.1,0-0.3,0-0.4,0s-0.3,0-0.5,0c-0.1,0.3-0.2,0.7-0.2,1   c-0.1,0.3-0.2,0.7-0.3,1.1c-0.3,0.9-0.6,1.8-1,2.8c-0.3,0.9-0.7,1.9-1.2,3c-0.5,1.1-1,2.4-1.5,3.7c-0.1,0.9-0.1,1.6,0,2.1   s0.4,0.8,0.6,1.1c0.3,0.2,0.6,0.4,1,0.4c0.3,0,0.7-0.1,1.2-0.3c0.5-0.3,0.9-0.6,1.4-1.1c0.5-0.5,1-0.9,1.5-1.5   c0.5-0.5,1-1.1,1.4-1.6c0.4-0.5,0.8-1,1.1-1.4S249.7,361.2,249.9,361z"
       id="path4164" /><path
       class="st7"
       d="M259.9,357c0.1-0.1,0.3-0.2,0.6-0.3c0.3-0.1,0.6-0.2,0.9-0.2c0.3-0.1,0.6-0.1,0.9-0.1c0.3,0,0.4,0,0.5,0   c0,0,0,0.2-0.2,0.7c-0.1,0.4-0.3,0.9-0.5,1.5c-0.2,0.6-0.4,1.2-0.6,1.8s-0.4,1.1-0.5,1.5c-0.1,0.4-0.2,0.8-0.4,1.3   c-0.2,0.5-0.3,1-0.4,1.4s-0.2,0.9-0.2,1.3c0,0.4,0,0.7,0.1,0.9c0.1,0.3,0.2,0.4,0.4,0.5c0.1,0.1,0.3,0.1,0.4,0.1   c0.4,0,1-0.2,1.6-0.7c0.7-0.5,1.3-1,2-1.7c0.7-0.7,1.3-1.3,1.9-2c0.6-0.7,1-1.2,1.3-1.6c0.2-0.2,0.4-0.4,0.5-0.4   c0.2-0.1,0.3-0.1,0.5,0c0.1,0.1,0.2,0.2,0.2,0.4c0,0.2-0.1,0.4-0.2,0.7c-0.3,0.6-0.9,1.3-1.5,2.2c-0.7,0.8-1.4,1.6-2.1,2.4   c-0.8,0.8-1.5,1.4-2.2,2s-1.3,0.8-1.8,0.8c-0.4,0-0.7,0-1.1-0.2s-0.7-0.3-1-0.6c-0.3-0.2-0.5-0.5-0.7-0.9c-0.2-0.3-0.3-0.7-0.3-1.1   c-0.1-0.5-0.1-1.3,0-2.2c0.1-0.9,0.2-1.9,0.4-2.9c0.2-1,0.4-1.9,0.7-2.8C259.2,358.1,259.5,357.5,259.9,357z M264.3,350.2   c-0.1,0.2-0.2,0.5-0.4,0.7s-0.4,0.4-0.6,0.5c-0.2,0.1-0.5,0.2-0.7,0.3c-0.2,0-0.4,0-0.6-0.1c-0.5-0.3-0.7-0.7-0.7-1.1   c0-0.4,0.1-0.8,0.3-1.1c0.2-0.4,0.5-0.7,0.8-0.9c0.3-0.2,0.6-0.4,0.8-0.4s0.4,0,0.6,0.1s0.3,0.3,0.4,0.5c0.1,0.2,0.1,0.5,0.1,0.8   S264.4,349.9,264.3,350.2z"
       id="path4166" /><path
       class="st7"
       d="M270.9,368.1c0.1,0.1,0.3,0.1,0.5,0.1c0.2,0,0.4,0,0.6-0.1c0.2-0.1,0.4-0.2,0.6-0.4c0.2-0.2,0.3-0.3,0.4-0.6   c0.1-0.2,0.1-0.6,0-1c-0.1-0.4-0.2-0.9-0.4-1.4s-0.4-1-0.6-1.5c-0.2-0.5-0.4-1-0.6-1.4c-0.1-0.3-0.2-0.6-0.3-0.9   c-0.1-0.2-0.2-0.5-0.2-0.7s-0.1-0.4-0.2-0.5c-0.1,0.2-0.3,0.5-0.6,0.8c-0.3,0.4-0.6,0.8-0.9,1.2c-0.3,0.4-0.6,0.8-0.9,1.2   c-0.3,0.4-0.5,0.6-0.6,0.7c-0.2,0.2-0.3,0.3-0.5,0.3s-0.3,0-0.4-0.1c-0.1-0.1-0.2-0.2-0.2-0.4s0.1-0.4,0.2-0.7   c0.1-0.2,0.3-0.4,0.6-0.8c0.3-0.4,0.5-0.8,0.8-1.2s0.5-0.8,0.7-1.1c0.2-0.3,0.3-0.5,0.4-0.6c0-0.2,0-0.4-0.2-0.7   c-0.2-0.3-0.2-0.6-0.1-1c0.1-0.3,0.3-0.7,0.6-1.1s0.7-0.8,1.1-1.1c0.4-0.3,0.8-0.6,1.3-0.7c0.4-0.2,0.8-0.2,1.2,0   c0.3,0.2,0.5,0.4,0.7,0.6c0.2,0.2,0.2,0.4,0.2,0.6c0,0.1-0.1,0.2-0.2,0.4c-0.1,0.2-0.2,0.4-0.4,0.6c-0.2,0.2-0.4,0.6-0.7,1   c0.1,0.5,0.2,0.9,0.3,1.4c0.1,0.4,0.2,0.8,0.3,1.1c0.1,0.4,0.3,0.7,0.4,1c0.2,0.4,0.4,0.8,0.6,1.2c0.2,0.4,0.4,0.8,0.6,1.2   s0.3,0.8,0.4,1.1c0.1,0.3,0.1,0.6,0.1,0.9c-0.1,0.4-0.3,0.8-0.6,1.3c-0.3,0.5-0.7,1-1.2,1.5c-0.5,0.5-1,0.9-1.6,1.2   c-0.6,0.3-1.2,0.5-1.9,0.5c-0.5,0-0.9-0.1-1.3-0.4c-0.4-0.3-0.8-0.6-1.1-1c-0.3-0.4-0.5-0.7-0.6-1.1c-0.1-0.4-0.2-0.6,0-0.8   c0.1-0.3,0.2-0.5,0.4-0.6c0.1-0.2,0.3-0.3,0.5-0.5c0.1-0.1,0.2-0.1,0.3-0.2c0.1-0.1,0.3-0.1,0.5-0.2c0.2-0.1,0.4-0.1,0.7-0.2   c0.2,0.7,0.4,1.2,0.6,1.6c0.2,0.4,0.3,0.7,0.4,0.9C270.7,367.9,270.8,368,270.9,368.1z"
       id="path4168" /><path
       class="st7"
       d="M295.9,373.8c-0.1,0.5-0.2,1.2-0.4,1.9c-0.2,0.8-0.3,1.6-0.6,2.5c-0.2,0.9-0.4,1.7-0.7,2.6   c-0.3,0.9-0.6,1.6-0.9,2.3s-0.7,1.2-1.1,1.7c-0.4,0.4-0.8,0.6-1.3,0.6c-0.7,0-1.3-0.2-1.8-0.6c-0.5-0.4-0.9-0.9-1.3-1.6   c-0.3-0.6-0.6-1.3-0.8-2.1c-0.2-0.7-0.2-1.4-0.2-2c0-0.9,0.1-1.6,0.2-2.2c0.2-0.6,0.4-1.1,0.8-1.6c0.4-0.5,0.9-1.1,1.5-1.6   c0.6-0.6,1.5-1.3,2.5-2.2c0.5-0.4,1-0.8,1.4-1.2c0.5-0.4,0.9-0.7,1.3-1.1c0.1-0.4,0.2-0.8,0.3-1.2c0.1-0.4,0.2-0.7,0.2-1   c-0.6,0.8-1.2,1.4-2,1.9c-0.8,0.5-1.7,0.8-2.7,0.8c-0.9,0-1.7-0.4-2.3-1.2c-0.6-0.8-0.9-2.1-0.9-3.7c0-0.8,0.2-1.7,0.5-2.8   s0.7-2,1.3-2.9s1.3-1.7,2.1-2.3c0.8-0.6,1.7-0.9,2.8-0.9c0.5,0,0.9,0.1,1.2,0.4s0.6,0.5,0.9,0.9c0.2,0.4,0.4,0.7,0.6,1.1   c0.1,0.4,0.2,0.8,0.3,1.1c0-0.1,0.1-0.3,0.1-0.4c0-0.1,0.1-0.3,0.1-0.4c0.2-0.7,0.5-1.2,0.7-1.5c0.3-0.3,0.7-0.4,1.2-0.4   c0.3,0,0.6,0.1,0.8,0.2c0.2,0.1,0.3,0.2,0.3,0.3c-0.1,0.2-0.2,0.4-0.3,0.5c-0.1,0.1-0.1,0.3-0.2,0.4c-0.1,0.1-0.1,0.3-0.2,0.5   c-0.1,0.2-0.2,0.5-0.3,0.9c0,0.2-0.1,0.5-0.2,1.1c-0.1,0.5-0.3,1.2-0.5,2c-0.2,0.8-0.4,1.6-0.6,2.5c-0.2,0.9-0.4,1.8-0.6,2.7   c0.6-0.3,1.2-0.8,1.9-1.3c0.6-0.5,1.3-1,1.8-1.5s1.1-1,1.6-1.5c0.5-0.5,0.8-0.8,1-1.1c0.2-0.3,0.4-0.4,0.6-0.5   c0.2-0.1,0.4-0.1,0.6-0.1c0.2,0,0.3,0.1,0.3,0.3c0,0.2,0,0.4-0.2,0.7c-0.5,0.8-1.1,1.6-1.8,2.3c-0.7,0.7-1.4,1.4-2.2,2.1   c-0.7,0.6-1.5,1.2-2.2,1.7s-1.3,0.9-1.8,1.2c-0.2,1-0.4,1.8-0.6,2.4C296.1,372.8,296,373.3,295.9,373.8z M290.3,382.5   c0.4,0,0.8-0.3,1.1-1c0.3-0.6,0.6-1.5,0.9-2.6c0.1-0.3,0.2-0.6,0.3-1.1s0.3-1,0.4-1.7c0.2-0.6,0.3-1.3,0.5-2s0.4-1.5,0.6-2.2   c-0.2,0.2-0.4,0.3-0.5,0.5c-0.2,0.2-0.4,0.4-0.6,0.6c-0.5,0.5-0.9,0.9-1.4,1.3c-0.4,0.4-0.8,0.9-1.2,1.3c-0.3,0.5-0.6,1-0.8,1.5   c-0.2,0.5-0.3,1.2-0.3,1.9s0,1.3,0.1,1.7c0.1,0.5,0.1,0.8,0.2,1.1s0.2,0.4,0.4,0.5S290.1,382.5,290.3,382.5z M291.8,367.5   c0.5,0,0.9-0.1,1.3-0.4c0.4-0.2,0.8-0.5,1.1-0.8c0.3-0.3,0.6-0.6,0.8-1s0.4-0.6,0.5-0.8c0.1-0.2,0.2-0.5,0.3-0.8   c0.1-0.3,0.2-0.6,0.3-0.9c0.1-0.3,0.1-0.6,0.1-0.8c0-0.2-0.1-0.4-0.2-0.4c-0.1,0-0.2-0.1-0.3-0.3c-0.1-0.2-0.1-0.3-0.2-0.5   s-0.1-0.4-0.1-0.6s0-0.4,0-0.5c-0.1-0.8-0.3-1.3-0.6-1.7s-0.6-0.5-0.9-0.5c-0.5,0-1.1,0.2-1.5,0.6c-0.5,0.4-0.9,1-1.3,1.7   c-0.4,0.7-0.7,1.4-0.9,2.2c-0.2,0.8-0.3,1.6-0.3,2.3c0,0.9,0.1,1.6,0.4,2.2S290.9,367.5,291.8,367.5z"
       id="path4170" /><path
       class="st7"
       d="M317.2,362.5c-0.6,0.9-1.4,1.9-2.2,2.8c-0.8,0.9-1.7,1.7-2.6,2.4s-1.9,1.3-2.8,1.7c-1,0.4-1.9,0.6-2.8,0.6   c-0.5,0-1-0.1-1.5-0.3c-0.6-0.2-1.1-0.6-1.5-1.1c-0.5-0.5-0.8-1.1-1.1-1.8c-0.3-0.8-0.4-1.7-0.2-2.8c0.1-0.9,0.4-1.8,0.8-2.8   c0.5-1,1-1.9,1.7-2.7c0.7-0.8,1.4-1.5,2.3-2c0.9-0.5,1.7-0.8,2.6-0.8c0.8,0,1.4,0.2,1.8,0.6c0.4,0.4,0.5,0.9,0.5,1.5   c-0.1,0.7-0.3,1.3-0.6,1.8c-0.3,0.6-0.7,1.1-1.1,1.5c-0.4,0.5-0.9,0.9-1.4,1.2c-0.5,0.4-0.9,0.7-1.4,1c-0.5,0.3-0.9,0.6-1.4,0.9   c-0.4,0.3-0.8,0.6-1.1,0.8c0,0.5,0.1,1,0.3,1.4c0.2,0.4,0.4,0.7,0.6,0.9s0.6,0.4,0.9,0.5c0.3,0.1,0.7,0.1,1,0.1   c0.7,0,1.5-0.2,2.3-0.7c0.8-0.5,1.6-1,2.4-1.7c0.8-0.7,1.5-1.3,2.1-2.1c0.7-0.7,1.2-1.3,1.6-1.8c0.2-0.2,0.3-0.3,0.5-0.3   s0.3,0,0.4,0.1c0.1,0.1,0.1,0.2,0.1,0.4S317.4,362.2,317.2,362.5z M308.9,357.5c-0.3,0-0.6,0.1-0.9,0.4s-0.7,0.6-1.1,1.1   c-0.3,0.5-0.7,1.1-1,1.8c-0.3,0.7-0.5,1.5-0.7,2.4c0.3-0.2,0.5-0.4,0.8-0.6c0.3-0.2,0.6-0.4,0.9-0.7c0.9-0.7,1.6-1.3,1.9-1.9   c0.4-0.5,0.6-1,0.6-1.4c0-0.4,0-0.7-0.1-0.9C309.4,357.6,309.2,357.5,308.9,357.5z"
       id="path4172" /><path
       class="st7"
       d="M329.6,362.5c-0.6,0.9-1.4,1.9-2.2,2.8c-0.8,0.9-1.7,1.7-2.6,2.4c-0.9,0.7-1.9,1.3-2.8,1.7   c-1,0.4-1.9,0.6-2.8,0.6c-0.5,0-1-0.1-1.5-0.3c-0.6-0.2-1.1-0.6-1.5-1.1c-0.5-0.5-0.8-1.1-1.1-1.8c-0.3-0.8-0.4-1.7-0.2-2.8   c0.1-0.9,0.4-1.8,0.8-2.8c0.5-1,1-1.9,1.7-2.7c0.7-0.8,1.4-1.5,2.3-2c0.9-0.5,1.7-0.8,2.6-0.8c0.8,0,1.4,0.2,1.8,0.6   c0.4,0.4,0.5,0.9,0.5,1.5c-0.1,0.7-0.3,1.3-0.6,1.8c-0.3,0.6-0.7,1.1-1.1,1.5c-0.4,0.5-0.9,0.9-1.4,1.2c-0.5,0.4-0.9,0.7-1.4,1   c-0.5,0.3-0.9,0.6-1.4,0.9c-0.4,0.3-0.8,0.6-1.1,0.8c0,0.5,0.1,1,0.3,1.4c0.2,0.4,0.4,0.7,0.6,0.9s0.6,0.4,0.9,0.5   c0.3,0.1,0.7,0.1,1,0.1c0.7,0,1.5-0.2,2.3-0.7c0.8-0.5,1.6-1,2.4-1.7c0.8-0.7,1.5-1.3,2.1-2.1s1.2-1.3,1.6-1.8   c0.2-0.2,0.3-0.3,0.5-0.3s0.3,0,0.4,0.1c0.1,0.1,0.1,0.2,0.1,0.4S329.7,362.2,329.6,362.5z M321.3,357.5c-0.3,0-0.6,0.1-0.9,0.4   s-0.7,0.6-1.1,1.1c-0.3,0.5-0.7,1.1-1,1.8c-0.3,0.7-0.5,1.5-0.7,2.4c0.3-0.2,0.5-0.4,0.8-0.6c0.3-0.2,0.6-0.4,0.9-0.7   c0.9-0.7,1.6-1.3,1.9-1.9c0.4-0.5,0.6-1,0.6-1.4c0-0.4,0-0.7-0.1-0.9C321.7,357.6,321.5,357.5,321.3,357.5z"
       id="path4174" /><path
       class="st7"
       d="M336.9,370c-0.5,0-0.9-0.1-1.3-0.3c-0.4-0.2-0.6-0.4-0.9-0.7s-0.4-0.7-0.4-1.1c-0.1-0.4,0-0.8,0.1-1.3   c0.1-0.3,0.2-0.7,0.3-1.2c0.2-0.5,0.3-1.1,0.5-1.7c0.2-0.6,0.3-1.2,0.5-1.8c0.1-0.6,0.2-1.1,0.3-1.6c0-0.5,0-0.9-0.1-1.2   c-0.1-0.3-0.3-0.5-0.6-0.5c-0.3,0-0.7,0.1-1.1,0.3s-0.7,0.5-1.1,0.9c-0.4,0.4-0.8,0.8-1.1,1.3s-0.8,1-1.1,1.6   c-0.2,0.7-0.4,1.4-0.5,1.9c-0.1,0.6-0.2,1-0.3,1.5s-0.2,0.8-0.3,1.2c-0.1,0.3-0.2,0.7-0.2,1c-0.1,0.2-0.3,0.4-0.6,0.6   s-0.7,0.4-1,0.5c-0.4,0.1-0.7,0.2-1,0.2c-0.3,0-0.4-0.1-0.3-0.3c0-0.1,0.1-0.4,0.2-0.9c0.1-0.5,0.3-1,0.4-1.6   c0.2-0.6,0.3-1.3,0.5-2s0.3-1.3,0.5-2c0.1-0.5,0.2-1,0.4-1.7c0.1-0.5,0.2-1.1,0.4-1.8s0.4-1.4,0.6-2.3c0.2-0.1,0.3-0.2,0.5-0.3   c0.2-0.1,0.3-0.1,0.5-0.2c0.2-0.1,0.4-0.1,0.6-0.1c0.2,0,0.3,0,0.5,0c0.2,0,0.3,0.1,0.5,0.1c0.2,0.1,0.3,0.1,0.4,0.2   c-0.1,0.2-0.1,0.4-0.2,0.6c-0.1,0.3-0.2,0.6-0.3,0.9c-0.1,0.3-0.2,0.7-0.3,1.1c0.3-0.4,0.6-0.8,1-1.2c0.4-0.4,0.7-0.8,1.2-1.1   c0.4-0.3,0.9-0.6,1.3-0.8c0.5-0.2,1-0.3,1.5-0.3c0.4,0,0.8,0.1,1.1,0.4c0.3,0.2,0.6,0.6,0.8,1c0.2,0.4,0.3,0.9,0.3,1.5   c0,0.6,0,1.2-0.2,1.9l-0.4,1.4c-0.1,0.5-0.2,1-0.4,1.6c-0.2,0.6-0.4,1.3-0.6,2c-0.1,0.5-0.2,0.9-0.1,1.2c0,0.3,0.2,0.5,0.6,0.5   c0.4,0,0.9-0.2,1.5-0.7c0.6-0.5,1.2-1,1.8-1.7c0.6-0.7,1.2-1.4,1.7-2.1c0.5-0.7,1-1.3,1.2-1.7c0.2-0.3,0.4-0.5,0.6-0.6   c0.2-0.1,0.3-0.1,0.4,0c0.1,0.1,0.1,0.2,0.1,0.4s-0.1,0.5-0.3,0.9c-0.2,0.3-0.4,0.7-0.7,1.2s-0.7,1-1.1,1.6   c-0.4,0.6-0.9,1.1-1.4,1.7s-1,1.1-1.6,1.6c-0.5,0.5-1.1,0.8-1.6,1.1C337.9,369.9,337.4,370,336.9,370z"
       id="path4176" /><path
       class="st9"
       d="M357.4,368.1c0.7,0,1.4-0.3,2.2-0.8s1.6-1.1,2.4-1.9c0.8-0.7,1.5-1.4,2.1-2.2s1.1-1.3,1.4-1.8   c0.2-0.3,0.4-0.4,0.6-0.5c0.2-0.1,0.3,0,0.4,0.1c0.1,0.1,0.1,0.3,0.1,0.5s-0.1,0.5-0.3,0.8c-0.2,0.3-0.4,0.6-0.8,1.1   c-0.4,0.5-0.8,1-1.3,1.6c-0.5,0.6-1,1.2-1.7,1.7c-0.6,0.6-1.3,1.1-1.9,1.6c-0.7,0.5-1.4,0.9-2.1,1.2c-0.7,0.3-1.4,0.5-2.1,0.5   c-1,0-1.7-0.2-2.4-0.5c-0.6-0.4-1.1-0.8-1.5-1.4c-0.4-0.6-0.6-1.2-0.8-1.9c-0.2-0.7-0.2-1.4-0.2-2c0-0.7,0.2-1.5,0.5-2.5   s0.8-1.9,1.3-2.9c0.6-0.9,1.3-1.7,2.3-2.4s2-1,3.2-1c0.7,0,1.3,0.2,1.8,0.7c0.5,0.5,0.7,1.1,0.7,1.9c0,0.4-0.1,0.8-0.2,1.1   c-0.1,0.4-0.3,0.7-0.5,1c-0.2,0.3-0.5,0.5-0.8,0.7c-0.3,0.2-0.6,0.3-1,0.3c-0.3,0-0.5-0.1-0.6-0.3c-0.1-0.2-0.2-0.4-0.3-0.7   c0-0.3,0-0.5,0-0.8s0.1-0.4,0.1-0.5c0.1-0.2,0.2-0.3,0.4-0.3c0.1-0.1,0.3-0.1,0.5-0.2c0.1-0.1,0.2-0.2,0.3-0.3   c0.1-0.1,0.1-0.3,0.1-0.4c0-0.2,0-0.3-0.1-0.4c-0.1-0.1-0.2-0.2-0.4-0.2c-0.2,0-0.5,0.2-1.1,0.5c-0.5,0.3-1,0.8-1.6,1.4   c-0.5,0.6-1,1.4-1.4,2.3c-0.4,0.9-0.6,2-0.6,3.2c0,0.7,0.1,1.3,0.3,1.7c0.2,0.5,0.5,0.8,0.8,1.1c0.3,0.3,0.7,0.4,1.1,0.6   S357,368.1,357.4,368.1z"
       id="path4178" /><path
       class="st9"
       d="M373.5,364.1c-0.2,0.8-0.5,1.6-0.9,2.3c-0.4,0.7-0.8,1.3-1.3,1.8c-0.5,0.5-1.1,0.9-1.7,1.2   c-0.6,0.3-1.3,0.4-2.1,0.4c-0.9,0-1.6-0.2-2.1-0.6s-0.9-0.8-1.1-1.4c-0.2-0.6-0.4-1.2-0.5-1.8s-0.1-1.3-0.1-1.9   c0-0.4,0-0.9,0.1-1.4c0.1-0.5,0.2-1,0.4-1.5s0.4-1,0.7-1.6c0.3-0.5,0.6-1,1-1.4c0.1-0.4,0.3-0.7,0.6-1c0.3-0.3,0.6-0.5,0.9-0.7   c0.4-0.2,0.7-0.3,1.2-0.4c0.4-0.1,0.8-0.1,1.2-0.1c0.1,0,0.1,0,0.2,0c0.1,0,0.1,0,0.2,0.1c0.3,0,0.6,0.1,1.1,0.3s0.8,0.5,1.2,0.9   c0.4,0.4,0.7,0.9,1,1.5c0.3,0.6,0.4,1.3,0.4,2.2c0,0.2,0,0.4,0,0.6s0,0.5-0.1,0.6c0.5-0.2,1-0.4,1.6-0.7c0.5-0.3,1.1-0.6,1.6-0.9   s1-0.6,1.4-1c0.4-0.3,0.8-0.6,1-0.9c0.2-0.2,0.4-0.3,0.6-0.3c0.2,0,0.3,0,0.3,0.1c0.1,0.1,0.1,0.3,0,0.5c0,0.2-0.2,0.4-0.4,0.6   c-0.1,0.1-0.4,0.4-0.8,0.8c-0.4,0.4-1,0.8-1.6,1.3c-0.6,0.5-1.3,0.9-2,1.3S374.2,363.9,373.5,364.1z M366,364.8   c0,0.4,0,0.8,0.1,1.1c0,0.4,0.1,0.7,0.3,1c0.1,0.3,0.3,0.5,0.5,0.7c0.2,0.2,0.5,0.3,0.8,0.3c0.4,0,0.7-0.1,1.1-0.3   c0.3-0.2,0.6-0.4,0.9-0.7c0.3-0.3,0.5-0.6,0.7-1c0.2-0.4,0.4-0.8,0.5-1.2c-0.2,0-0.3,0-0.4,0c-0.1,0-0.3,0-0.5,0   c-0.8,0-1.5-0.2-2.1-0.7c-0.6-0.5-1.1-1.1-1.4-1.9c-0.1,0.5-0.2,0.9-0.3,1.3C366,364.1,366,364.5,366,364.8z M368.1,359.2   c-0.1,0.2-0.1,0.4-0.1,0.6c0,0.3,0,0.7,0.1,1.1c0,0.4,0.2,0.7,0.3,1c0.2,0.3,0.4,0.6,0.8,0.8c0.4,0.2,0.9,0.3,1.6,0.3   c0.1,0,0.2,0,0.3,0c0.1,0,0.2,0,0.3,0c0.1-0.3,0.1-0.5,0.2-0.8c0.1-0.2,0.1-0.4,0.1-0.6c0-0.4,0-0.8,0-1.3c0-0.4-0.1-0.8-0.2-1.2   c-0.1-0.4-0.3-0.6-0.5-0.9s-0.4-0.3-0.7-0.3c-0.4,0-0.8,0.1-1.2,0.3S368.4,358.7,368.1,359.2z"
       id="path4180" /><path
       class="st9"
       d="M386.6,370c-0.5,0-0.9-0.1-1.3-0.3c-0.4-0.2-0.6-0.4-0.9-0.7s-0.4-0.7-0.4-1.1c-0.1-0.4,0-0.8,0.1-1.3   c0.1-0.3,0.2-0.7,0.3-1.2c0.2-0.5,0.3-1.1,0.5-1.7c0.2-0.6,0.3-1.2,0.5-1.8c0.1-0.6,0.2-1.1,0.3-1.6c0-0.5,0-0.9-0.1-1.2   c-0.1-0.3-0.3-0.5-0.6-0.5c-0.3,0-0.7,0.1-1.1,0.3s-0.7,0.5-1.1,0.9c-0.4,0.4-0.8,0.8-1.1,1.3s-0.8,1-1.1,1.6   c-0.2,0.7-0.4,1.4-0.5,1.9c-0.1,0.6-0.2,1-0.3,1.5s-0.2,0.8-0.3,1.2c-0.1,0.3-0.2,0.7-0.2,1c-0.1,0.2-0.3,0.4-0.6,0.6   s-0.7,0.4-1,0.5c-0.4,0.1-0.7,0.2-1,0.2c-0.3,0-0.4-0.1-0.3-0.3c0-0.1,0.1-0.4,0.2-0.9c0.1-0.5,0.3-1,0.4-1.6   c0.2-0.6,0.3-1.3,0.5-2s0.3-1.3,0.5-2c0.1-0.5,0.2-1,0.4-1.7c0.1-0.5,0.2-1.1,0.4-1.8s0.4-1.4,0.6-2.3c0.2-0.1,0.3-0.2,0.5-0.3   c0.2-0.1,0.3-0.1,0.5-0.2c0.2-0.1,0.4-0.1,0.6-0.1c0.2,0,0.3,0,0.5,0c0.2,0,0.3,0.1,0.5,0.1c0.2,0.1,0.3,0.1,0.4,0.2   c-0.1,0.2-0.1,0.4-0.2,0.6c-0.1,0.3-0.2,0.6-0.3,0.9c-0.1,0.3-0.2,0.7-0.3,1.1c0.3-0.4,0.6-0.8,1-1.2c0.4-0.4,0.7-0.8,1.2-1.1   c0.4-0.3,0.9-0.6,1.3-0.8c0.5-0.2,1-0.3,1.5-0.3c0.4,0,0.8,0.1,1.1,0.4c0.3,0.2,0.6,0.6,0.8,1c0.2,0.4,0.3,0.9,0.3,1.5   c0,0.6,0,1.2-0.2,1.9l-0.4,1.4c-0.1,0.5-0.2,1-0.4,1.6c-0.2,0.6-0.4,1.3-0.6,2c-0.1,0.5-0.2,0.9-0.1,1.2c0,0.3,0.2,0.5,0.6,0.5   c0.4,0,0.9-0.2,1.5-0.7c0.6-0.5,1.2-1,1.8-1.7c0.6-0.7,1.2-1.4,1.7-2.1c0.5-0.7,1-1.3,1.2-1.7c0.2-0.3,0.4-0.5,0.6-0.6   c0.2-0.1,0.3-0.1,0.4,0c0.1,0.1,0.1,0.2,0.1,0.4s-0.1,0.5-0.3,0.9c-0.2,0.3-0.4,0.7-0.7,1.2s-0.7,1-1.1,1.6   c-0.4,0.6-0.9,1.1-1.4,1.7s-1,1.1-1.6,1.6c-0.5,0.5-1.1,0.8-1.6,1.1C387.6,369.9,387.1,370,386.6,370z"
       id="path4182" /><path
       class="st9"
       d="M393,365.9c-0.2-0.2-0.4-0.5-0.5-0.7c-0.1-0.2-0.2-0.4-0.2-0.7c0-0.2,0-0.5,0-0.7c0.1-0.3,0.2-0.6,0.4-0.8   c0.2-0.2,0.4-0.5,0.6-0.7c0.3-0.2,0.6-0.5,1-0.7c0.3-0.7,0.5-1.4,0.8-2.2c0.2-0.8,0.4-1.5,0.6-2.1c0.2-0.7,0.4-1.5,0.5-2.2   c0.5-1.8,0.8-3.3,0.8-4.5s0-1.9-0.1-2.3c0-0.2,0-0.3-0.1-0.5c0-0.1-0.1-0.3-0.1-0.4c0-0.2-0.1-0.3-0.1-0.5c0.2-0.1,0.4-0.2,0.6-0.3   s0.3-0.2,0.5-0.2c0.2-0.1,0.3-0.1,0.4-0.1c0.5-0.1,1-0.2,1.4-0.2c0.4,0,0.7,0.1,0.7,0.2c0,0.1,0,0.3,0.1,0.6c0,0.3,0,0.6,0,1   c0,0.4,0,0.9-0.1,1.4c-0.1,0.5-0.2,1-0.4,1.6c-0.2,0.5-0.4,1.2-0.6,2.1c-0.2,0.8-0.6,1.8-0.9,3c-0.4,1.3-0.9,2.9-1.5,4.8   c0.6-0.2,1.4-0.4,2.1-0.6c0.8-0.2,1.6-0.4,2.4-0.5c0.8-0.1,1.6-0.2,2.4-0.3c0.8-0.1,1.6-0.1,2.3,0c0.1,0,0.2,0.1,0.3,0.2   c0.1,0.1,0.1,0.2,0,0.4c-0.1,0.1-0.2,0.3-0.4,0.4c-0.2,0.1-0.4,0.2-0.8,0.2c-0.4,0-0.9,0.1-1.4,0.1c-0.5,0.1-1.1,0.1-1.6,0.2   c-0.6,0.1-1.1,0.2-1.6,0.4s-1,0.3-1.5,0.5c-0.4,0.1-0.7,0.3-1.1,0.4c-0.3,0.1-0.6,0.2-1,0.4c-0.3,0.1-0.6,0.3-0.8,0.4l-0.7,2.4   c1.3,0.9,2.2,1.8,2.9,2.7c0.7,0.9,1.2,1.8,1.5,2.6c0.4,0.9,0.6,1.8,0.6,2.7c0,0.9-0.1,1.9-0.4,2.9c-0.3,1-0.7,1.9-1.1,2.8   c-0.5,0.9-1,1.7-1.6,2.4c-0.6,0.8-1.3,1.4-1.9,1.9s-1.4,0.9-2.1,1.2c-0.7,0.3-1.4,0.4-2,0.3c-0.5,0-0.8-0.2-1.1-0.4   s-0.5-0.6-0.7-0.9c-0.2-0.4-0.2-0.8-0.3-1.3c0-0.5,0-0.9,0.1-1.4c0.1-0.5,0.3-1.3,0.6-2.5c0.2-1,0.6-2.5,1.1-4.5   S392.1,369.1,393,365.9z M394.9,367.4c-0.3,1.1-0.6,2.1-0.8,3c-0.2,0.9-0.4,1.7-0.6,2.4c-0.2,0.8-0.3,1.5-0.5,2.2   c-0.2,0.8-0.4,1.6-0.6,2.4c-0.2,0.8-0.4,1.5-0.5,2.2c-0.1,0.6-0.2,1.1-0.1,1.5c0,0.4,0.2,0.6,0.4,0.6c0.6,0,1.3-0.2,2-0.7   c0.7-0.5,1.3-1.2,1.9-2c0.6-0.8,1-1.7,1.4-2.6c0.4-0.9,0.6-1.8,0.6-2.6c0-0.9-0.1-1.8-0.4-2.6c-0.2-0.5-0.4-0.9-0.7-1.3   c-0.2-0.4-0.5-0.8-0.9-1.2C395.7,368.1,395.4,367.7,394.9,367.4z"
       id="path4184" /><path
       class="st9"
       d="M417.8,362.5c-0.6,0.9-1.4,1.9-2.2,2.8c-0.8,0.9-1.7,1.7-2.6,2.4c-0.9,0.7-1.9,1.3-2.8,1.7   c-1,0.4-1.9,0.6-2.8,0.6c-0.5,0-1-0.1-1.5-0.3s-1.1-0.6-1.5-1.1c-0.5-0.5-0.8-1.1-1.1-1.8s-0.4-1.7-0.2-2.8   c0.1-0.9,0.4-1.8,0.8-2.8c0.5-1,1-1.9,1.7-2.7c0.7-0.8,1.4-1.5,2.3-2c0.9-0.5,1.7-0.8,2.6-0.8c0.8,0,1.4,0.2,1.8,0.6   c0.4,0.4,0.5,0.9,0.5,1.5c-0.1,0.7-0.3,1.3-0.6,1.8c-0.3,0.6-0.7,1.1-1.1,1.5c-0.4,0.5-0.9,0.9-1.4,1.2c-0.5,0.4-0.9,0.7-1.4,1   c-0.5,0.3-0.9,0.6-1.4,0.9c-0.4,0.3-0.8,0.6-1.1,0.8c0,0.5,0.1,1,0.3,1.4c0.2,0.4,0.4,0.7,0.6,0.9c0.3,0.2,0.6,0.4,0.9,0.5   c0.3,0.1,0.7,0.1,1,0.1c0.7,0,1.5-0.2,2.3-0.7c0.8-0.5,1.6-1,2.4-1.7c0.8-0.7,1.5-1.3,2.1-2.1s1.2-1.3,1.6-1.8   c0.2-0.2,0.3-0.3,0.5-0.3s0.3,0,0.4,0.1c0.1,0.1,0.1,0.2,0.1,0.4S418,362.2,417.8,362.5z M409.5,357.5c-0.3,0-0.6,0.1-0.9,0.4   s-0.7,0.6-1.1,1.1c-0.3,0.5-0.7,1.1-1,1.8c-0.3,0.7-0.5,1.5-0.7,2.4c0.3-0.2,0.5-0.4,0.8-0.6c0.3-0.2,0.6-0.4,0.9-0.7   c0.9-0.7,1.6-1.3,1.9-1.9s0.6-1,0.6-1.4c0-0.4,0-0.7-0.1-0.9C409.9,357.6,409.8,357.5,409.5,357.5z"
       id="path4186" /><path
       class="st9"
       d="M414.3,369.1c-0.2,0.2-0.3,0.4-0.5,0.5c-0.2,0.1-0.3,0.1-0.5,0s-0.2-0.2-0.3-0.3s0-0.4,0.1-0.6   c0.1-0.1,0.2-0.4,0.4-0.9c0.2-0.5,0.5-1,0.8-1.6c0.3-0.6,0.7-1.3,1-2.1s0.7-1.5,1.1-2.1c0.3-0.7,0.6-1.3,0.9-1.8   c0.3-0.5,0.5-0.9,0.6-1.1c-0.2-0.2-0.4-0.4-0.5-0.5c-0.1-0.1-0.2-0.3-0.2-0.6c0-0.3,0-0.6,0.2-1.1s0.4-0.9,0.7-1.3   c0.3-0.4,0.6-0.8,0.9-1.1c0.3-0.3,0.7-0.5,1-0.5c0.6,0,1,0.2,1.3,0.6c0.2,0.4,0.4,0.8,0.4,1.2c0,0.3,0,0.6-0.1,1.1   c-0.1,0.4-0.2,0.8-0.5,1.2c0.1,0,0.2,0.1,0.3,0.1c0.1,0.1,0.3,0.1,0.5,0.1c0.3,0,0.6,0,0.7-0.1c0.1,0,0.4-0.1,0.7-0.1   c0.4,0,0.7,0.1,0.9,0.3c0.2,0.2,0.4,0.4,0.6,0.7c0.2,0.3,0.3,0.6,0.3,0.9c0.1,0.3,0.1,0.6,0.1,0.9c0.1,0.5-0.1,1.1-0.4,1.7   c-0.3,0.6-0.8,1.2-1.3,1.9c-0.3,0.4-0.6,0.9-0.9,1.5c-0.3,0.5-0.4,1-0.4,1.5c0,0.3,0.1,0.5,0.2,0.7c0.1,0.2,0.4,0.3,0.9,0.3   c0.4,0,0.8-0.1,1.2-0.4c0.4-0.3,0.9-0.6,1.4-1s0.9-0.9,1.4-1.4c0.5-0.5,0.9-1,1.3-1.5s0.7-0.9,1-1.3c0.3-0.4,0.5-0.7,0.6-0.8   c0.1-0.2,0.2-0.3,0.4-0.4s0.3-0.1,0.5,0c0.1,0.1,0.2,0.2,0.2,0.4c0,0.2,0,0.5-0.2,0.8c-0.1,0.2-0.4,0.6-0.7,1   c-0.3,0.5-0.7,1-1.1,1.6c-0.4,0.6-0.9,1.2-1.5,1.8c-0.5,0.6-1.1,1.2-1.7,1.7c-0.6,0.5-1.2,0.9-1.8,1.2c-0.6,0.3-1.2,0.5-1.7,0.5   c-0.6,0-1-0.1-1.4-0.3c-0.4-0.2-0.7-0.5-0.9-0.8c-0.2-0.3-0.4-0.7-0.5-1c-0.1-0.4-0.1-0.7-0.1-1.1c0-0.3,0.1-0.5,0.2-0.8   c0.1-0.3,0.3-0.6,0.4-0.9c0.2-0.3,0.3-0.6,0.5-0.9s0.4-0.6,0.5-0.9c0.4-0.6,0.7-1.2,0.9-1.6c0.2-0.4,0.3-0.8,0.3-1.1   c0-0.2,0-0.4-0.1-0.5c-0.1-0.2-0.2-0.2-0.4-0.2c-0.1,0-0.2,0-0.3,0c-0.1,0-0.1,0-0.2,0c-0.1,0-0.1,0-0.2,0c-0.1,0-0.2,0-0.4,0   c-0.3,0-0.5,0-0.7-0.1c-0.2-0.1-0.4-0.2-0.6-0.2c-0.1,0.2-0.3,0.5-0.6,1c-0.3,0.5-0.7,1.1-1.1,1.7c-0.4,0.7-0.8,1.4-1.3,2.1   c-0.4,0.7-0.9,1.4-1.2,2.1c-0.4,0.6-0.7,1.2-1,1.6C414.5,368.7,414.3,369,414.3,369.1z"
       id="path4188" /><path
       class="st9"
       d="M443.6,362.5c-0.6,0.9-1.4,1.9-2.2,2.8c-0.8,0.9-1.7,1.7-2.6,2.4c-0.9,0.7-1.9,1.3-2.8,1.7   c-1,0.4-1.9,0.6-2.8,0.6c-0.5,0-1-0.1-1.5-0.3c-0.6-0.2-1.1-0.6-1.5-1.1c-0.5-0.5-0.8-1.1-1.1-1.8c-0.3-0.8-0.4-1.7-0.2-2.8   c0.1-0.9,0.4-1.8,0.8-2.8c0.5-1,1-1.9,1.7-2.7c0.7-0.8,1.4-1.5,2.3-2s1.7-0.8,2.6-0.8c0.8,0,1.4,0.2,1.8,0.6   c0.4,0.4,0.5,0.9,0.5,1.5c-0.1,0.7-0.3,1.3-0.6,1.8c-0.3,0.6-0.7,1.1-1.1,1.5c-0.4,0.5-0.9,0.9-1.4,1.2c-0.5,0.4-0.9,0.7-1.4,1   c-0.5,0.3-0.9,0.6-1.4,0.9s-0.8,0.6-1.1,0.8c0,0.5,0.1,1,0.3,1.4c0.2,0.4,0.4,0.7,0.6,0.9c0.3,0.2,0.6,0.4,0.9,0.5   c0.3,0.1,0.7,0.1,1,0.1c0.7,0,1.5-0.2,2.3-0.7c0.8-0.5,1.6-1,2.3-1.7c0.8-0.7,1.5-1.3,2.1-2.1c0.7-0.7,1.2-1.3,1.6-1.8   c0.2-0.2,0.3-0.3,0.5-0.3s0.3,0,0.4,0.1c0.1,0.1,0.1,0.2,0.1,0.4S443.8,362.2,443.6,362.5z M435.4,357.5c-0.3,0-0.6,0.1-0.9,0.4   s-0.7,0.6-1.1,1.1s-0.7,1.1-1,1.8c-0.3,0.7-0.5,1.5-0.7,2.4c0.3-0.2,0.5-0.4,0.8-0.6s0.6-0.4,0.9-0.7c0.9-0.7,1.6-1.3,1.9-1.9   c0.4-0.5,0.6-1,0.6-1.4c0-0.4,0-0.7-0.1-0.9S435.6,357.5,435.4,357.5z"
       id="path4190" /><path
       class="st9"
       d="M450.9,370c-0.5,0-0.9-0.1-1.3-0.3c-0.4-0.2-0.6-0.4-0.9-0.7s-0.4-0.7-0.4-1.1c-0.1-0.4,0-0.8,0.1-1.3   c0.1-0.3,0.2-0.7,0.3-1.2c0.2-0.5,0.3-1.1,0.5-1.7c0.2-0.6,0.3-1.2,0.5-1.8c0.1-0.6,0.2-1.1,0.3-1.6c0-0.5,0-0.9-0.1-1.2   c-0.1-0.3-0.3-0.5-0.6-0.5c-0.3,0-0.7,0.1-1.1,0.3s-0.7,0.5-1.1,0.9c-0.4,0.4-0.8,0.8-1.1,1.3s-0.8,1-1.1,1.6   c-0.2,0.7-0.4,1.4-0.5,1.9c-0.1,0.6-0.2,1-0.3,1.5s-0.2,0.8-0.3,1.2c-0.1,0.3-0.2,0.7-0.2,1c-0.1,0.2-0.3,0.4-0.6,0.6   s-0.7,0.4-1,0.5c-0.4,0.1-0.7,0.2-1,0.2c-0.3,0-0.4-0.1-0.3-0.3c0-0.1,0.1-0.4,0.2-0.9c0.1-0.5,0.3-1,0.4-1.6   c0.2-0.6,0.3-1.3,0.5-2s0.3-1.3,0.5-2c0.1-0.5,0.2-1,0.4-1.7c0.1-0.5,0.2-1.1,0.4-1.8s0.4-1.4,0.6-2.3c0.2-0.1,0.3-0.2,0.5-0.3   c0.2-0.1,0.3-0.1,0.5-0.2c0.2-0.1,0.4-0.1,0.6-0.1c0.2,0,0.3,0,0.5,0c0.2,0,0.3,0.1,0.5,0.1c0.2,0.1,0.3,0.1,0.4,0.2   c-0.1,0.2-0.1,0.4-0.2,0.6c-0.1,0.3-0.2,0.6-0.3,0.9c-0.1,0.3-0.2,0.7-0.3,1.1c0.3-0.4,0.6-0.8,1-1.2c0.4-0.4,0.7-0.8,1.2-1.1   c0.4-0.3,0.9-0.6,1.3-0.8c0.5-0.2,1-0.3,1.5-0.3c0.4,0,0.8,0.1,1.1,0.4c0.3,0.2,0.6,0.6,0.8,1c0.2,0.4,0.3,0.9,0.3,1.5   c0,0.6,0,1.2-0.2,1.9l-0.4,1.4c-0.1,0.5-0.2,1-0.4,1.6c-0.2,0.6-0.4,1.3-0.6,2c-0.1,0.5-0.2,0.9-0.1,1.2c0,0.3,0.2,0.5,0.6,0.5   c0.4,0,0.9-0.2,1.5-0.7c0.6-0.5,1.2-1,1.8-1.7c0.6-0.7,1.2-1.4,1.7-2.1c0.5-0.7,1-1.3,1.2-1.7c0.2-0.3,0.4-0.5,0.6-0.6   c0.2-0.1,0.3-0.1,0.4,0c0.1,0.1,0.1,0.2,0.1,0.4s-0.1,0.5-0.3,0.9c-0.2,0.3-0.4,0.7-0.7,1.2s-0.7,1-1.1,1.6   c-0.4,0.6-0.9,1.1-1.4,1.7s-1,1.1-1.6,1.6c-0.5,0.5-1.1,0.8-1.6,1.1C451.9,369.9,451.4,370,450.9,370z"
       id="path4192" /><path
       class="st9"
       d="M468.6,361c0.1-0.1,0.2-0.2,0.3-0.2c0.1,0,0.3,0,0.3,0c0.1,0.1,0.1,0.2,0.1,0.3c0,0.2,0,0.4-0.2,0.6   c-0.4,0.8-1,1.7-1.7,2.7s-1.4,1.8-2.2,2.7c-0.8,0.8-1.5,1.5-2.3,2.1s-1.4,0.8-1.8,0.8c-0.7,0-1.3-0.1-1.8-0.4   c-0.5-0.3-0.8-0.6-1.1-1c-0.3-0.4-0.5-0.9-0.6-1.3s-0.1-0.9-0.1-1.3c0-0.3,0.1-1,0.2-1.9s0.3-1.9,0.5-3.1s0.5-2.4,0.7-3.8   c0.3-1.3,0.6-2.6,0.9-3.9c-0.4,0-0.7,0.1-1.1,0.1c-0.4,0-0.7,0.1-1,0.1c-0.7,0-1.3-0.1-2-0.2c-0.6-0.2-1.1-0.3-1.4-0.5   c-0.2-0.1-0.2-0.2-0.2-0.4s0.1-0.3,0.2-0.5c0.1-0.2,0.2-0.3,0.4-0.4c0.2-0.1,0.3-0.2,0.4-0.2c0.4,0,0.9,0.1,1.3,0.1s1,0,1.6,0   c0.4,0,0.8-0.1,1.2-0.1c0.4,0,0.8-0.1,1.1-0.2c0.3-1,0.6-1.9,0.8-2.7c0.3-0.8,0.5-1.3,0.7-1.6c0.1-0.1,0.2-0.2,0.4-0.3   c0.2-0.1,0.5-0.1,0.7-0.2c0.3,0,0.5,0,0.7,0c0.2,0,0.4,0.1,0.5,0.2c0.1,0.2,0.2,0.6,0.1,1.3c0,0.7-0.1,1.6-0.4,2.7   c0.9,0,1.7,0,2.4,0.1c0.7,0.1,1.3,0.2,1.8,0.3c0.5,0.1,0.9,0.2,1.2,0.4c0.3,0.1,0.5,0.2,0.7,0.2c0.2,0,0.2,0.2,0.2,0.3   c0,0.2,0,0.4-0.1,0.5c-0.1,0.2-0.2,0.3-0.4,0.5c-0.2,0.1-0.4,0.2-0.6,0.1c-0.2,0-0.5-0.1-0.7-0.1c-0.3-0.1-0.6-0.1-1-0.2   s-0.8-0.1-1.3-0.1c-0.5,0-1.1-0.1-1.8-0.1c-0.1,0-0.3,0-0.4,0s-0.3,0-0.5,0c-0.1,0.3-0.2,0.7-0.2,1c-0.1,0.3-0.2,0.7-0.3,1.1   c-0.3,0.9-0.6,1.8-1,2.8c-0.3,0.9-0.7,1.9-1.2,3c-0.5,1.1-1,2.4-1.5,3.7c-0.1,0.9-0.1,1.6,0,2.1s0.4,0.8,0.6,1.1   c0.3,0.2,0.6,0.4,1,0.4c0.3,0,0.7-0.1,1.2-0.3c0.5-0.3,0.9-0.6,1.4-1.1s1-0.9,1.5-1.5c0.5-0.5,1-1.1,1.4-1.6c0.4-0.5,0.8-1,1.1-1.4   S468.5,361.2,468.6,361z"
       id="path4194" /><path
       class="st9"
       d="M469.3,357c0.1-0.1,0.3-0.2,0.6-0.3c0.3-0.1,0.6-0.2,0.9-0.2c0.3-0.1,0.6-0.1,0.9-0.1c0.3,0,0.4,0,0.5,0   c0,0,0,0.2-0.2,0.7c-0.1,0.4-0.3,0.9-0.5,1.5c-0.2,0.6-0.4,1.2-0.6,1.8s-0.4,1.1-0.5,1.5c-0.1,0.4-0.2,0.8-0.4,1.3   c-0.2,0.5-0.3,1-0.4,1.4c-0.1,0.5-0.2,0.9-0.2,1.3c0,0.4,0,0.7,0.1,0.9c0.1,0.3,0.2,0.4,0.4,0.5c0.1,0.1,0.3,0.1,0.4,0.1   c0.4,0,1-0.2,1.6-0.7c0.7-0.5,1.3-1,2-1.7c0.7-0.7,1.3-1.3,1.9-2c0.6-0.7,1-1.2,1.3-1.6c0.2-0.2,0.4-0.4,0.5-0.4   c0.2-0.1,0.3-0.1,0.5,0c0.1,0.1,0.2,0.2,0.2,0.4c0,0.2-0.1,0.4-0.2,0.7c-0.3,0.6-0.9,1.3-1.5,2.2c-0.7,0.8-1.4,1.6-2.1,2.4   c-0.8,0.8-1.5,1.4-2.2,2c-0.7,0.5-1.3,0.8-1.8,0.8c-0.4,0-0.7,0-1.1-0.2s-0.7-0.3-1-0.6c-0.3-0.2-0.5-0.5-0.7-0.9   c-0.2-0.3-0.3-0.7-0.3-1.1c-0.1-0.5-0.1-1.3,0-2.2s0.2-1.9,0.4-2.9s0.4-1.9,0.7-2.8S469,357.5,469.3,357z M473.8,350.2   c-0.1,0.2-0.2,0.5-0.4,0.7s-0.4,0.4-0.6,0.5c-0.2,0.1-0.5,0.2-0.7,0.3c-0.2,0-0.4,0-0.6-0.1c-0.5-0.3-0.7-0.7-0.7-1.1   c0-0.4,0.1-0.8,0.3-1.1c0.2-0.4,0.5-0.7,0.8-0.9c0.3-0.2,0.6-0.4,0.8-0.4c0.2,0,0.4,0,0.6,0.1s0.3,0.3,0.4,0.5   c0.1,0.2,0.1,0.5,0.1,0.8C473.9,349.7,473.9,349.9,473.8,350.2z"
       id="path4196" /><path
       class="st9"
       d="M490.5,362.5c-0.6,0.9-1.4,1.9-2.2,2.8c-0.8,0.9-1.7,1.7-2.6,2.4s-1.9,1.3-2.8,1.7c-1,0.4-1.9,0.6-2.8,0.6   c-0.5,0-1-0.1-1.5-0.3c-0.6-0.2-1.1-0.6-1.5-1.1c-0.5-0.5-0.8-1.1-1.1-1.8c-0.3-0.8-0.4-1.7-0.2-2.8c0.1-0.9,0.4-1.8,0.8-2.8   c0.5-1,1-1.9,1.7-2.7c0.7-0.8,1.4-1.5,2.3-2s1.7-0.8,2.6-0.8c0.8,0,1.4,0.2,1.8,0.6c0.4,0.4,0.5,0.9,0.5,1.5   c-0.1,0.7-0.3,1.3-0.6,1.8c-0.3,0.6-0.7,1.1-1.1,1.5c-0.4,0.5-0.9,0.9-1.4,1.2c-0.5,0.4-0.9,0.7-1.4,1c-0.5,0.3-0.9,0.6-1.4,0.9   c-0.4,0.3-0.8,0.6-1.1,0.8c0,0.5,0.1,1,0.3,1.4c0.2,0.4,0.4,0.7,0.6,0.9c0.3,0.2,0.6,0.4,0.9,0.5c0.3,0.1,0.7,0.1,1,0.1   c0.7,0,1.5-0.2,2.3-0.7c0.8-0.5,1.6-1,2.3-1.7c0.8-0.7,1.5-1.3,2.1-2.1s1.2-1.3,1.6-1.8c0.2-0.2,0.3-0.3,0.5-0.3s0.3,0,0.4,0.1   c0.1,0.1,0.1,0.2,0.1,0.4S490.6,362.2,490.5,362.5z M482.2,357.5c-0.3,0-0.6,0.1-0.9,0.4c-0.4,0.3-0.7,0.6-1.1,1.1   c-0.3,0.5-0.7,1.1-1,1.8c-0.3,0.7-0.5,1.5-0.7,2.4c0.3-0.2,0.5-0.4,0.8-0.6s0.6-0.4,0.9-0.7c0.9-0.7,1.6-1.3,1.9-1.9   c0.4-0.5,0.6-1,0.6-1.4c0-0.4,0-0.7-0.1-0.9C482.6,357.6,482.4,357.5,482.2,357.5z"
       id="path4198" /></g><g
     id="this"
     class="st3"><path
       class="st4"
       d="M213.8,361c0.1-0.1,0.2-0.2,0.3-0.2c0.1,0,0.3,0,0.3,0c0.1,0.1,0.1,0.2,0.1,0.3c0,0.2,0,0.4-0.2,0.6   c-0.4,0.8-1,1.7-1.7,2.7c-0.7,0.9-1.4,1.8-2.2,2.7s-1.5,1.5-2.3,2.1c-0.7,0.5-1.4,0.8-1.8,0.8c-0.7,0-1.3-0.1-1.8-0.4   c-0.5-0.3-0.8-0.6-1.1-1c-0.3-0.4-0.5-0.9-0.6-1.3c-0.1-0.5-0.1-0.9-0.1-1.3c0-0.3,0.1-1,0.2-1.9c0.1-0.9,0.3-1.9,0.5-3.1   s0.5-2.4,0.7-3.8c0.3-1.3,0.6-2.6,0.9-3.9c-0.4,0-0.7,0.1-1.1,0.1c-0.4,0-0.7,0.1-1,0.1c-0.7,0-1.3-0.1-2-0.2   c-0.6-0.2-1.1-0.3-1.4-0.5c-0.2-0.1-0.2-0.2-0.2-0.4s0.1-0.3,0.2-0.5c0.1-0.2,0.2-0.3,0.4-0.4c0.2-0.1,0.3-0.2,0.4-0.2   c0.4,0,0.9,0.1,1.3,0.1c0.5,0,1,0,1.6,0c0.4,0,0.8-0.1,1.2-0.1c0.4,0,0.8-0.1,1.1-0.2c0.3-1,0.6-1.9,0.8-2.7   c0.3-0.8,0.5-1.3,0.7-1.6c0.1-0.1,0.2-0.2,0.4-0.3c0.2-0.1,0.5-0.1,0.7-0.2s0.5,0,0.7,0s0.4,0.1,0.5,0.2c0.1,0.2,0.2,0.6,0.1,1.3   c0,0.7-0.1,1.6-0.4,2.7c0.9,0,1.7,0,2.4,0.1c0.7,0.1,1.3,0.2,1.8,0.3c0.5,0.1,0.9,0.2,1.2,0.4c0.3,0.1,0.5,0.2,0.7,0.2   c0.2,0,0.2,0.2,0.2,0.3c0,0.2,0,0.4-0.1,0.5c-0.1,0.2-0.2,0.3-0.4,0.5c-0.2,0.1-0.4,0.2-0.6,0.1c-0.2,0-0.5-0.1-0.7-0.1   c-0.3-0.1-0.6-0.1-1-0.2s-0.8-0.1-1.3-0.1c-0.5,0-1.1-0.1-1.8-0.1c-0.1,0-0.3,0-0.4,0s-0.3,0-0.5,0c-0.1,0.3-0.2,0.7-0.2,1   c-0.1,0.3-0.2,0.7-0.3,1.1c-0.3,0.9-0.6,1.8-1,2.8c-0.3,0.9-0.7,1.9-1.2,3c-0.5,1.1-1,2.4-1.5,3.7c-0.1,0.9-0.1,1.6,0,2.1   s0.4,0.8,0.6,1.1c0.3,0.2,0.6,0.4,1,0.4c0.3,0,0.7-0.1,1.2-0.3c0.5-0.3,0.9-0.6,1.4-1.1c0.5-0.5,1-0.9,1.5-1.5   c0.5-0.5,1-1.1,1.4-1.6c0.4-0.5,0.8-1,1.1-1.4S213.7,361.2,213.8,361z"
       id="path4201" /><path
       class="st4"
       d="M228.6,362.1c0.2-0.2,0.3-0.3,0.5-0.3s0.3,0,0.4,0.1c0.1,0.1,0.1,0.2,0.1,0.4c0,0.2-0.1,0.4-0.3,0.6   c-0.4,0.6-0.9,1.1-1.4,1.7c-0.5,0.6-1.1,1.2-1.7,1.7s-1.2,1.1-1.9,1.6c-0.6,0.5-1.2,0.9-1.8,1.2c-0.6,0.4-1.2,0.6-1.6,0.6   c-0.4,0-0.9-0.3-1.3-0.8c-0.4-0.5-0.6-1-0.6-1.6c0-0.6,0.1-1.3,0.4-2.2c0.2-0.5,0.4-1.2,0.6-1.9c0.3-0.7,0.5-1.5,0.6-2.2   s0.2-1.3,0.1-1.8s-0.3-0.7-0.8-0.7c-0.3,0-0.7,0.1-1.1,0.4c-0.4,0.2-0.8,0.5-1.2,0.9c-0.4,0.4-0.8,0.8-1.2,1.3   c-0.4,0.5-0.7,0.9-1,1.4c-0.2,0.8-0.3,1.7-0.5,2.5c-0.2,0.7-0.3,1.4-0.5,2.2c-0.2,0.8-0.3,1.5-0.5,2.2c-0.1,0.1-0.3,0.2-0.4,0.2   c-0.2,0-0.3,0.1-0.4,0.1c-0.2,0-0.3,0-0.5,0c-0.2,0-0.3-0.1-0.5-0.2c-0.1-0.1-0.3-0.2-0.4-0.3c-0.1-0.1-0.2-0.3-0.3-0.6   c1-4,1.7-7.2,2.3-9.6c0.6-2.4,1-4.3,1.3-5.5c0.3-1.5,0.6-2.6,0.7-3.1c0.1-0.4,0.1-0.8,0.2-1.2c0-0.3,0.1-0.7,0.1-1.1   c0-0.4,0-0.7-0.1-1c0.2-0.1,0.4-0.2,0.6-0.3c0.2-0.1,0.4-0.1,0.6-0.2c0.2-0.1,0.5-0.1,0.7-0.2s0.5-0.1,0.6-0.1c0.2,0,0.3,0,0.5,0   s0.2,0.1,0.3,0.2c0.1,0.1,0.2,0.3,0.2,0.6c0,0.3,0,0.7-0.1,1c-0.1,0.4-0.2,0.9-0.3,1.3c-0.5,1.7-1,3.4-1.5,5.1   c-0.6,1.7-1.1,3.4-1.6,5.3c0.3-0.4,0.6-0.9,1-1.3c0.4-0.5,0.8-0.9,1.3-1.2c0.5-0.4,1-0.7,1.5-0.9c0.5-0.2,1.1-0.4,1.7-0.4   c0.3,0,0.6,0,0.9,0.1c0.3,0.1,0.5,0.3,0.7,0.5c0.2,0.2,0.4,0.5,0.5,0.9c0.1,0.4,0.2,0.8,0.1,1.4c0,0.3,0,0.7-0.1,1.1   c-0.1,0.4-0.2,0.8-0.3,1.2c-0.1,0.4-0.3,0.9-0.5,1.5s-0.4,1.2-0.7,1.9c-0.2,0.5-0.3,0.9-0.5,1.3c-0.1,0.3-0.1,0.6,0.1,0.9   c0.2,0.3,0.6,0.4,1.2,0.2c0.6-0.2,1.4-0.7,2.6-1.7c0.3-0.2,0.6-0.5,0.9-0.8c0.3-0.3,0.6-0.7,0.9-1c0.3-0.3,0.6-0.7,0.8-1   C228.2,362.5,228.4,362.3,228.6,362.1z"
       id="path4203" /><path
       class="st4"
       d="M230,357c0.1-0.1,0.3-0.2,0.6-0.3c0.3-0.1,0.6-0.2,0.9-0.2c0.3-0.1,0.6-0.1,0.9-0.1c0.3,0,0.4,0,0.5,0   c0,0,0,0.2-0.2,0.7c-0.1,0.4-0.3,0.9-0.5,1.5c-0.2,0.6-0.4,1.2-0.6,1.8s-0.4,1.1-0.5,1.5c-0.1,0.4-0.2,0.8-0.4,1.3   c-0.2,0.5-0.3,1-0.4,1.4s-0.2,0.9-0.2,1.3c0,0.4,0,0.7,0.1,0.9c0.1,0.3,0.2,0.4,0.4,0.5c0.1,0.1,0.3,0.1,0.4,0.1   c0.4,0,1-0.2,1.6-0.7c0.7-0.5,1.3-1,2-1.7c0.7-0.7,1.3-1.3,1.9-2c0.6-0.7,1-1.2,1.3-1.6c0.2-0.2,0.4-0.4,0.5-0.4   c0.2-0.1,0.3-0.1,0.5,0c0.1,0.1,0.2,0.2,0.2,0.4c0,0.2-0.1,0.4-0.2,0.7c-0.3,0.6-0.9,1.3-1.5,2.2c-0.7,0.8-1.4,1.6-2.1,2.4   c-0.8,0.8-1.5,1.4-2.2,2s-1.3,0.8-1.8,0.8c-0.4,0-0.7,0-1.1-0.2s-0.7-0.3-1-0.6c-0.3-0.2-0.5-0.5-0.7-0.9c-0.2-0.3-0.3-0.7-0.3-1.1   c-0.1-0.5-0.1-1.3,0-2.2c0.1-0.9,0.2-1.9,0.4-2.9c0.2-1,0.4-1.9,0.7-2.8C229.3,358.1,229.6,357.5,230,357z M234.5,350.2   c-0.1,0.2-0.2,0.5-0.4,0.7s-0.4,0.4-0.6,0.5c-0.2,0.1-0.5,0.2-0.7,0.3c-0.2,0-0.4,0-0.6-0.1c-0.5-0.3-0.7-0.7-0.7-1.1   c0-0.4,0.1-0.8,0.3-1.1c0.2-0.4,0.5-0.7,0.8-0.9c0.3-0.2,0.6-0.4,0.8-0.4s0.4,0,0.6,0.1s0.3,0.3,0.4,0.5c0.1,0.2,0.1,0.5,0.1,0.8   S234.5,349.9,234.5,350.2z"
       id="path4205" /><path
       class="st4"
       d="M241,368.1c0.1,0.1,0.3,0.1,0.5,0.1c0.2,0,0.4,0,0.6-0.1c0.2-0.1,0.4-0.2,0.6-0.4c0.2-0.2,0.3-0.3,0.4-0.6   c0.1-0.2,0.1-0.6,0-1c-0.1-0.4-0.2-0.9-0.4-1.4s-0.4-1-0.6-1.5c-0.2-0.5-0.4-1-0.6-1.4c-0.1-0.3-0.2-0.6-0.3-0.9   c-0.1-0.2-0.2-0.5-0.2-0.7s-0.1-0.4-0.2-0.5c-0.1,0.2-0.3,0.5-0.6,0.8c-0.3,0.4-0.6,0.8-0.9,1.2c-0.3,0.4-0.6,0.8-0.9,1.2   c-0.3,0.4-0.5,0.6-0.6,0.7c-0.2,0.2-0.3,0.3-0.5,0.3s-0.3,0-0.4-0.1c-0.1-0.1-0.2-0.2-0.2-0.4s0.1-0.4,0.2-0.7   c0.1-0.2,0.3-0.4,0.6-0.8c0.3-0.4,0.5-0.8,0.8-1.2s0.5-0.8,0.7-1.1c0.2-0.3,0.3-0.5,0.4-0.6c0-0.2,0-0.4-0.2-0.7   c-0.2-0.3-0.2-0.6-0.1-1c0.1-0.3,0.3-0.7,0.6-1.1s0.7-0.8,1.1-1.1c0.4-0.3,0.8-0.6,1.3-0.7c0.4-0.2,0.8-0.2,1.2,0   c0.3,0.2,0.5,0.4,0.7,0.6c0.2,0.2,0.2,0.4,0.2,0.6c0,0.1-0.1,0.2-0.2,0.4c-0.1,0.2-0.2,0.4-0.4,0.6c-0.2,0.2-0.4,0.6-0.7,1   c0.1,0.5,0.2,0.9,0.3,1.4c0.1,0.4,0.2,0.8,0.3,1.1c0.1,0.4,0.3,0.7,0.4,1c0.2,0.4,0.4,0.8,0.6,1.2c0.2,0.4,0.4,0.8,0.6,1.2   s0.3,0.8,0.4,1.1c0.1,0.3,0.1,0.6,0.1,0.9c-0.1,0.4-0.3,0.8-0.6,1.3c-0.3,0.5-0.7,1-1.2,1.5c-0.5,0.5-1,0.9-1.6,1.2   c-0.6,0.3-1.2,0.5-1.9,0.5c-0.5,0-0.9-0.1-1.3-0.4c-0.4-0.3-0.8-0.6-1.1-1c-0.3-0.4-0.5-0.7-0.6-1.1c-0.1-0.4-0.2-0.6,0-0.8   c0.1-0.3,0.2-0.5,0.4-0.6c0.1-0.2,0.3-0.3,0.5-0.5c0.1-0.1,0.2-0.1,0.3-0.2c0.1-0.1,0.3-0.1,0.5-0.2c0.2-0.1,0.4-0.1,0.7-0.2   c0.2,0.7,0.4,1.2,0.6,1.6c0.2,0.4,0.3,0.7,0.4,0.9C240.8,367.9,240.9,368,241,368.1z"
       id="path4207" /><path
       class="st7"
       d="M260.1,357c0.1-0.1,0.3-0.2,0.6-0.3c0.3-0.1,0.6-0.2,0.9-0.2c0.3-0.1,0.6-0.1,0.9-0.1c0.3,0,0.4,0,0.5,0   c0,0,0,0.2-0.2,0.7c-0.1,0.4-0.3,0.9-0.5,1.5c-0.2,0.6-0.4,1.2-0.6,1.8s-0.4,1.1-0.5,1.5c-0.1,0.4-0.2,0.8-0.4,1.3   c-0.2,0.5-0.3,1-0.4,1.4s-0.2,0.9-0.2,1.3c0,0.4,0,0.7,0.1,0.9c0.1,0.3,0.2,0.4,0.4,0.5c0.1,0.1,0.3,0.1,0.4,0.1   c0.4,0,1-0.2,1.6-0.7c0.7-0.5,1.3-1,2-1.7c0.7-0.7,1.3-1.3,1.9-2c0.6-0.7,1-1.2,1.3-1.6c0.2-0.2,0.4-0.4,0.5-0.4   c0.2-0.1,0.3-0.1,0.5,0c0.1,0.1,0.2,0.2,0.2,0.4c0,0.2-0.1,0.4-0.2,0.7c-0.3,0.6-0.9,1.3-1.5,2.2c-0.7,0.8-1.4,1.6-2.1,2.4   c-0.8,0.8-1.5,1.4-2.2,2s-1.3,0.8-1.8,0.8c-0.4,0-0.7,0-1.1-0.2s-0.7-0.3-1-0.6c-0.3-0.2-0.5-0.5-0.7-0.9c-0.2-0.3-0.3-0.7-0.3-1.1   c-0.1-0.5-0.1-1.3,0-2.2c0.1-0.9,0.2-1.9,0.4-2.9c0.2-1,0.4-1.9,0.7-2.8C259.4,358.1,259.7,357.5,260.1,357z M264.5,350.2   c-0.1,0.2-0.2,0.5-0.4,0.7s-0.4,0.4-0.6,0.5c-0.2,0.1-0.5,0.2-0.7,0.3c-0.2,0-0.4,0-0.6-0.1c-0.5-0.3-0.7-0.7-0.7-1.1   c0-0.4,0.1-0.8,0.3-1.1c0.2-0.4,0.5-0.7,0.8-0.9c0.3-0.2,0.6-0.4,0.8-0.4s0.4,0,0.6,0.1s0.3,0.3,0.4,0.5c0.1,0.2,0.1,0.5,0.1,0.8   S264.6,349.9,264.5,350.2z"
       id="path4209" /><path
       class="st7"
       d="M271.1,368.1c0.1,0.1,0.3,0.1,0.5,0.1c0.2,0,0.4,0,0.6-0.1c0.2-0.1,0.4-0.2,0.6-0.4c0.2-0.2,0.3-0.3,0.4-0.6   c0.1-0.2,0.1-0.6,0-1c-0.1-0.4-0.2-0.9-0.4-1.4s-0.4-1-0.6-1.5c-0.2-0.5-0.4-1-0.6-1.4c-0.1-0.3-0.2-0.6-0.3-0.9   c-0.1-0.2-0.2-0.5-0.2-0.7s-0.1-0.4-0.2-0.5c-0.1,0.2-0.3,0.5-0.6,0.8c-0.3,0.4-0.6,0.8-0.9,1.2c-0.3,0.4-0.6,0.8-0.9,1.2   c-0.3,0.4-0.5,0.6-0.6,0.7c-0.2,0.2-0.3,0.3-0.5,0.3s-0.3,0-0.4-0.1c-0.1-0.1-0.2-0.2-0.2-0.4s0.1-0.4,0.2-0.7   c0.1-0.2,0.3-0.4,0.6-0.8c0.3-0.4,0.5-0.8,0.8-1.2s0.5-0.8,0.7-1.1c0.2-0.3,0.3-0.5,0.4-0.6c0-0.2,0-0.4-0.2-0.7   c-0.2-0.3-0.2-0.6-0.1-1c0.1-0.3,0.3-0.7,0.6-1.1s0.7-0.8,1.1-1.1c0.4-0.3,0.8-0.6,1.3-0.7c0.4-0.2,0.8-0.2,1.2,0   c0.3,0.2,0.5,0.4,0.7,0.6c0.2,0.2,0.2,0.4,0.2,0.6c0,0.1-0.1,0.2-0.2,0.4c-0.1,0.2-0.2,0.4-0.4,0.6c-0.2,0.2-0.4,0.6-0.7,1   c0.1,0.5,0.2,0.9,0.3,1.4c0.1,0.4,0.2,0.8,0.3,1.1c0.1,0.4,0.3,0.7,0.4,1c0.2,0.4,0.4,0.8,0.6,1.2c0.2,0.4,0.4,0.8,0.6,1.2   s0.3,0.8,0.4,1.1c0.1,0.3,0.1,0.6,0.1,0.9c-0.1,0.4-0.3,0.8-0.6,1.3c-0.3,0.5-0.7,1-1.2,1.5c-0.5,0.5-1,0.9-1.6,1.2   c-0.6,0.3-1.2,0.5-1.9,0.5c-0.5,0-0.9-0.1-1.3-0.4c-0.4-0.3-0.8-0.6-1.1-1c-0.3-0.4-0.5-0.7-0.6-1.1c-0.1-0.4-0.2-0.6,0-0.8   c0.1-0.3,0.2-0.5,0.4-0.6c0.1-0.2,0.3-0.3,0.5-0.5c0.1-0.1,0.2-0.1,0.3-0.2c0.1-0.1,0.3-0.1,0.5-0.2c0.2-0.1,0.4-0.1,0.7-0.2   c0.2,0.7,0.4,1.2,0.6,1.6c0.2,0.4,0.3,0.7,0.4,0.9C270.9,367.9,271,368,271.1,368.1z"
       id="path4211" /><path
       class="st7"
       d="M297.1,370c-0.5,0-0.9-0.1-1.3-0.3c-0.4-0.2-0.6-0.4-0.9-0.7c-0.2-0.3-0.4-0.7-0.4-1.1c-0.1-0.4,0-0.8,0.1-1.3   c0.1-0.3,0.2-0.7,0.3-1.2c0.2-0.5,0.3-1.1,0.5-1.7c0.2-0.6,0.3-1.2,0.5-1.8c0.1-0.6,0.2-1.1,0.3-1.6c0-0.5,0-0.9-0.1-1.2   s-0.3-0.5-0.6-0.5c-0.3,0-0.7,0.1-1.1,0.3c-0.4,0.2-0.7,0.5-1.1,0.9c-0.4,0.4-0.8,0.8-1.1,1.3c-0.4,0.5-0.8,1-1.1,1.6   c-0.2,0.7-0.4,1.4-0.5,1.9c-0.1,0.6-0.2,1-0.3,1.5c-0.1,0.4-0.2,0.8-0.3,1.2c-0.1,0.3-0.2,0.7-0.2,1c-0.1,0.2-0.3,0.4-0.6,0.6   s-0.7,0.4-1,0.5c-0.4,0.1-0.7,0.2-1,0.2c-0.3,0-0.4-0.1-0.3-0.3c0-0.1,0.1-0.4,0.2-0.9c0.1-0.5,0.3-1,0.4-1.6   c0.2-0.6,0.3-1.3,0.5-2c0.2-0.7,0.3-1.3,0.5-2c0.1-0.5,0.2-1,0.4-1.7c0.1-0.5,0.2-1.1,0.4-1.8s0.4-1.4,0.6-2.3   c0.2-0.1,0.3-0.2,0.5-0.3c0.2-0.1,0.3-0.1,0.5-0.2c0.2-0.1,0.4-0.1,0.6-0.1c0.2,0,0.3,0,0.5,0c0.2,0,0.3,0.1,0.5,0.1   c0.2,0.1,0.3,0.1,0.4,0.2c-0.1,0.2-0.1,0.4-0.2,0.6c-0.1,0.3-0.2,0.6-0.3,0.9c-0.1,0.3-0.2,0.7-0.3,1.1c0.3-0.4,0.6-0.8,1-1.2   c0.4-0.4,0.7-0.8,1.2-1.1s0.9-0.6,1.3-0.8c0.5-0.2,1-0.3,1.5-0.3c0.4,0,0.8,0.1,1.1,0.4c0.3,0.2,0.6,0.6,0.8,1   c0.2,0.4,0.3,0.9,0.3,1.5c0,0.6,0,1.2-0.2,1.9l-0.4,1.4c-0.1,0.5-0.2,1-0.4,1.6c-0.2,0.6-0.4,1.3-0.6,2c-0.1,0.5-0.2,0.9-0.1,1.2   c0,0.3,0.2,0.5,0.6,0.5c0.4,0,0.9-0.2,1.5-0.7s1.2-1,1.8-1.7c0.6-0.7,1.2-1.4,1.7-2.1c0.5-0.7,1-1.3,1.2-1.7   c0.2-0.3,0.4-0.5,0.6-0.6c0.2-0.1,0.3-0.1,0.4,0c0.1,0.1,0.1,0.2,0.1,0.4s-0.1,0.5-0.3,0.9c-0.2,0.3-0.4,0.7-0.7,1.2   c-0.3,0.5-0.7,1-1.1,1.6c-0.4,0.6-0.9,1.1-1.4,1.7s-1,1.1-1.6,1.6c-0.5,0.5-1.1,0.8-1.6,1.1C298.1,369.9,297.6,370,297.1,370z"
       id="path4213" /><path
       class="st7"
       d="M312.4,364.1c-0.2,0.8-0.5,1.6-0.9,2.3c-0.4,0.7-0.8,1.3-1.3,1.8c-0.5,0.5-1.1,0.9-1.7,1.2   c-0.6,0.3-1.3,0.4-2.1,0.4c-0.9,0-1.6-0.2-2.1-0.6c-0.5-0.4-0.9-0.8-1.1-1.4c-0.2-0.6-0.4-1.2-0.5-1.8c-0.1-0.7-0.1-1.3-0.1-1.9   c0-0.4,0-0.9,0.1-1.4c0.1-0.5,0.2-1,0.4-1.5c0.2-0.5,0.4-1,0.7-1.6c0.3-0.5,0.6-1,1-1.4c0.1-0.4,0.3-0.7,0.6-1   c0.3-0.3,0.6-0.5,0.9-0.7c0.4-0.2,0.7-0.3,1.2-0.4c0.4-0.1,0.8-0.1,1.2-0.1c0.1,0,0.1,0,0.2,0c0.1,0,0.1,0,0.2,0.1   c0.3,0,0.6,0.1,1.1,0.3c0.4,0.2,0.8,0.5,1.2,0.9c0.4,0.4,0.7,0.9,1,1.5c0.3,0.6,0.4,1.3,0.4,2.2c0,0.2,0,0.4,0,0.6s0,0.5-0.1,0.6   c0.5-0.2,1-0.4,1.6-0.7c0.5-0.3,1.1-0.6,1.6-0.9s1-0.6,1.4-1c0.4-0.3,0.8-0.6,1-0.9c0.2-0.2,0.4-0.3,0.6-0.3c0.2,0,0.3,0,0.3,0.1   c0.1,0.1,0.1,0.3,0,0.5c0,0.2-0.2,0.4-0.4,0.6c-0.1,0.1-0.4,0.4-0.8,0.8c-0.4,0.4-1,0.8-1.6,1.3s-1.3,0.9-2,1.3   S313.1,363.9,312.4,364.1z M304.9,364.8c0,0.4,0,0.8,0.1,1.1c0,0.4,0.1,0.7,0.3,1c0.1,0.3,0.3,0.5,0.5,0.7c0.2,0.2,0.5,0.3,0.8,0.3   c0.4,0,0.7-0.1,1.1-0.3c0.3-0.2,0.6-0.4,0.9-0.7s0.5-0.6,0.7-1c0.2-0.4,0.4-0.8,0.5-1.2c-0.2,0-0.3,0-0.4,0c-0.1,0-0.3,0-0.5,0   c-0.8,0-1.5-0.2-2.1-0.7s-1.1-1.1-1.4-1.9c-0.1,0.5-0.2,0.9-0.3,1.3S304.9,364.5,304.9,364.8z M306.9,359.2   c-0.1,0.2-0.1,0.4-0.1,0.6c0,0.3,0,0.7,0.1,1.1c0,0.4,0.2,0.7,0.3,1c0.2,0.3,0.4,0.6,0.8,0.8c0.4,0.2,0.9,0.3,1.6,0.3   c0.1,0,0.2,0,0.3,0c0.1,0,0.2,0,0.3,0c0.1-0.3,0.1-0.5,0.2-0.8c0.1-0.2,0.1-0.4,0.1-0.6c0-0.4,0-0.8,0-1.3c0-0.4-0.1-0.8-0.2-1.2   c-0.1-0.4-0.3-0.6-0.5-0.9s-0.4-0.3-0.7-0.3c-0.4,0-0.8,0.1-1.2,0.3S307.3,358.7,306.9,359.2z"
       id="path4215" /><path
       class="st7"
       d="M327.8,361c0.1-0.1,0.2-0.2,0.3-0.2c0.1,0,0.3,0,0.3,0c0.1,0.1,0.1,0.2,0.1,0.3c0,0.2,0,0.4-0.2,0.6   c-0.4,0.8-1,1.7-1.7,2.7s-1.4,1.8-2.2,2.7c-0.8,0.8-1.5,1.5-2.3,2.1s-1.4,0.8-1.8,0.8c-0.7,0-1.3-0.1-1.8-0.4   c-0.5-0.3-0.8-0.6-1.1-1c-0.3-0.4-0.5-0.9-0.6-1.3c-0.1-0.5-0.1-0.9-0.1-1.3c0-0.3,0.1-1,0.2-1.9c0.1-0.9,0.3-1.9,0.5-3.1   s0.5-2.4,0.7-3.8c0.3-1.3,0.6-2.6,0.9-3.9c-0.4,0-0.7,0.1-1.1,0.1c-0.4,0-0.7,0.1-1,0.1c-0.7,0-1.3-0.1-2-0.2   c-0.6-0.2-1.1-0.3-1.4-0.5c-0.2-0.1-0.2-0.2-0.2-0.4s0.1-0.3,0.2-0.5c0.1-0.2,0.2-0.3,0.4-0.4c0.2-0.1,0.3-0.2,0.4-0.2   c0.4,0,0.9,0.1,1.3,0.1c0.5,0,1,0,1.6,0c0.4,0,0.8-0.1,1.2-0.1c0.4,0,0.8-0.1,1.1-0.2c0.3-1,0.6-1.9,0.8-2.7   c0.3-0.8,0.5-1.3,0.7-1.6c0.1-0.1,0.2-0.2,0.4-0.3c0.2-0.1,0.5-0.1,0.7-0.2c0.3,0,0.5,0,0.7,0c0.2,0,0.4,0.1,0.5,0.2   c0.1,0.2,0.2,0.6,0.1,1.3c0,0.7-0.1,1.6-0.4,2.7c0.9,0,1.7,0,2.4,0.1c0.7,0.1,1.3,0.2,1.8,0.3c0.5,0.1,0.9,0.2,1.2,0.4   c0.3,0.1,0.5,0.2,0.7,0.2c0.2,0,0.2,0.2,0.2,0.3c0,0.2,0,0.4-0.1,0.5c-0.1,0.2-0.2,0.3-0.4,0.5c-0.2,0.1-0.4,0.2-0.6,0.1   c-0.2,0-0.5-0.1-0.7-0.1c-0.3-0.1-0.6-0.1-1-0.2s-0.8-0.1-1.3-0.1c-0.5,0-1.1-0.1-1.8-0.1c-0.1,0-0.3,0-0.4,0s-0.3,0-0.5,0   c-0.1,0.3-0.2,0.7-0.2,1c-0.1,0.3-0.2,0.7-0.3,1.1c-0.3,0.9-0.6,1.8-1,2.8c-0.3,0.9-0.7,1.9-1.2,3c-0.5,1.1-1,2.4-1.5,3.7   c-0.1,0.9-0.1,1.6,0,2.1s0.4,0.8,0.6,1.1c0.3,0.2,0.6,0.4,1,0.4c0.3,0,0.7-0.1,1.2-0.3c0.5-0.3,0.9-0.6,1.4-1.1s1-0.9,1.5-1.5   c0.5-0.5,1-1.1,1.4-1.6c0.4-0.5,0.8-1,1.1-1.4S327.7,361.2,327.8,361z"
       id="path4217" /><path
       class="st9"
       d="M351.8,362.8c-0.3,0.4-0.7,1-1.2,1.6c-0.5,0.6-1,1.3-1.5,1.9c-0.5,0.6-1,1.2-1.5,1.7c-0.5,0.5-0.9,0.9-1.2,1.1   c-0.2,0.1-0.5,0.2-0.7,0.3c-0.3,0.1-0.6,0.1-0.9,0.2c-0.3,0-0.6,0-0.8,0c-0.3-0.1-0.5-0.1-0.7-0.3c-0.2-0.2-0.4-0.4-0.5-0.6   c-0.1-0.2-0.2-0.6-0.3-0.9c-0.1-0.4-0.1-0.9-0.1-1.5c-0.5,0.9-1.1,1.5-1.7,2s-1.2,0.8-1.8,1c-0.6,0.2-1.3,0.4-1.9,0.4   c-0.3,0-0.6-0.1-1-0.3c-0.3-0.2-0.6-0.5-0.9-1c-0.2-0.4-0.4-1-0.5-1.7s0-1.5,0.3-2.5c0.3-1.3,0.8-2.5,1.4-3.6   c0.7-1.1,1.4-2,2.2-2.8c0.8-0.8,1.5-1.3,2.3-1.7c0.8-0.4,1.4-0.6,1.9-0.5c0.6,0.1,1.1,0.3,1.4,0.5c0.3,0.2,0.5,0.5,0.6,1   c0.1,0.4-0.1,1-0.5,1.7c0.3-0.1,0.6-0.1,0.8-0.1c0.2,0,0.4,0,0.5,0c0.1,0,0.2,0,0.3,0c0,0,0,0.1,0,0.3c0,0.1,0,0.4-0.1,0.8   c-0.1,0.4-0.2,0.9-0.3,1.5c-0.1,0.6-0.3,1.4-0.5,2.4c0,0.2-0.1,0.4-0.1,0.5s-0.1,0.3-0.1,0.5c0,0.2-0.1,0.4-0.1,0.6   s-0.1,0.5-0.2,0.8c0,0.2,0,0.4,0,0.6c0,0.2,0,0.4,0.1,0.6c0.1,0.2,0.2,0.4,0.3,0.5c0.1,0.1,0.3,0.2,0.6,0.2c0.2,0,0.5-0.1,0.8-0.4   c0.3-0.3,0.7-0.6,1.1-1c0.4-0.4,0.8-0.9,1.2-1.4c0.4-0.5,0.8-1,1.2-1.5c0.4-0.5,0.7-0.9,1-1.3c0.3-0.4,0.5-0.6,0.6-0.8   c0.2-0.2,0.3-0.3,0.5-0.3s0.3,0,0.4,0.1c0.1,0.1,0.1,0.3,0,0.6C352.2,362.1,352.1,362.4,351.8,362.8z M342.3,364.2   c0.1-0.4,0.2-0.9,0.4-1.5c0.2-0.6,0.3-1.1,0.4-1.7c0.1-0.5,0.2-1,0.2-1.3c0.1-0.4,0-0.5,0-0.5c-0.1,0-0.2,0.1-0.4,0.1   c-0.1,0-0.2,0.1-0.4,0.1c-0.2,0-0.3,0.1-0.5,0.1c0.2-0.3,0.3-0.6,0.3-0.9s0-0.4,0-0.5c0-0.2-0.1-0.3-0.1-0.4   c-0.2-0.2-0.7,0-1.2,0.5c-0.6,0.5-1.3,1.4-2.1,2.8c-0.3,0.6-0.6,1.2-0.8,1.8c-0.2,0.6-0.3,1.2-0.4,1.8c-0.1,0.6-0.1,1.1,0,1.5   s0.1,0.7,0.3,0.8c0.2,0.2,0.5,0.4,0.8,0.3s0.6-0.1,0.9-0.3s0.6-0.4,0.9-0.6c0.3-0.3,0.6-0.5,0.8-0.8c0.2-0.3,0.5-0.5,0.6-0.8   C342.2,364.5,342.3,364.3,342.3,364.2z"
       id="path4219" /><path
       class="st9"
       d="M364.5,368.1c0.7,0,1.4-0.3,2.2-0.8c0.8-0.5,1.6-1.1,2.4-1.9s1.5-1.4,2.1-2.2c0.6-0.7,1.1-1.3,1.4-1.8   c0.2-0.3,0.4-0.4,0.6-0.5c0.2-0.1,0.3,0,0.4,0.1c0.1,0.1,0.1,0.3,0.1,0.5c0,0.2-0.1,0.5-0.3,0.8c-0.2,0.3-0.4,0.6-0.8,1.1   s-0.8,1-1.3,1.6c-0.5,0.6-1,1.2-1.7,1.7c-0.6,0.6-1.3,1.1-1.9,1.6s-1.4,0.9-2.1,1.2s-1.4,0.5-2.1,0.5c-1,0-1.7-0.2-2.4-0.5   c-0.6-0.4-1.1-0.8-1.5-1.4c-0.4-0.6-0.6-1.2-0.8-1.9c-0.2-0.7-0.2-1.4-0.2-2c0-0.7,0.2-1.5,0.5-2.5c0.3-1,0.8-1.9,1.3-2.9   c0.6-0.9,1.3-1.7,2.3-2.4c0.9-0.7,2-1,3.2-1c0.7,0,1.3,0.2,1.8,0.7c0.5,0.5,0.7,1.1,0.7,1.9c0,0.4-0.1,0.8-0.2,1.1   c-0.1,0.4-0.3,0.7-0.5,1c-0.2,0.3-0.5,0.5-0.8,0.7c-0.3,0.2-0.6,0.3-1,0.3c-0.3,0-0.5-0.1-0.6-0.3c-0.1-0.2-0.2-0.4-0.3-0.7   c0-0.3,0-0.5,0-0.8s0.1-0.4,0.1-0.5c0.1-0.2,0.2-0.3,0.4-0.3s0.3-0.1,0.5-0.2c0.1-0.1,0.2-0.2,0.3-0.3c0.1-0.1,0.1-0.3,0.1-0.4   c0-0.2,0-0.3-0.1-0.4c-0.1-0.1-0.2-0.2-0.4-0.2s-0.5,0.2-1.1,0.5c-0.5,0.3-1,0.8-1.6,1.4c-0.5,0.6-1,1.4-1.4,2.3   c-0.4,0.9-0.6,2-0.6,3.2c0,0.7,0.1,1.3,0.3,1.7s0.5,0.8,0.8,1.1c0.3,0.3,0.7,0.4,1.1,0.6C363.7,368.1,364.1,368.1,364.5,368.1z"
       id="path4221" /><path
       class="st9"
       d="M380.6,364.1c-0.2,0.8-0.5,1.6-0.9,2.3s-0.8,1.3-1.3,1.8s-1.1,0.9-1.7,1.2c-0.6,0.3-1.3,0.4-2.1,0.4   c-0.9,0-1.6-0.2-2.1-0.6c-0.5-0.4-0.9-0.8-1.1-1.4c-0.2-0.6-0.4-1.2-0.5-1.8c-0.1-0.7-0.1-1.3-0.1-1.9c0-0.4,0-0.9,0.1-1.4   c0.1-0.5,0.2-1,0.4-1.5c0.2-0.5,0.4-1,0.7-1.6c0.3-0.5,0.6-1,1-1.4c0.1-0.4,0.3-0.7,0.6-1c0.3-0.3,0.6-0.5,0.9-0.7   c0.4-0.2,0.7-0.3,1.2-0.4c0.4-0.1,0.8-0.1,1.2-0.1c0.1,0,0.1,0,0.2,0c0.1,0,0.1,0,0.2,0.1c0.3,0,0.6,0.1,1.1,0.3   c0.4,0.2,0.8,0.5,1.2,0.9c0.4,0.4,0.7,0.9,1,1.5c0.3,0.6,0.4,1.3,0.4,2.2c0,0.2,0,0.4,0,0.6s0,0.5-0.1,0.6c0.5-0.2,1-0.4,1.6-0.7   s1.1-0.6,1.6-0.9s1-0.6,1.4-1c0.4-0.3,0.8-0.6,1-0.9c0.2-0.2,0.4-0.3,0.6-0.3c0.2,0,0.3,0,0.3,0.1c0.1,0.1,0.1,0.3,0,0.5   c0,0.2-0.2,0.4-0.4,0.6c-0.1,0.1-0.4,0.4-0.8,0.8c-0.4,0.4-1,0.8-1.6,1.3c-0.6,0.5-1.3,0.9-2,1.3S381.3,363.9,380.6,364.1z    M373.1,364.8c0,0.4,0,0.8,0.1,1.1c0,0.4,0.1,0.7,0.3,1s0.3,0.5,0.5,0.7c0.2,0.2,0.5,0.3,0.8,0.3c0.4,0,0.7-0.1,1.1-0.3   c0.3-0.2,0.6-0.4,0.9-0.7c0.3-0.3,0.5-0.6,0.7-1c0.2-0.4,0.4-0.8,0.5-1.2c-0.2,0-0.3,0-0.4,0c-0.1,0-0.3,0-0.5,0   c-0.8,0-1.5-0.2-2.1-0.7c-0.6-0.5-1.1-1.1-1.4-1.9c-0.1,0.5-0.2,0.9-0.3,1.3C373.1,364.1,373.1,364.5,373.1,364.8z M375.1,359.2   c-0.1,0.2-0.1,0.4-0.1,0.6c0,0.3,0,0.7,0.1,1.1c0,0.4,0.2,0.7,0.3,1c0.2,0.3,0.4,0.6,0.8,0.8s0.9,0.3,1.6,0.3c0.1,0,0.2,0,0.3,0   c0.1,0,0.2,0,0.3,0c0.1-0.3,0.1-0.5,0.2-0.8s0.1-0.4,0.1-0.6c0-0.4,0-0.8,0-1.3s-0.1-0.8-0.2-1.2c-0.1-0.4-0.3-0.6-0.5-0.9   s-0.4-0.3-0.7-0.3c-0.4,0-0.8,0.1-1.2,0.3S375.5,358.7,375.1,359.2z"
       id="path4223" /><path
       class="st9"
       d="M393.7,370c-0.5,0-0.9-0.1-1.3-0.3c-0.4-0.2-0.6-0.4-0.9-0.7c-0.2-0.3-0.4-0.7-0.4-1.1c-0.1-0.4,0-0.8,0.1-1.3   c0.1-0.3,0.2-0.7,0.3-1.2s0.3-1.1,0.5-1.7c0.2-0.6,0.3-1.2,0.5-1.8c0.1-0.6,0.2-1.1,0.3-1.6s0-0.9-0.1-1.2   c-0.1-0.3-0.3-0.5-0.6-0.5c-0.3,0-0.7,0.1-1.1,0.3c-0.4,0.2-0.7,0.5-1.1,0.9c-0.4,0.4-0.8,0.8-1.1,1.3c-0.4,0.5-0.8,1-1.1,1.6   c-0.2,0.7-0.4,1.4-0.5,1.9c-0.1,0.6-0.2,1-0.3,1.5c-0.1,0.4-0.2,0.8-0.3,1.2c-0.1,0.3-0.2,0.7-0.2,1c-0.1,0.2-0.3,0.4-0.6,0.6   s-0.7,0.4-1,0.5c-0.4,0.1-0.7,0.2-1,0.2c-0.3,0-0.4-0.1-0.3-0.3c0-0.1,0.1-0.4,0.2-0.9c0.1-0.5,0.3-1,0.4-1.6   c0.2-0.6,0.3-1.3,0.5-2c0.2-0.7,0.3-1.3,0.5-2c0.1-0.5,0.2-1,0.4-1.7c0.1-0.5,0.2-1.1,0.4-1.8s0.4-1.4,0.6-2.3   c0.2-0.1,0.3-0.2,0.5-0.3c0.2-0.1,0.3-0.1,0.5-0.2c0.2-0.1,0.4-0.1,0.6-0.1c0.2,0,0.3,0,0.5,0c0.2,0,0.3,0.1,0.5,0.1   c0.2,0.1,0.3,0.1,0.4,0.2c-0.1,0.2-0.1,0.4-0.2,0.6c-0.1,0.3-0.2,0.6-0.3,0.9c-0.1,0.3-0.2,0.7-0.3,1.1c0.3-0.4,0.6-0.8,1-1.2   c0.4-0.4,0.7-0.8,1.2-1.1c0.4-0.3,0.9-0.6,1.3-0.8c0.5-0.2,1-0.3,1.5-0.3c0.4,0,0.8,0.1,1.1,0.4s0.6,0.6,0.8,1   c0.2,0.4,0.3,0.9,0.3,1.5c0,0.6,0,1.2-0.2,1.9l-0.4,1.4c-0.1,0.5-0.2,1-0.4,1.6c-0.2,0.6-0.4,1.3-0.6,2c-0.1,0.5-0.2,0.9-0.1,1.2   c0,0.3,0.2,0.5,0.6,0.5s0.9-0.2,1.5-0.7c0.6-0.5,1.2-1,1.8-1.7c0.6-0.7,1.2-1.4,1.7-2.1c0.5-0.7,1-1.3,1.2-1.7   c0.2-0.3,0.4-0.5,0.6-0.6c0.2-0.1,0.3-0.1,0.4,0c0.1,0.1,0.1,0.2,0.1,0.4s-0.1,0.5-0.3,0.9c-0.2,0.3-0.4,0.7-0.7,1.2   c-0.3,0.5-0.7,1-1.1,1.6c-0.4,0.6-0.9,1.1-1.4,1.7s-1,1.1-1.6,1.6c-0.5,0.5-1.1,0.8-1.6,1.1S394.2,370,393.7,370z"
       id="path4225" /><path
       class="st9"
       d="M400.1,365.9c-0.2-0.2-0.4-0.5-0.5-0.7c-0.1-0.2-0.2-0.4-0.2-0.7c0-0.2,0-0.5,0-0.7c0.1-0.3,0.2-0.6,0.4-0.8   c0.2-0.2,0.4-0.5,0.6-0.7c0.3-0.2,0.6-0.5,1-0.7c0.3-0.7,0.5-1.4,0.8-2.2c0.2-0.8,0.4-1.5,0.6-2.1c0.2-0.7,0.4-1.5,0.5-2.2   c0.5-1.8,0.8-3.3,0.8-4.5c0-1.2,0-1.9-0.1-2.3c0-0.2,0-0.3-0.1-0.5c0-0.1-0.1-0.3-0.1-0.4c0-0.2-0.1-0.3-0.1-0.5   c0.2-0.1,0.4-0.2,0.6-0.3s0.3-0.2,0.5-0.2c0.2-0.1,0.3-0.1,0.4-0.1c0.5-0.1,1-0.2,1.4-0.2c0.4,0,0.7,0.1,0.7,0.2   c0,0.1,0,0.3,0.1,0.6c0,0.3,0,0.6,0,1c0,0.4,0,0.9-0.1,1.4c-0.1,0.5-0.2,1-0.4,1.6c-0.2,0.5-0.4,1.2-0.6,2.1   c-0.2,0.8-0.6,1.8-0.9,3c-0.4,1.3-0.9,2.9-1.5,4.8c0.6-0.2,1.4-0.4,2.1-0.6c0.8-0.2,1.6-0.4,2.4-0.5c0.8-0.1,1.6-0.2,2.4-0.3   c0.8-0.1,1.6-0.1,2.3,0c0.1,0,0.2,0.1,0.3,0.2c0.1,0.1,0.1,0.2,0,0.4c-0.1,0.1-0.2,0.3-0.4,0.4s-0.4,0.2-0.8,0.2   c-0.4,0-0.9,0.1-1.4,0.1c-0.5,0.1-1.1,0.1-1.6,0.2c-0.6,0.1-1.1,0.2-1.6,0.4c-0.5,0.1-1,0.3-1.5,0.5c-0.4,0.1-0.7,0.3-1.1,0.4   c-0.3,0.1-0.6,0.2-1,0.4s-0.6,0.3-0.8,0.4l-0.7,2.4c1.3,0.9,2.2,1.8,2.9,2.7c0.7,0.9,1.2,1.8,1.5,2.6c0.4,0.9,0.6,1.8,0.6,2.7   c0,0.9-0.1,1.9-0.4,2.9c-0.3,1-0.7,1.9-1.1,2.8c-0.5,0.9-1,1.7-1.6,2.4c-0.6,0.8-1.3,1.4-1.9,1.9s-1.4,0.9-2.1,1.2s-1.4,0.4-2,0.3   c-0.5,0-0.8-0.2-1.1-0.4c-0.3-0.2-0.5-0.6-0.7-0.9c-0.2-0.4-0.2-0.8-0.3-1.3s0-0.9,0.1-1.4c0.1-0.5,0.3-1.3,0.6-2.5   c0.2-1,0.6-2.5,1.1-4.5C398.5,371.8,399.2,369.1,400.1,365.9z M402,367.4c-0.3,1.1-0.6,2.1-0.8,3c-0.2,0.9-0.4,1.7-0.6,2.4   c-0.2,0.8-0.3,1.5-0.5,2.2c-0.2,0.8-0.4,1.6-0.6,2.4c-0.2,0.8-0.4,1.5-0.5,2.2s-0.2,1.1-0.1,1.5c0,0.4,0.2,0.6,0.4,0.6   c0.6,0,1.3-0.2,2-0.7c0.7-0.5,1.3-1.2,1.9-2c0.6-0.8,1-1.7,1.4-2.6s0.6-1.8,0.6-2.6c0-0.9-0.1-1.8-0.4-2.6   c-0.2-0.5-0.4-0.9-0.7-1.3c-0.2-0.4-0.5-0.8-0.9-1.2C402.8,368.1,402.4,367.7,402,367.4z"
       id="path4227" /><path
       class="st9"
       d="M424.9,362.5c-0.6,0.9-1.4,1.9-2.2,2.8c-0.8,0.9-1.7,1.7-2.6,2.4c-0.9,0.7-1.9,1.3-2.8,1.7   c-1,0.4-1.9,0.6-2.8,0.6c-0.5,0-1-0.1-1.5-0.3c-0.6-0.2-1.1-0.6-1.5-1.1c-0.5-0.5-0.8-1.1-1.1-1.8c-0.3-0.8-0.4-1.7-0.2-2.8   c0.1-0.9,0.4-1.8,0.8-2.8c0.5-1,1-1.9,1.7-2.7c0.7-0.8,1.4-1.5,2.3-2s1.7-0.8,2.6-0.8c0.8,0,1.4,0.2,1.8,0.6   c0.4,0.4,0.5,0.9,0.5,1.5c-0.1,0.7-0.3,1.3-0.6,1.8c-0.3,0.6-0.7,1.1-1.1,1.5c-0.4,0.5-0.9,0.9-1.4,1.2c-0.5,0.4-0.9,0.7-1.4,1   c-0.5,0.3-0.9,0.6-1.4,0.9s-0.8,0.6-1.1,0.8c0,0.5,0.1,1,0.3,1.4c0.2,0.4,0.4,0.7,0.6,0.9c0.3,0.2,0.6,0.4,0.9,0.5   c0.3,0.1,0.7,0.1,1,0.1c0.7,0,1.5-0.2,2.3-0.7c0.8-0.5,1.6-1,2.3-1.7c0.8-0.7,1.5-1.3,2.1-2.1c0.7-0.7,1.2-1.3,1.6-1.8   c0.2-0.2,0.3-0.3,0.5-0.3s0.3,0,0.4,0.1c0.1,0.1,0.1,0.2,0.1,0.4S425,362.2,424.9,362.5z M416.6,357.5c-0.3,0-0.6,0.1-0.9,0.4   s-0.7,0.6-1.1,1.1s-0.7,1.1-1,1.8c-0.3,0.7-0.5,1.5-0.7,2.4c0.3-0.2,0.5-0.4,0.8-0.6s0.6-0.4,0.9-0.7c0.9-0.7,1.6-1.3,1.9-1.9   c0.4-0.5,0.6-1,0.6-1.4c0-0.4,0-0.7-0.1-0.9S416.8,357.5,416.6,357.5z"
       id="path4229" /><path
       class="st9"
       d="M421.3,369.1c-0.2,0.2-0.3,0.4-0.5,0.5c-0.2,0.1-0.3,0.1-0.5,0c-0.1-0.1-0.2-0.2-0.3-0.3c0-0.2,0-0.4,0.1-0.6   c0.1-0.1,0.2-0.4,0.4-0.9s0.5-1,0.8-1.6c0.3-0.6,0.7-1.3,1-2.1s0.7-1.5,1.1-2.1c0.3-0.7,0.6-1.3,0.9-1.8c0.3-0.5,0.5-0.9,0.6-1.1   c-0.2-0.2-0.4-0.4-0.5-0.5c-0.1-0.1-0.2-0.3-0.2-0.6c0-0.3,0-0.6,0.2-1.1c0.2-0.5,0.4-0.9,0.7-1.3c0.3-0.4,0.6-0.8,0.9-1.1   c0.3-0.3,0.7-0.5,1-0.5c0.6,0,1,0.2,1.3,0.6c0.2,0.4,0.4,0.8,0.4,1.2c0,0.3,0,0.6-0.1,1.1c-0.1,0.4-0.2,0.8-0.5,1.2   c0.1,0,0.2,0.1,0.3,0.1s0.3,0.1,0.5,0.1c0.3,0,0.6,0,0.7-0.1s0.4-0.1,0.7-0.1c0.4,0,0.7,0.1,0.9,0.3c0.2,0.2,0.4,0.4,0.6,0.7   s0.3,0.6,0.3,0.9c0.1,0.3,0.1,0.6,0.1,0.9c0.1,0.5-0.1,1.1-0.4,1.7c-0.3,0.6-0.8,1.2-1.3,1.9c-0.3,0.4-0.6,0.9-0.9,1.5   c-0.3,0.5-0.4,1-0.4,1.5c0,0.3,0.1,0.5,0.2,0.7c0.1,0.2,0.4,0.3,0.9,0.3c0.4,0,0.8-0.1,1.2-0.4c0.4-0.3,0.9-0.6,1.4-1   c0.5-0.4,0.9-0.9,1.4-1.4c0.5-0.5,0.9-1,1.3-1.5c0.4-0.5,0.7-0.9,1-1.3c0.3-0.4,0.5-0.7,0.6-0.8c0.1-0.2,0.2-0.3,0.4-0.4   s0.3-0.1,0.5,0s0.2,0.2,0.2,0.4c0,0.2,0,0.5-0.2,0.8c-0.1,0.2-0.4,0.6-0.7,1c-0.3,0.5-0.7,1-1.1,1.6c-0.4,0.6-0.9,1.2-1.5,1.8   c-0.5,0.6-1.1,1.2-1.7,1.7c-0.6,0.5-1.2,0.9-1.8,1.2c-0.6,0.3-1.2,0.5-1.7,0.5c-0.6,0-1-0.1-1.4-0.3s-0.7-0.5-0.9-0.8   c-0.2-0.3-0.4-0.7-0.5-1c-0.1-0.4-0.1-0.7-0.1-1.1c0-0.3,0.1-0.5,0.2-0.8c0.1-0.3,0.3-0.6,0.4-0.9c0.2-0.3,0.3-0.6,0.5-0.9   s0.4-0.6,0.5-0.9c0.4-0.6,0.7-1.2,0.9-1.6c0.2-0.4,0.3-0.8,0.3-1.1c0-0.2,0-0.4-0.1-0.5c-0.1-0.2-0.2-0.2-0.4-0.2   c-0.1,0-0.2,0-0.3,0c-0.1,0-0.1,0-0.2,0s-0.1,0-0.2,0c-0.1,0-0.2,0-0.4,0c-0.3,0-0.5,0-0.7-0.1c-0.2-0.1-0.4-0.2-0.6-0.2   c-0.1,0.2-0.3,0.5-0.6,1s-0.7,1.1-1.1,1.7c-0.4,0.7-0.8,1.4-1.3,2.1c-0.4,0.7-0.9,1.4-1.2,2.1c-0.4,0.6-0.7,1.2-1,1.6   C421.5,368.7,421.4,369,421.3,369.1z"
       id="path4231" /><path
       class="st9"
       d="M450.7,362.5c-0.6,0.9-1.4,1.9-2.2,2.8c-0.8,0.9-1.7,1.7-2.6,2.4c-0.9,0.7-1.9,1.3-2.8,1.7   c-1,0.4-1.9,0.6-2.8,0.6c-0.5,0-1-0.1-1.5-0.3s-1.1-0.6-1.5-1.1c-0.5-0.5-0.8-1.1-1.1-1.8s-0.4-1.7-0.2-2.8   c0.1-0.9,0.4-1.8,0.8-2.8c0.5-1,1-1.9,1.7-2.7c0.7-0.8,1.4-1.5,2.3-2c0.9-0.5,1.7-0.8,2.6-0.8c0.8,0,1.4,0.2,1.8,0.6   c0.4,0.4,0.5,0.9,0.5,1.5c-0.1,0.7-0.3,1.3-0.6,1.8c-0.3,0.6-0.7,1.1-1.1,1.5c-0.4,0.5-0.9,0.9-1.4,1.2c-0.5,0.4-0.9,0.7-1.4,1   c-0.5,0.3-0.9,0.6-1.4,0.9c-0.4,0.3-0.8,0.6-1.1,0.8c0,0.5,0.1,1,0.3,1.4c0.2,0.4,0.4,0.7,0.6,0.9c0.3,0.2,0.6,0.4,0.9,0.5   c0.3,0.1,0.7,0.1,1,0.1c0.7,0,1.5-0.2,2.3-0.7c0.8-0.5,1.6-1,2.4-1.7c0.8-0.7,1.5-1.3,2.1-2.1s1.2-1.3,1.6-1.8   c0.2-0.2,0.3-0.3,0.5-0.3s0.3,0,0.4,0.1c0.1,0.1,0.1,0.2,0.1,0.4S450.9,362.2,450.7,362.5z M442.4,357.5c-0.3,0-0.6,0.1-0.9,0.4   s-0.7,0.6-1.1,1.1c-0.3,0.5-0.7,1.1-1,1.8c-0.3,0.7-0.5,1.5-0.7,2.4c0.3-0.2,0.5-0.4,0.8-0.6c0.3-0.2,0.6-0.4,0.9-0.7   c0.9-0.7,1.6-1.3,1.9-1.9s0.6-1,0.6-1.4c0-0.4,0-0.7-0.1-0.9C442.8,357.6,442.7,357.5,442.4,357.5z"
       id="path4233" /><path
       class="st9"
       d="M458,370c-0.5,0-0.9-0.1-1.3-0.3c-0.4-0.2-0.6-0.4-0.9-0.7c-0.2-0.3-0.4-0.7-0.4-1.1c-0.1-0.4,0-0.8,0.1-1.3   c0.1-0.3,0.2-0.7,0.3-1.2s0.3-1.1,0.5-1.7c0.2-0.6,0.3-1.2,0.5-1.8c0.1-0.6,0.2-1.1,0.3-1.6s0-0.9-0.1-1.2   c-0.1-0.3-0.3-0.5-0.6-0.5c-0.3,0-0.7,0.1-1.1,0.3c-0.4,0.2-0.7,0.5-1.1,0.9c-0.4,0.4-0.8,0.8-1.1,1.3c-0.4,0.5-0.8,1-1.1,1.6   c-0.2,0.7-0.4,1.4-0.5,1.9c-0.1,0.6-0.2,1-0.3,1.5c-0.1,0.4-0.2,0.8-0.3,1.2c-0.1,0.3-0.2,0.7-0.2,1c-0.1,0.2-0.3,0.4-0.6,0.6   s-0.7,0.4-1,0.5c-0.4,0.1-0.7,0.2-1,0.2c-0.3,0-0.4-0.1-0.3-0.3c0-0.1,0.1-0.4,0.2-0.9c0.1-0.5,0.3-1,0.4-1.6   c0.2-0.6,0.3-1.3,0.5-2c0.2-0.7,0.3-1.3,0.5-2c0.1-0.5,0.2-1,0.4-1.7c0.1-0.5,0.2-1.1,0.4-1.8s0.4-1.4,0.6-2.3   c0.2-0.1,0.3-0.2,0.5-0.3c0.2-0.1,0.3-0.1,0.5-0.2c0.2-0.1,0.4-0.1,0.6-0.1c0.2,0,0.3,0,0.5,0c0.2,0,0.3,0.1,0.5,0.1   c0.2,0.1,0.3,0.1,0.4,0.2c-0.1,0.2-0.1,0.4-0.2,0.6c-0.1,0.3-0.2,0.6-0.3,0.9c-0.1,0.3-0.2,0.7-0.3,1.1c0.3-0.4,0.6-0.8,1-1.2   c0.4-0.4,0.7-0.8,1.2-1.1c0.4-0.3,0.9-0.6,1.3-0.8c0.5-0.2,1-0.3,1.5-0.3c0.4,0,0.8,0.1,1.1,0.4s0.6,0.6,0.8,1   c0.2,0.4,0.3,0.9,0.3,1.5c0,0.6,0,1.2-0.2,1.9l-0.4,1.4c-0.1,0.5-0.2,1-0.4,1.6c-0.2,0.6-0.4,1.3-0.6,2c-0.1,0.5-0.2,0.9-0.1,1.2   c0,0.3,0.2,0.5,0.6,0.5s0.9-0.2,1.5-0.7c0.6-0.5,1.2-1,1.8-1.7c0.6-0.7,1.2-1.4,1.7-2.1c0.5-0.7,1-1.3,1.2-1.7   c0.2-0.3,0.4-0.5,0.6-0.6c0.2-0.1,0.3-0.1,0.4,0c0.1,0.1,0.1,0.2,0.1,0.4s-0.1,0.5-0.3,0.9c-0.2,0.3-0.4,0.7-0.7,1.2   c-0.3,0.5-0.7,1-1.1,1.6c-0.4,0.6-0.9,1.1-1.4,1.7s-1,1.1-1.6,1.6c-0.5,0.5-1.1,0.8-1.6,1.1S458.5,370,458,370z"
       id="path4235" /><path
       class="st9"
       d="M469.2,368.1c0.7,0,1.4-0.3,2.2-0.8s1.6-1.1,2.4-1.9c0.8-0.7,1.5-1.4,2.1-2.2c0.6-0.7,1.1-1.3,1.4-1.8   c0.2-0.3,0.4-0.4,0.6-0.5c0.2-0.1,0.3,0,0.4,0.1c0.1,0.1,0.1,0.3,0.1,0.5s-0.1,0.5-0.3,0.8c-0.2,0.3-0.4,0.6-0.8,1.1   s-0.8,1-1.3,1.6c-0.5,0.6-1,1.2-1.7,1.7c-0.6,0.6-1.3,1.1-1.9,1.6c-0.7,0.5-1.4,0.9-2.1,1.2c-0.7,0.3-1.4,0.5-2.1,0.5   c-1,0-1.7-0.2-2.4-0.5c-0.6-0.4-1.1-0.8-1.5-1.4c-0.4-0.6-0.6-1.2-0.8-1.9c-0.2-0.7-0.2-1.4-0.2-2c0-0.7,0.2-1.5,0.5-2.5   s0.8-1.9,1.3-2.9c0.6-0.9,1.3-1.7,2.3-2.4s2-1,3.2-1c0.7,0,1.3,0.2,1.8,0.7c0.5,0.5,0.7,1.1,0.7,1.9c0,0.4-0.1,0.8-0.2,1.1   c-0.1,0.4-0.3,0.7-0.5,1c-0.2,0.3-0.5,0.5-0.8,0.7c-0.3,0.2-0.6,0.3-1,0.3c-0.3,0-0.5-0.1-0.6-0.3c-0.1-0.2-0.2-0.4-0.3-0.7   c0-0.3,0-0.5,0-0.8s0.1-0.4,0.1-0.5c0.1-0.2,0.2-0.3,0.4-0.3c0.1-0.1,0.3-0.1,0.5-0.2c0.1-0.1,0.2-0.2,0.3-0.3   c0.1-0.1,0.1-0.3,0.1-0.4c0-0.2,0-0.3-0.1-0.4c-0.1-0.1-0.2-0.2-0.4-0.2c-0.2,0-0.5,0.2-1.1,0.5c-0.5,0.3-1,0.8-1.6,1.4   c-0.5,0.6-1,1.4-1.4,2.3c-0.4,0.9-0.6,2-0.6,3.2c0,0.7,0.1,1.3,0.3,1.7c0.2,0.5,0.5,0.8,0.8,1.1c0.3,0.3,0.7,0.4,1.1,0.6   S468.9,368.1,469.2,368.1z"
       id="path4237" /><path
       class="st9"
       d="M490.5,362.5c-0.6,0.9-1.4,1.9-2.2,2.8c-0.8,0.9-1.7,1.7-2.6,2.4s-1.9,1.3-2.8,1.7c-1,0.4-1.9,0.6-2.8,0.6   c-0.5,0-1-0.1-1.5-0.3c-0.6-0.2-1.1-0.6-1.5-1.1c-0.5-0.5-0.8-1.1-1.1-1.8c-0.3-0.8-0.4-1.7-0.2-2.8c0.1-0.9,0.4-1.8,0.8-2.8   c0.5-1,1-1.9,1.7-2.7c0.7-0.8,1.4-1.5,2.3-2s1.7-0.8,2.6-0.8c0.8,0,1.4,0.2,1.8,0.6c0.4,0.4,0.5,0.9,0.5,1.5   c-0.1,0.7-0.3,1.3-0.6,1.8c-0.3,0.6-0.7,1.1-1.1,1.5c-0.4,0.5-0.9,0.9-1.4,1.2c-0.5,0.4-0.9,0.7-1.4,1c-0.5,0.3-0.9,0.6-1.4,0.9   c-0.4,0.3-0.8,0.6-1.1,0.8c0,0.5,0.1,1,0.3,1.4c0.2,0.4,0.4,0.7,0.6,0.9c0.3,0.2,0.6,0.4,0.9,0.5c0.3,0.1,0.7,0.1,1,0.1   c0.7,0,1.5-0.2,2.3-0.7c0.8-0.5,1.6-1,2.3-1.7c0.8-0.7,1.5-1.3,2.1-2.1s1.2-1.3,1.6-1.8c0.2-0.2,0.3-0.3,0.5-0.3s0.3,0,0.4,0.1   c0.1,0.1,0.1,0.2,0.1,0.4S490.6,362.2,490.5,362.5z M482.2,357.5c-0.3,0-0.6,0.1-0.9,0.4c-0.4,0.3-0.7,0.6-1.1,1.1   c-0.3,0.5-0.7,1.1-1,1.8c-0.3,0.7-0.5,1.5-0.7,2.4c0.3-0.2,0.5-0.4,0.8-0.6s0.6-0.4,0.9-0.7c0.9-0.7,1.6-1.3,1.9-1.9   c0.4-0.5,0.6-1,0.6-1.4c0-0.4,0-0.7-0.1-0.9C482.6,357.6,482.4,357.5,482.2,357.5z"
       id="path4239" /></g><g
     id="g4241"><g
       id="g4243"><path
         class="st10"
         d="M387,109.1c0-11.9-13.7-21.6-29.5-21.6c-15.8,0-29.5,9.7-29.5,21.6c0,0,0,0,0,0l0,0v28.9l59-4.6V109.1    L387,109.1C387,109.1,387,109.1,387,109.1z"
         id="path4245" /></g><path
       class="st11"
       d="M387,130.8c0-1.8-13.7-3.3-29.5-3.3c-15.8,0-29.5,1.5-29.5,3.3c0,0,0,0,0,0l0.6-0.7l0.5,2.9h57.1l0.4-2.9   L387,130.8C387,130.8,387,130.8,387,130.8z"
       id="path4247" /><path
       class="st10"
       d="M367,93.1c6.2,2.1,10.9,6.3,12.9,10.8c0-4.7-4.4-9.7-10.9-11.9c-4.2-1.5-8.5-1.4-11.7-0.3   C360.4,91.5,363.7,91.9,367,93.1z"
       id="path4249" /><path
       class="st10"
       d="M372.7,144.9c3.5-0.5,16.9-1.3,22.5-6c1.6-1.4,4.8-3.3,4.2-5.9c-0.7-3.3-5.1-3.4-7.6-2.9   c-3.2,0.6-6,2.1-9.2,2.6c-4.5,0.7-8.8,1-13.4,1c-17.3-0.2-34.2-0.8-51.2-3.7l0,0c-8,1.2,4.6,11.1,6.8,12.3   C324.7,142.2,330.4,145.7,372.7,144.9z"
       id="path4251" /><path
       class="st12"
       d="M359.5,136.3c-25.6,0.4-24.4-2.5-41.4-5.2l0,0c-8,1.1,4.6,10.3,6.7,11.3c0,0,5.7,3.2,47.8,2.5   c3.5-0.5,16.8-1.2,22.4-5.5c1.6-1.3,5.4-2.7,4.2-5.5C398,131.2,385.2,135.9,359.5,136.3z"
       id="path4253" /><ellipse
       class="st11"
       cx="358.9"
       cy="140.7"
       rx="28.7"
       ry="2.8"
       id="ellipse4255" /></g><g
     id="g4257"><path
       class="st13"
       d="M43.6,137.4H113V161H71.7v20.4h35.4V205H71.7v39.1H43.6V137.4z"
       id="path4259" /><path
       class="st13"
       d="M121.1,190.2c0-35.1,20-54.8,49.5-54.8c29.5,0,49.5,19.9,49.5,54.8c0,35.1-20,55.8-49.5,55.8   C141.1,246,121.1,225.3,121.1,190.2z M191.2,190.2c0-19.4-7.9-30.5-20.6-30.5c-12.8,0-20.6,11.2-20.6,30.5   c0,19.4,7.9,31.5,20.6,31.5C183.3,221.7,191.2,209.6,191.2,190.2z"
       id="path4261" /><path
       class="st13"
       d="M244.5,211.4c7.5,6.1,17,10.3,24.9,10.3c8.5,0,12.1-2.8,12.1-7.6c0-5.1-5.4-6.7-14.4-10.3l-13.3-5.6   c-11.5-4.6-21.5-14.3-21.5-29.7c0-18.2,16.4-33.2,39.7-33.2c12.1,0,25.6,4.6,35.4,14.3l-14.1,17.7c-7.2-5.1-13.4-7.7-21.3-7.7   c-6.9,0-11.1,2.5-11.1,7.2c0,5.1,6.1,6.9,15.7,10.7l12.9,5.1c13.3,5.3,20.8,14.4,20.8,29.2c0,18.1-15.1,34.1-41.6,34.1   c-13.4,0-28.8-4.9-40.3-15.3L244.5,211.4z"
       id="path4263" /><path
       class="st13"
       d="M374,138.3c6.7,2.3,13.1,6.1,18.4,11.4l-14.1,17.7c-7.2-5.1-13.4-7.7-21.3-7.7c-6.9,0-11.1,2.5-11.1,7.2   c0,5.1,6.1,6.9,15.7,10.7l12.9,5.1c13.3,5.3,20.8,14.4,20.8,29.2c0,18.1-15.1,34.1-41.6,34.1c-13.4,0-28.8-4.9-40.3-15.3l16.1-19.4   c7.5,6.1,17,10.3,24.9,10.3c8.5,0,12.1-2.8,12.1-7.6c0-5.1-5.4-6.7-14.4-10.3l-13.3-5.6c-11.5-4.6-21.5-14.3-21.5-29.7   c0-13.1,8.5-24.5,21.9-29.9c0,0,12.2-0.7,18.1-0.8C363.2,137.9,374,138.3,374,138.3z"
       id="path4265" /><path
       class="st14"
       d="M481.4,220.8h-11.1v23.3H444v-23.3h-44.2v-19.7l35.4-61.1h35.1v59.4h11.1V220.8z M444,199.4v-11.8   c0-7.1,0.7-17.6,1-24.6h-0.7c-2.6,6.2-5.6,12.5-8.5,18.7l-9.5,17.7H444z"
       id="path4267" /><path
       class="st14"
       d="M541.9,135.4c15.1,0,26.5,6.6,34.1,14.1l-15.4,17.4c-5.2-4.6-9.8-7.2-18.4-7.2c-14.4,0-25.2,11.5-25.2,30.9   c0,20,8.8,31.2,27.9,31.2c3,0,6.2-0.7,8.2-2V205h-15.7v-23h40.6v50.9c-7.9,6.6-21.6,13.1-36.7,13.1c-29.2,0-53.1-18.1-53.1-54.5   C488.1,155.8,512.7,135.4,541.9,135.4z"
       id="path4269" /></g><g
     id="_x32_015"><text
       xml:space="preserve"
       style="font-style:normal;font-weight:normal;line-height:0%;font-family:sans-serif;letter-spacing:0px;word-spacing:0px;fill:#459939;fill-opacity:1;stroke:none"
       x="335.20667"
       y="297.01346"
       id="text4305"
       transform="scale(0.9661354,1.0350516)"><tspan
         sodipodi:role="line"
         id="tspan4307"
         x="335.20667"
         y="297.01346"
         style="font-style:normal;font-variant:normal;font-weight:bold;font-stretch:normal;font-size:58.91441727px;line-height:1.25;font-family:'DejaVu Sans';-inkscape-font-specification:'DejaVu Sans Bold';fill:#ffffff;fill-opacity:1">2018</tspan></text>
</g><g
     id="BELGIUM"><path
       class="st15"
       d="M44.1,262h16.6c9.6,0,17.4,2.4,17.4,11.4c0,3.9-2.3,8.4-7.6,9.8v0.3c6.5,1.3,9.8,4.6,9.8,10.7   c0,9.4-8.2,13.5-18.1,13.5h-18V262z M60.4,279.9c4,0,5.8-2,5.8-4.8c0-2.8-1.8-3.9-5.8-3.9h-4.1v8.7H60.4z M61.3,298.3   c4.8,0,7.1-1.8,7.1-5.2s-2.3-4.8-7.1-4.8h-5v10H61.3z"
       id="path4281" /><path
       class="st15"
       d="M85.7,262h29.7v10.1H97.9v7.2h15v10.1h-15v8.1h18.3v10.1H85.7V262z"
       id="path4283" /><path
       class="st15"
       d="M123.3,262h12.2v35.5h17.4v10.1h-29.6V262z"
       id="path4285" /><path
       class="st15"
       d="M177.4,261.1c6.5,0,11.5,2.8,14.7,6l-6.7,7.4c-2.3-2-4.2-3.1-7.9-3.1c-6.2,0-10.9,4.9-10.9,13.2   c0,8.6,3.8,13.3,12,13.3c1.3,0,2.7-0.3,3.5-0.8v-6.3h-6.8V281H193v21.7c-3.4,2.8-9.3,5.6-15.9,5.6c-12.6,0-22.9-7.7-22.9-23.3   C154.2,269.8,164.8,261.1,177.4,261.1z"
       id="path4287" /><path
       class="st15"
       d="M200.1,262h12.2v45.6h-12.2V262z"
       id="path4289" /><path
       class="st15"
       d="M220.5,262h12.2v25c0,8.1,2.1,11.1,6.9,11.1c4.8,0,7.1-2.9,7.1-11.1v-25h11.8v23.6c0,15.6-5.9,22.9-18.8,22.9   c-12.9,0-19.1-7.3-19.1-22.9V262z"
       id="path4291" /><path
       class="st15"
       d="M266.5,262h12.6l7.2,18.9l2.5,7.4h0.3l2.5-7.4l6.9-18.9h12.6v45.6h-11.3v-13.5c0-4.6,1-11.7,1.6-16.3h-0.3   l-3.8,10.7l-6.4,15.4h-4.5l-6.4-15.4l-3.7-10.7h-0.3c0.6,4.6,1.6,11.6,1.6,16.3v13.5h-11.2V262z"
       id="path4293" /></g><text
     transform="matrix(1.0108,0,0,1,322.9494,307.5451)"
     class="st16 st17 st18 st19"
     id="text4295"
     style="font-size:72.11229706px;line-height:0%;font-family:SourceSansPro-Black;letter-spacing:-1;display:none;fill:#4cae3f">2015</text>
<text
     transform="matrix(0.7065,0,0,0.7,39.0373,307.5451)"
     class="st20 st17 st21 st22"
     id="text4297"
     style="font-size:100.18409729px;line-height:0%;font-family:SourceSansPro-Black;display:none;fill:#979797">belgium</text>
</svg>