<?xml version="1.0" encoding="utf-8" standalone="no"?>
<svg xmlns:dc="http://purl.org/dc/elements/1.1/" xmlns:cc="http://creativecommons.org/ns#" xmlns:rdf="http://www.w3.org/1999/02/22-rdf-syntax-ns#" xmlns:svg="http://www.w3.org/2000/svg" xmlns="http://www.w3.org/2000/svg" id="svg35" version="1.1" viewBox="0 0 186 186">
  <metadata id="metadata39">
    
  </metadata>
  <defs id="defs17">
  </defs>
    <g id="g31" transform="scale(1.5)">
      <g id="g23" transform="translate(70,93)">
        <g id="g21" transform="scale(0.7,-0.7)">
          <path d="m 0,0 -0.4617,0.6242 -0.6339,0.5488 -0.356,0.4413 -0.629,0.6429 -0.3538,0.4884 -0.2531,0.6248 0.0315,0.6585 0.0473,0.9876 0.0831,0.7503 0.9589,1.3212 0.7328,1.5205 0.6159,1.0548 0.4729,1.0145 0.4705,0.9675 0.2914,1.1645 0.1505,1.1712 0.0448,0.9406 0.1301,0.748 -0.1006,0.8536 0.0989,1.0794 0.8448,1.8921 0.269,1.6844 0.0722,1.5049 0.1392,1.9261 -0.1428,1.9395 -0.1766,2.224 -0.3019,1.5702 -0.4051,1.3864 -0.6806,1.5409 -0.7619,1.8042 0.1692,0.5811 0.4926,0.4479 0.813,0.2441 0.726,0.3895 1.4357,1.4397 1.1583,1.5474 0.4773,1.1084 0.0519,1.0817 -0.0244,1.4626 -0.3603,1.3371 -0.5573,1.158 -0.5777,0.7347 -0.627,0.69 -0.4141,1.1985 -0.6401,1.3975 -0.703,1.0706 -0.7007,1.118 -0.2866,0.9093 -0.2775,1.0973 -0.7163,1.7785 -0.5687,0.9229 -0.8461,1.0304 -0.9473,0.8938 -1.0503,0.7104 -0.9158,0.5624 -1.0636,0.428 -0.8308,0.3696 -0.7436,0.2242 -0.5958,0.3583 -0.6874,0.4102 -0.356,0.4414 0.0246,0.5173 -0.0266,0.4255 0.0269,0.5644 0.0493,0.0447 0.8266,0.5262 1.9936,1.2716 0.8915,0.9003 0.8915,0.9 0.3609,0.6426 0.1009,1.1265 -0.0491,0.9453 -0.1071,0.7121 -0.0292,0.3787 0.0606,0.2798 0.26,0.5062 0.6383,0.5349 0.3161,0.6923 0.2733,0.788 0.0337,0.7055 0.0763,0.6092 0.6295,0.347 0.5579,0.822 0.2489,1.2609 0.0516,1.0817 -0.2506,0.6718 -0.2237,1.2364 -0.2866,0.9094 -0.1094,0.665 -0.1142,0.5712 0.036,0.7526 -0.4544,1.3416 -0.7498,1.0729 -0.5374,0.5916 -0.9182,0.5154 -0.7526,0.036 -0.7055,0.0337 -0.7053,0.0337 -0.6539,0.1256 -0.7078,-0.0133 -0.3158,0.2979 -0.3203,0.2038 -0.6965,0.222 -0.6562,0.0785 -0.6046,0.1703 -0.8913,0.0899 -0.7055,0.0337 -0.8935,0.0428 -0.7571,-0.0581 -0.6832,-0.4858 -0.9966,-0.1409 -0.9006,-0.0984 -0.665,-0.1097 -0.9967,-0.1409 -1.0618,-0.5147 -0.1165,-0.4658 -0.4099,-0.6876 -0.8402,-0.8082 -0.5533,-0.7277 -0.0474,-0.9878 0.0202,-0.5667 -0.1301,-0.748 -0.4907,-0.4006 -0.6585,-0.9587 -0.1726,-0.6516 0.0133,-0.7076 -0.0876,-0.8444 0.0178,-0.6137 -0.034,-0.7056 0.112,-0.6179 0.2081,-0.5757 0.1658,-0.4794 0.0422,-1.0862 0.1162,-0.5241 0.2532,-0.6248 0.0601,-0.7101 0.1454,-0.9025 -0.4054,-0.5936 -0.1391,-0.936 0.0178,-0.6137 0.3626,-0.3002 0.4592,-0.2576 0.6001,-0.2645 0.1723,-0.3382 0.2395,-0.9071 -0.036,-0.7526 -0.2712,-0.7412 -0.5868,-0.4434 -0.8084,-0.1499 -0.4771,-0.1185 -0.8019,-0.009 -0.5219,-0.0692 -0.5666,-0.0201 -0.6137,-0.0178 -0.6585,0.0314 -0.7591,-0.1049 -0.6676,-0.1567 -0.8022,-0.3337 -0.7971,-0.5796 -0.6316,-0.3941 -0.7438,-0.7659 -0.4569,-0.6851 -0.6497,-0.7705 -0.6027,-0.7724 -0.6182,-0.5684 -1.0956,-0.7639 -1.1497,-0.8144 -0.7271,-0.6996 -0.7291,-0.7387 -0.6678,-0.7024 -0.6687,-0.722 -0.6452,-0.6437 -0.5284,-0.6891 -0.2384,-0.425 -0.064,-0.513 -0.0717,-0.671 0.0467,-0.6769 0.3943,-0.8722 0.3274,-0.6109 0.3473,-0.612 0.7795,-1.1086 0.2767,-0.43 0.6964,-0.7674 0.6259,-0.5856 1.0582,-0.6659 0.9292,-0.4612 0.6562,-0.3685 0.5406,-0.3036 0.5995,-0.3067 0.5216,-0.2829 0.5791,-0.3251 0.6948,-0.3906 0.6834,-0.2112 0.5205,-0.3027 0.6732,-0.4292 0.3622,-0.2951 0.3824,-0.2959 0.5318,-0.4819 0.2974,-0.411 0.1545,-0.5035 0.1749,-0.4847 0.1797,-0.3855 0.2446,-0.2696 0.0904,-0.1828 0.004,-3e-4 0.3756,-0.529 0.3898,-0.2375 0.6735,-0.3974 0.6026,-0.3572 0.4363,-0.021 0.2684,-0.4872 -0.1944,-1.0126 -0.0902,-1.127 -3e-4,-0.7662 0.0238,-1.023 0.4397,-1.4809 0.216,-0.8132 0.3532,-1.0024 0.6715,-1.1999 0.2855,-0.8898 0.5573,-1.3039 0.4898,-1.1911 0.4204,-1.1152 0.3254,-0.8183 0.057,-1.0976 -0.002,-0.8028 -0.0298,-0.6191 0.1142,-0.6624 -0.0643,-0.5808 -0.4348,-0.709 -0.6067,-1.2484 -0.1887,-0.9034 -0.1112,-0.7976 -0.007,-0.9119 0.0221,-1.0593 0.0377,-0.7319 0.1695,-1.0299 0.4447,-1.3717 0.1489,-0.7007 0.282,-0.9621 0.2004,-1.1412 0.2353,-1.1789 -0.0817,-0.9451 -0.0229,-1.2396 0.0173,-0.4025 0.1244,-0.4439 0.0102,-0.5477 -0.0365,-0.7647 -0.163,-0.3572 0.0535,-0.4039 -0.3447,-0.3487 -0.348,-0.4212 -0.2895,-0.7161 -0.0555,-0.3988 -2.1062,-1.2747 -0.8657,-0.3555 2.3553,-0.6622 -0.7387,-0.8719 2.5334,0.7316 2.3731,-0.0624 15.6098,-0.4677 2.924,0.3478 1.0332,0.6123 L 0,-2e-4 Z m -8.7125,22.7404 0.208,-0.2058 0.1364,-0.3334 0.1304,-0.4634 0.155,-0.3994 0.0899,-0.3963 0.1457,-0.595 0.1335,-0.3986 0.0476,-0.3724 0.0204,-0.4802 -0.007,-0.6092 -0.1304,-0.4513 -0.3127,-0.6165 -0.3385,-0.7024 -0.4028,-0.6778 -0.214,-0.3818 -0.199,-0.5131 -0.2888,-0.574 -0.1698,-0.8195 -0.053,-0.6508 -0.007,-1.5024 0.0155,-0.5887 0.0794,-0.6137 0.061,-0.5474 L -9.5155,9.1457 -9.5912,8.4742 -9.6266,7.7355 -9.6941,6.3232 -9.7119,5.4964 -9.8024,4.5207 c 0,0 -0.0343,-0.7169 -0.0405,-0.8473 C -9.8489,3.543 -9.871,3.0867 -9.8772,2.9563 -9.8832,2.8259 -9.926,2.3924 -9.926,2.3924 c 0,0 0.006,-0.3268 10e-4,-0.4356 -0.005,-0.1086 -0.1296,-0.4292 -0.1296,-0.4292 l -0.144,-0.2764 -0.3869,-0.3518 -0.3756,-0.1125 -0.4564,0.0218 -0.2347,0.0984 -0.1179,0.267 -0.2194,0.4241 -0.1242,0.1366 -0.0762,0.2217 c 0,0 0.002,0.5006 0.0507,0.6072 0.0485,0.1065 0.1554,0.9725 0.1554,0.9725 l 0.1151,0.5825 0.1615,1.5602 0.0851,0.8672 -0.0122,0.6539 0.009,0.6313 0.009,0.6528 0.0882,0.4748 0.231,0.7294 0.1987,0.5133 0.1894,0.775 0.1927,0.8399 0.235,0.8164 0.1936,0.862 0.0905,0.9757 0.006,1.0448 c 0,0 0.0195,0.413 0.028,0.5868 0.008,0.1738 -0.1003,0.6364 -0.1003,0.6364 l -0.1695,0.5525 -0.0868,0.4614 0.0239,0.4998 0.0858,0.4314 0.4017,0.656 0.2931,0.661 0.1945,0.4263 0.1119,0.5174 0.091,0.54 0.1347,0.538 0.0643,0.4325 0.1026,0.3218 0.3031,-0.0363 z m -14.044,23.9057 -0.508,0.0496 -0.3943,0.2999 -0.4473,0.2511 -0.4949,0.33 -0.3441,0.2716 -0.307,0.5252 -0.457,0.5837 -0.263,0.3699 -0.3906,0.3759 -0.2957,0.2185 -0.3481,0.1953 -0.273,0.1661 -0.1647,0.2889 -0.4376,0.991 -0.2098,0.4184 -0.239,0.3432 -0.1139,0.2863 0.009,0.1783 0.4439,0.2084 0.5468,0.229 0.3713,0.2886 0.188,0.1953 0.2075,0.0666 0.1236,-0.0825 0.1805,-0.4935 0.165,-0.2888 0.1817,-0.468 0.3155,-0.347 0.246,-0.1905 0.1939,-0.2134 0.1055,-0.4646 0.2885,-0.9074 0.1577,-0.4414 0.3429,-0.8333 0.6282,-0.7447 0.3623,-0.4258 0.1879,-0.341 0.2667,-0.2934 0.0922,-0.2086 0.1202,-0.159 -0.0366,-0.2279 z" style="fill:#4daf5c;fill-opacity:1;fill-rule:evenodd;stroke:#023b41;stroke-width:0;stroke-linecap:butt;stroke-linejoin:miter;stroke-miterlimit:10;stroke-dasharray:none;stroke-opacity:1" id="path4187"/>
          <path d="M 4,35 C 31.006,33.2499 38.7057,12.6492 16.9623,-2.7444 L 16.4419,0.6229 C 35.7234,15.2967 24.041,32.2459 4,35" style="fill:#023b41;fill-opacity:1;fill-rule:evenodd;stroke:none" id="path4191"/>
        </g>
      </g>
      <path style="fill:#4daf5c" id="path4" d="M 58.1,24.6 V 12.3 0 L 50.4,13.4 C 29.5,18.1 13.7,36.1 12.3,58.1 h 12.3 c 1.5,-17.8 15.7,-32 33.5,-33.5" class="st0"/>
      <path style="fill:#023b41" id="path6" d="M 24.6,64.2 H 12.3 0 l 13.4,7.7 c 4.7,20.9 22.7,36.7 44.7,38.1 V 97.8 C 40.3,96.3 26.1,82.1 24.6,64.2" class="st1"/>
      <path style="fill:#023b41" id="path8" d="M 97.8,58.1 H 110 122.3 L 108.9,50.4 C 104.2,29.5 86.2,13.7 64.2,12.3 v 12.3 c 17.9,1.5 32.1,15.7 33.6,33.5" class="st1"/>
      <path style="fill:#4daf5c" id="path10" d="m 64.2,97.8 v 12.2 12.3 l 7.7,-13.4 C 92.8,104.2 108.6,86.2 110,64.2 H 97.8 C 96.3,82.1 82.1,96.3 64.2,97.8" class="st0"/>
    </g>
</svg>
