<?xml version="1.0" encoding="UTF-8" standalone="no"?>
<!-- Generator: Adobe Illustrator 19.1.0, SVG Export Plug-In . SVG Version: 6.00 Build 0)  -->

<svg
   xmlns:dc="http://purl.org/dc/elements/1.1/"
   xmlns:cc="http://creativecommons.org/ns#"
   xmlns:rdf="http://www.w3.org/1999/02/22-rdf-syntax-ns#"
   xmlns:svg="http://www.w3.org/2000/svg"
   xmlns="http://www.w3.org/2000/svg"
   xmlns:sodipodi="http://sodipodi.sourceforge.net/DTD/sodipodi-0.dtd"
   xmlns:inkscape="http://www.inkscape.org/namespaces/inkscape"
   version="1.1"
   id="Calque_1"
   x="0px"
   y="0px"
   viewBox="0 0 144.68997 156.51852"
   xml:space="preserve"
   inkscape:version="0.91 r13725"
   sodipodi:docname="foss4gbe_small.svg"
   width="144.68997"
   height="200"><metadata
     id="metadata4608"><rdf:RDF><cc:Work
         rdf:about=""><dc:format>image/svg+xml</dc:format><dc:type
           rdf:resource="http://purl.org/dc/dcmitype/StillImage" /><dc:title></dc:title></cc:Work></rdf:RDF></metadata><defs
     id="defs4606" /><sodipodi:namedview
     pagecolor="#ffffff"
     bordercolor="#666666"
     borderopacity="1"
     objecttolerance="10"
     gridtolerance="10"
     guidetolerance="10"
     inkscape:pageopacity="0"
     inkscape:pageshadow="2"
     inkscape:window-width="1440"
     inkscape:window-height="802"
     id="namedview4604"
     showgrid="false"
     fit-margin-top="0"
     fit-margin-left="0"
     fit-margin-right="0"
     fit-margin-bottom="0"
     inkscape:zoom="2.9123961"
     inkscape:cx="68.276166"
     inkscape:cy="97.964632"
     inkscape:window-x="0"
     inkscape:window-y="0"
     inkscape:window-maximized="1"
     inkscape:current-layer="Calque_1" /><style
     type="text/css"
     id="style4393">
	.st0{fill:#8F0000;}
	.st1{fill:#979797;}
	.st2{fill:#E3BB00;}
	.st3{display:none;}
	.st4{display:inline;}
	.st5{display:inline;fill:#E3BB00;}
	.st6{display:inline;fill:#8F0000;}
	.st7{font-family:'Satisfy';}
	.st8{font-size:33.1346px;}
	.st9{display:inline;fill:#979797;}
	.st10{fill-rule:evenodd;clip-rule:evenodd;fill:#3A3A3A;}
	.st11{fill-rule:evenodd;clip-rule:evenodd;fill:#303030;}
	.st12{fill-rule:evenodd;clip-rule:evenodd;fill:#777777;}
	.st13{fill:#459939;}
	.st14{fill:#316C29;}
	.st15{fill:#666666;}
	.st16{display:none;fill:#4CAE3F;}
	.st17{font-family:'SourceSansPro-Black';}
	.st18{font-size:72.1123px;}
	.st19{letter-spacing:-1,;}
	.st20{display:none;fill:#979797;}
	.st21{font-size:100.1841px;}
	.st22{letter-spacing:-1,4;}
</style><path
     class="st0"
     d="m 76.108872,104.93952 c 5.787733,15.70957 24.954898,14.58208 36.229708,11.80097 17.43836,-4.28443 27.20986,-19.242344 27.20986,-19.242344 l -3.45761,-9.99699 -4.81058,-13.680097 c -0.52616,2.856283 -5.18641,16.611547 -16.83704,21.948287 -17.663863,8.117864 -22.775108,-1.35298 -22.775108,-1.35298 l -16.68671,1.57848 1.12748,8.944674 z"
     id="path4395"
     inkscape:connector-curvature="0"
     style="fill:#8f0000;stroke:#ffffff;stroke-width:1;stroke-miterlimit:4;stroke-dasharray:none;stroke-opacity:1" /><path
     class="st1"
     d="M 49.500334,59.840301 83.249581,92.086246 C 82.046936,93.288886 56.114886,115.68817 56.114886,115.68817 51.905625,114.26003 35.068584,93.965376 35.068584,93.965376 28.078205,86.223346 31.761308,81.487926 31.761308,81.487926 L 49.500334,59.840301"
     id="path4397"
     inkscape:connector-curvature="0"
     style="fill:#979797;stroke:#ffffff;stroke-width:1;stroke-miterlimit:4;stroke-dasharray:none;stroke-opacity:1" /><path
     d="m 74.380069,90.808436 c 0,0 -24.203247,-25.180402 -25.030066,-29.464828 -0.601323,-3.307276 3.006614,-1.653638 4.434756,-0.901984 1.352977,0.751654 18.64101,9.846662 26.683704,8.193025"
     id="path4399"
     inkscape:connector-curvature="0"
     style="stroke:#ffffff;stroke-width:1;stroke-miterlimit:4;stroke-dasharray:none;stroke-opacity:1" /><path
     class="st2"
     d="m 76.108872,104.93952 c 0,0 -5.18641,-28.337343 1.202646,-33.974745 7.516536,-6.689718 18.340348,-5.712568 18.340348,-5.712568 0,0 3.307276,26.683709 3.006615,27.285029 -0.225496,0.67649 -17.212868,1.12748 -22.549609,12.402284 z"
     id="path4401"
     inkscape:connector-curvature="0"
     style="fill:#e3bb00;stroke:#ffffff;stroke-width:1;stroke-miterlimit:4;stroke-dasharray:none;stroke-opacity:1" /><g
     id="g4546"
     transform="matrix(0.91916879,0,0,0.90978461,-256.18639,-98.206502)"><g
       id="g4548"><path
         class="st10"
         d="m 387,109.1 c 0,-11.9 -13.7,-21.6 -29.5,-21.6 -15.8,0 -29.5,9.7 -29.5,21.6 0,0 0,0 0,0 l 0,0 0,28.9 59,-4.6 0,-24.3 0,0 c 0,0 0,0 0,0 z"
         id="path4550"
         inkscape:connector-curvature="0"
         style="clip-rule:evenodd;fill:#3a3a3a;fill-rule:evenodd" /></g><path
       class="st11"
       d="m 387,130.8 c 0,-1.8 -13.7,-3.3 -29.5,-3.3 -15.8,0 -29.5,1.5 -29.5,3.3 0,0 0,0 0,0 l 0.6,-0.7 0.5,2.9 57.1,0 0.4,-2.9 0.4,0.7 c 0,0 0,0 0,0 z"
       id="path4552"
       inkscape:connector-curvature="0"
       style="clip-rule:evenodd;fill:#303030;fill-rule:evenodd" /><path
       class="st10"
       d="m 367,93.1 c 6.2,2.1 10.9,6.3 12.9,10.8 0,-4.7 -4.4,-9.7 -10.9,-11.9 -4.2,-1.5 -8.5,-1.4 -11.7,-0.3 3.1,-0.2 6.4,0.2 9.7,1.4 z"
       id="path4554"
       inkscape:connector-curvature="0"
       style="clip-rule:evenodd;fill:#3a3a3a;fill-rule:evenodd" /><path
       class="st10"
       d="m 372.7,144.9 c 3.5,-0.5 16.9,-1.3 22.5,-6 1.6,-1.4 4.8,-3.3 4.2,-5.9 -0.7,-3.3 -5.1,-3.4 -7.6,-2.9 -3.2,0.6 -6,2.1 -9.2,2.6 -4.5,0.7 -8.8,1 -13.4,1 C 351.9,133.5 335,132.9 318,130 l 0,0 c -8,1.2 4.6,11.1 6.8,12.3 -0.1,-0.1 5.6,3.4 47.9,2.6 z"
       id="path4556"
       inkscape:connector-curvature="0"
       style="clip-rule:evenodd;fill:#3a3a3a;fill-rule:evenodd" /><path
       class="st12"
       d="m 359.5,136.3 c -25.6,0.4 -24.4,-2.5 -41.4,-5.2 l 0,0 c -8,1.1 4.6,10.3 6.7,11.3 0,0 5.7,3.2 47.8,2.5 3.5,-0.5 16.8,-1.2 22.4,-5.5 1.6,-1.3 5.4,-2.7 4.2,-5.5 -1.2,-2.7 -14,2 -39.7,2.4 z"
       id="path4558"
       inkscape:connector-curvature="0"
       style="clip-rule:evenodd;fill:#777777;fill-rule:evenodd" /><ellipse
       class="st11"
       cx="358.89999"
       cy="140.7"
       rx="28.700001"
       ry="2.8"
       id="ellipse4560"
       style="clip-rule:evenodd;fill:#303030;fill-rule:evenodd" /></g><text
     xml:space="preserve"
     style="font-style:normal;font-variant:normal;font-weight:bold;font-stretch:normal;font-size:22.5px;line-height:100%;font-family:Sans;-inkscape-font-specification:'Sans, Bold';text-align:start;letter-spacing:0px;word-spacing:0px;writing-mode:lr-tb;text-anchor:start;fill:#000000;fill-opacity:1;stroke:none;stroke-width:1px;stroke-linecap:butt;stroke-linejoin:miter;stroke-opacity:1"
     x="10.958878"
     y="145.51976"
     id="text4278"
     sodipodi:linespacing="100%"><tspan
       sodipodi:role="line"
       id="tspan4280"
       x="10.958878"
       y="145.51976"
       style="font-style:normal;font-variant:normal;font-weight:bold;font-stretch:normal;font-size:22.5px;line-height:100%;font-family:Sans;-inkscape-font-specification:'Sans, Bold';text-align:start;writing-mode:lr-tb;text-anchor:start;fill:#459939;fill-opacity:1">OSGeo.be</tspan></text>
</svg>