<?xml version="1.0" encoding="UTF-8" standalone="no"?>
<svg
   xmlns:dc="http://purl.org/dc/elements/1.1/"
   xmlns:cc="http://creativecommons.org/ns#"
   xmlns:rdf="http://www.w3.org/1999/02/22-rdf-syntax-ns#"
   xmlns:svg="http://www.w3.org/2000/svg"
   xmlns="http://www.w3.org/2000/svg"
   xmlns:sodipodi="http://sodipodi.sourceforge.net/DTD/sodipodi-0.dtd"
   xmlns:inkscape="http://www.inkscape.org/namespaces/inkscape"
   data-name="Layer 1"
   height="75"
   width="164"
   version="1.1"
   y="0px"
   x="0px"
   viewBox="0 0 163.99989 74.999601"
   id="svg14"
   sodipodi:docname="anyways.svg"
   inkscape:version="0.92.4 (5da689c313, 2019-01-14)"
   inkscape:export-filename="anyways-logo-text-simple.svg.png"
   inkscape:export-xdpi="354.32605"
   inkscape:export-ydpi="354.32605">
  <metadata
     id="metadata20">
    <rdf:RDF>
      <cc:Work
         rdf:about="">
        <dc:format>image/svg+xml</dc:format>
        <dc:type
           rdf:resource="http://purl.org/dc/dcmitype/StillImage" />
        <dc:title>Artboard 282</dc:title>
      </cc:Work>
    </rdf:RDF>
  </metadata>
  <defs
     id="defs18" />
  <sodipodi:namedview
     pagecolor="#ffffff"
     bordercolor="#666666"
     borderopacity="1"
     objecttolerance="10"
     gridtolerance="10"
     guidetolerance="10"
     inkscape:pageopacity="0"
     inkscape:pageshadow="2"
     inkscape:window-width="2560"
     inkscape:window-height="1379"
     id="namedview16"
     showgrid="false"
     inkscape:zoom="1.5667735"
     inkscape:cx="48.09727"
     inkscape:cy="24.807632"
     inkscape:window-x="0"
     inkscape:window-y="0"
     inkscape:window-maximized="1"
     inkscape:current-layer="svg14"
     fit-margin-top="5"
     fit-margin-bottom="5"
     fit-margin-right="5"
     fit-margin-left="5" />
  <title
     id="title2">Artboard 282</title>
  <g
     id="g834"
     transform="matrix(0.58508823,0,0,0.58508823,0.79804966,6.853502)">
    <text
       id="text6"
       x="94.404053"
       y="47.869289"
       line-height="100"
       font-size="16.768px"
       xml:space="preserve"
       style="font-size:16.76799965px;line-height:100;font-family:'HK Grotesk';letter-spacing:0px;word-spacing:0px;fill:#000000"><tspan
         style="font-weight:300;font-size:36.58399963px;font-family:'HK Grotesk';stroke-width:0.57163"
         id="tspan4"
         x="94.404053"
         y="47.869289"
         font-size="36.584px"
         font-weight="300">ANYWAYS</tspan></text>
    <g
       transform="matrix(-3.9186813,0,0,-3.9186813,99.048348,99.048084)"
       id="ANYWAYS Logo"
       style="fill:none">
      <rect
         id="rect6"
         width="24"
         height="24"
         x="0"
         y="0" />
      <path
         style="fill:#ffc000;fill-opacity:1"
         transform="rotate(180,12,12)"
         d="M 3.5,4 C 3.2239,4 3,4.2239 3,4.5 v 5.293 c 0,0.1326 0.0527,0.26 0.1465,0.353 0.1952,0.196 0.5118,0.196 0.707,0 L 6.043,7.957 9.7246,11.639 A 2.1523,2.1183 0 0 1 11.504,10.59 L 7.457,6.543 9.1465,4.8535 C 9.2403,4.7597 9.293,4.6326 9.293,4.5 9.293,4.2239 9.0691,4 8.793,4 Z M 13,14.293 A 2.1523,2.1183 0 0 1 11.582,14.822 2.1523,2.1183 0 0 1 11,14.742 V 20 c 0,0.552 0.448,1 1,1 0.552,0 1,-0.448 1,-1 z"
         id="Combined-Shape"
         class="primary"
         inkscape:connector-curvature="0" />
      <path
         style="opacity:0.3;fill:#ffc000;fill-opacity:1"
         id="path9"
         d="m 7.2448,17.145 2.0017,2.0017 c 0.093768,0.09377 0.14645,0.22094 0.14645,0.35355 0,0.27614 -0.22386,0.5 -0.5,0.5 h -5.364 c -0.27614,0 -0.5,-0.22386 -0.5,-0.5 v -5.364 c 0,-0.13261 0.052678,-0.25978 0.14645,-0.35355 0.19526,-0.19526 0.51184,-0.19526 0.70711,0 l 1.9432,1.9432 3.0284,-2.5625 1.2919,1.5268 z"
         class="primary"
         inkscape:connector-curvature="0" />
    </g>
    <ellipse
       style="fill:none;stroke:#ffc000;stroke-width:5.57472038;stroke-opacity:1"
       id="ellipse12"
       cx="50.926949"
       cy="54.414299"
       ry="8.3009424"
       rx="8.4341774"
       class="primary" />
    <text
       id="text829"
       y="64.289818"
       x="128.66106"
       style="font-style:normal;font-variant:normal;font-weight:normal;font-stretch:normal;font-size:10.97686481px;line-height:100;font-family:'HK Grotesk';-inkscape-font-specification:'HK Grotesk';letter-spacing:0px;word-spacing:0px;fill:#000000;fill-opacity:1;stroke:none;stroke-width:0.41163242"
       xml:space="preserve"><tspan
         style="font-style:normal;font-variant:normal;font-weight:300;font-stretch:normal;line-height:100;font-family:'HK Grotesk';-inkscape-font-specification:'HK Grotesk Light';fill:#869ab8;fill-opacity:1;stroke-width:0.41163242"
         y="64.289818"
         x="128.66106"
         id="tspan827"
         sodipodi:role="line">edit, test &amp; publish</tspan></text>
    <text
       id="text829-3"
       y="76.672424"
       x="104.48241"
       style="font-style:normal;font-variant:normal;font-weight:normal;font-stretch:normal;font-size:10.97686386px;line-height:100;font-family:'HK Grotesk';-inkscape-font-specification:'HK Grotesk';letter-spacing:0px;word-spacing:0px;fill:#000000;fill-opacity:1;stroke:none;stroke-width:0.41163242"
       xml:space="preserve"><tspan
         style="font-style:normal;font-variant:normal;font-weight:300;font-stretch:normal;line-height:100;font-family:'HK Grotesk';-inkscape-font-specification:'HK Grotesk Light';fill:#869ab8;fill-opacity:1;stroke-width:0.41163242"
         y="76.672424"
         x="104.48241"
         id="tspan827-6"
         sodipodi:role="line">alternative transport schemes</tspan></text>
  </g>
</svg>
