<svg width="96" height="96" viewBox="0 0 96 96" fill="none" xmlns="http://www.w3.org/2000/svg">
<path d="M72.4117 85.8131C69.5806 88.5546 65.7817 90.0677 61.841 90.0234C59.9537 90.0218 58.087 89.6311 56.3574 88.8758C54.6279 88.1204 53.0727 87.0167 51.7888 85.6333C49.1759 82.841 47.7222 79.1599 47.7222 75.3357C47.7222 71.5116 49.1759 67.8304 51.7888 65.0381C53.0736 63.6481 54.6328 62.5397 56.3677 61.7829C58.1027 61.0261 59.9758 60.6373 61.8686 60.6412C70.3376 60.6412 76.7187 66.9877 76.7187 75.4083C76.7371 77.3406 76.3678 79.257 75.6327 81.0441C74.8977 82.8312 73.8118 84.4528 72.4393 85.8131H72.4117ZM82.8856 75.2147V56.7904C82.8856 56.4512 82.7508 56.1259 82.5109 55.886C82.2711 55.6461 81.9458 55.5114 81.6066 55.5114H77.9908C77.6516 55.5114 77.3263 55.6461 77.0864 55.886C76.8466 56.1259 76.7118 56.4512 76.7118 56.7904V60.5029C72.789 56.7377 67.5478 54.6581 62.1106 54.7094C59.3977 54.6996 56.7104 55.2335 54.2073 56.2796C51.7042 57.3257 49.4361 58.8629 47.537 60.8002C43.7548 64.6928 41.6529 69.9153 41.6839 75.3427C41.715 80.7702 43.8765 85.9683 47.703 89.8174C51.5295 93.6665 56.7147 95.8588 62.1419 95.9218C67.569 95.9849 72.8038 93.9139 76.7187 90.1547V93.8673C76.7187 94.2065 76.8535 94.5318 77.0934 94.7716C77.3332 95.0115 77.6585 95.1463 77.9977 95.1463H81.6066C81.9458 95.1463 82.2711 95.0115 82.5109 94.7716C82.7508 94.5318 82.8856 94.2065 82.8856 93.8673V75.2009" fill="#057A8B"/>
<path d="M26.0624 70.7345C21.8383 69.1928 19.2457 68.0935 19.2457 65.1346C19.2457 62.6043 21.9697 60.6408 24.3133 60.6408C25.4433 60.633 26.5508 60.9561 27.4993 61.5704C28.4477 62.1847 29.1956 63.0632 29.6505 64.0976C29.7214 64.2575 29.8242 64.4014 29.9525 64.5202C30.0809 64.6391 30.2322 64.7305 30.3972 64.7889C30.5304 64.8358 30.6707 64.8592 30.812 64.858C31.0136 64.8574 31.2124 64.81 31.3927 64.7198L34.5245 63.1158C34.8178 62.9633 35.041 62.7036 35.1478 62.3908C35.2547 62.0779 35.2369 61.736 35.0983 61.4359C34.0981 59.4646 32.5813 57.8021 30.7097 56.6258C28.8382 55.4496 26.6823 54.8038 24.4723 54.7575C21.5645 54.7275 18.7463 55.7628 16.5495 57.668C15.4526 58.639 14.5765 59.8337 13.9803 61.1718C13.384 62.5098 13.0814 63.9601 13.0928 65.4249C13.0928 72.6357 19.8403 75.1038 24.7696 76.9013C28.5098 78.201 31.1507 79.397 31.1507 82.9989C31.1609 83.9296 30.9851 84.853 30.6336 85.7148C30.2822 86.5767 29.7621 87.3596 29.104 88.0177C28.4458 88.6759 27.6629 89.1959 26.801 89.5474C25.9392 89.8989 25.0159 90.0747 24.0852 90.0645C21.3682 90.0645 17.7732 88.9169 16.0725 83.4276C16.0236 83.2653 15.9427 83.1144 15.8347 82.9838C15.7266 82.8532 15.5936 82.7456 15.4433 82.6671C15.2623 82.5713 15.0605 82.5215 14.8557 82.5219C14.7241 82.5217 14.5934 82.5427 14.4685 82.5841L10.9358 83.711C10.6256 83.8087 10.3646 84.0215 10.2065 84.3057C10.0483 84.5899 10.005 84.9238 10.0854 85.2389C11.7377 91.7721 17.2339 95.9963 24.0852 95.9963C31.6278 95.9963 37.3175 90.4655 37.3175 83.158C37.3175 74.8618 31.0954 72.608 26.0763 70.7829" fill="#057A8B"/>
<path d="M92.2499 44.1528C91.5082 44.1528 90.7832 44.3728 90.1666 44.7848C89.5499 45.1968 89.0693 45.7825 88.7854 46.4677C88.5016 47.1529 88.4274 47.9069 88.5721 48.6343C88.7167 49.3617 89.0739 50.0298 89.5983 50.5543C90.1227 51.0787 90.7909 51.4358 91.5183 51.5805C92.2457 51.7252 92.9997 51.651 93.6849 51.3671C94.3701 51.0833 94.9557 50.6027 95.3678 49.986C95.7798 49.3694 95.9998 48.6444 95.9998 47.9027C96.0054 47.4087 95.9122 46.9186 95.7257 46.4611C95.5392 46.0036 95.2632 45.588 94.9139 45.2387C94.5646 44.8893 94.149 44.6133 93.6915 44.4269C93.234 44.2404 92.7439 44.1472 92.2499 44.1528Z" fill="#FC6D71"/>
<rect x="12.75" y="45.375" width="70.5" height="4.5" rx="2.25" fill="#FFED75"/>
<path d="M3.74988 44.1528C3.00823 44.1528 2.28323 44.3728 1.66656 44.7848C1.0499 45.1968 0.569265 45.7825 0.285446 46.4677C0.00162611 47.1529 -0.0726358 47.9069 0.0720541 48.6343C0.216744 49.3617 0.573886 50.0298 1.09832 50.5543C1.62275 51.0787 2.29091 51.4358 3.01832 51.5805C3.74572 51.7252 4.4997 51.651 5.1849 51.3671C5.8701 51.0833 6.45575 50.6027 6.86779 49.986C7.27984 49.3694 7.49976 48.6444 7.49976 47.9027C7.50535 47.4087 7.41218 46.9186 7.22571 46.4611C7.03924 46.0036 6.76324 45.588 6.41391 45.2387C6.06458 44.8893 5.64897 44.6133 5.19149 44.4269C4.73401 44.2404 4.24388 44.1472 3.74988 44.1528Z" fill="#09181B"/>
<path d="M51.7676 10.2745C53.0549 8.87928 54.6181 7.76673 56.358 7.00744C58.098 6.24815 59.9767 5.85869 61.8751 5.86376C70.3579 5.86376 76.7598 12.2241 76.7598 20.6655C76.7795 22.6023 76.4095 24.5233 75.672 26.3143C74.9345 28.1053 73.8444 29.7297 72.4665 31.091C69.6318 33.8407 65.8241 35.3569 61.8751 35.3082C59.9835 35.3083 58.1121 34.9186 56.3778 34.1632C54.6436 33.4079 53.0836 32.3032 51.7953 30.9181C49.1791 28.1178 47.7239 24.4286 47.7239 20.5963C47.7239 16.7641 49.1791 13.0749 51.7953 10.2745H51.7676ZM62.1655 41.1708C67.6569 41.2239 72.9461 39.1013 76.8773 35.2667C80.7391 31.3564 82.9047 26.0818 82.9047 20.586C82.9047 15.0901 80.7391 9.81557 76.8773 5.90524C72.9486 2.06681 67.6577 -0.0564933 62.1655 0.00114347C59.4625 -0.00582341 56.7854 0.528258 54.292 1.57192C51.7986 2.61559 49.5393 4.14773 47.6472 6.07807C44.7952 8.96026 42.8571 12.6199 42.0757 16.5987C41.2942 20.5774 41.7043 24.6983 43.2543 28.445C44.8044 32.1918 47.4256 35.3978 50.7896 37.6615C54.1536 39.9252 58.1108 41.146 62.1655 41.1708Z" fill="#057A8B"/>
<path d="M19.3426 23.0092H22.4122C24.8319 23.0092 27.3415 23.0783 29.0629 23.9356C29.8855 24.3926 30.5653 25.0688 31.0266 25.8889C31.4879 26.7091 31.7128 27.6411 31.6762 28.5814C31.6687 29.5279 31.422 30.4571 30.9591 31.2826C30.4961 32.1082 29.832 32.8033 29.0284 33.3033C27.5973 34.2712 25.8758 34.3403 23.5944 34.3403H19.3426V23.0092ZM19.3426 6.83168H21.3198C23.2487 6.83168 25.06 6.83168 26.3874 7.66821C27.0571 8.13925 27.5944 8.77449 27.948 9.51298C28.3015 10.2515 28.4592 11.0684 28.4061 11.8854C28.4061 13.9595 27.9291 15.0449 26.5672 16.0335C25.3297 16.9253 24.1405 16.9945 22.4675 16.9945H19.3426V6.83168ZM14.4202 40.3689H24.2512C29.5538 40.3689 31.9942 38.9171 33.8401 37.3477C35.1252 36.262 36.151 34.9026 36.8424 33.369C37.5338 31.8354 37.8734 30.1665 37.8361 28.4846C37.8528 26.5356 37.3491 24.6174 36.3768 22.9281C35.4045 21.2388 33.999 19.8396 32.3053 18.8749C33.8344 17.0007 34.6305 14.6347 34.5453 12.2173C34.5453 8.44943 33.3216 5.46973 30.9019 3.36804C28.2402 1.00364 25.0393 0.810059 22.2393 0.810059H14.4202C14.0902 0.810059 13.7736 0.941169 13.5403 1.17454C13.3069 1.40792 13.1758 1.72444 13.1758 2.05448V39.1245C13.1776 39.4539 13.3093 39.7694 13.5423 40.0024C13.7753 40.2354 14.0907 40.3671 14.4202 40.3689Z" fill="#057A8B"/>
</svg>
