<?xml version="1.0" encoding="UTF-8" standalone="no"?>
<!-- Created with Inkscape (http://www.inkscape.org/) -->

<svg
   xmlns:dc="http://purl.org/dc/elements/1.1/"
   xmlns:cc="http://creativecommons.org/ns#"
   xmlns:rdf="http://www.w3.org/1999/02/22-rdf-syntax-ns#"
   xmlns:svg="http://www.w3.org/2000/svg"
   xmlns="http://www.w3.org/2000/svg"
   xmlns:sodipodi="http://sodipodi.sourceforge.net/DTD/sodipodi-0.dtd"
   xmlns:inkscape="http://www.inkscape.org/namespaces/inkscape"
   width="325.05392mm"
   height="85.337135mm"
   viewBox="0 0 325.05393 85.33714"
   version="1.1"
   id="svg876"
   inkscape:version="0.92.3 (2405546, 2018-03-11)"
   sodipodi:docname="logo.normalized.svg"
   inkscape:export-filename="/home/julien/ownCloudCL/CLpartage/Champs Libres/Logo/logo.png"
   inkscape:export-xdpi="200.07513"
   inkscape:export-ydpi="200.07513">
  <defs
     id="defs870" />
  <sodipodi:namedview
     id="base"
     pagecolor="#ffffff"
     bordercolor="#666666"
     borderopacity="1.0"
     inkscape:pageopacity="1"
     inkscape:pageshadow="2"
     inkscape:zoom="0.49497475"
     inkscape:cx="597.45991"
     inkscape:cy="156.82321"
     inkscape:document-units="mm"
     inkscape:current-layer="layer1"
     showgrid="false"
     fit-margin-top="20"
     fit-margin-left="20"
     fit-margin-right="20"
     fit-margin-bottom="20"
     inkscape:window-width="1364"
     inkscape:window-height="715"
     inkscape:window-x="0"
     inkscape:window-y="0"
     inkscape:window-maximized="0"
     showguides="false" />
  <metadata
     id="metadata873">
    <rdf:RDF>
      <cc:Work
         rdf:about="">
        <dc:format>image/svg+xml</dc:format>
        <dc:type
           rdf:resource="http://purl.org/dc/dcmitype/StillImage" />
        <dc:title></dc:title>
      </cc:Work>
    </rdf:RDF>
  </metadata>
  <g
     inkscape:label="Layer 1"
     inkscape:groupmode="layer"
     id="layer1"
     transform="translate(75.388971,-68.75141)">
    <text
       id="text3892"
       y="137.35451"
       x="93.752739"
       style="font-style:normal;font-variant:normal;font-weight:normal;font-stretch:normal;font-size:3.17499995px;line-height:0%;font-family:Verdana;-inkscape-font-specification:Verdana;text-align:start;letter-spacing:0px;word-spacing:0px;writing-mode:lr-tb;text-anchor:start;display:inline;fill:#000000;fill-opacity:1;stroke:none;stroke-width:0.26458332"
       xml:space="preserve"><tspan
         style="font-style:normal;font-variant:normal;font-weight:normal;font-stretch:normal;font-size:34.39583206px;line-height:1.25;font-family:Convergence;-inkscape-font-specification:Convergence;stroke-width:0.26458332"
         id="tspan3894"
         y="138.17926"
         x="93.752739"
         sodipodi:role="line" /></text>
    <text
       xml:space="preserve"
       style="font-style:normal;font-weight:normal;font-size:10.58333302px;line-height:125%;font-family:sans-serif;text-align:center;letter-spacing:0px;word-spacing:0px;text-anchor:middle;fill:#000000;fill-opacity:1;stroke:none;stroke-width:0.26458332px;stroke-linecap:butt;stroke-linejoin:miter;stroke-opacity:1"
       x="137.14842"
       y="58.398136"
       id="text1506"><tspan
         sodipodi:role="line"
         id="tspan1504"
         x="137.14842"
         y="67.761902"
         style="stroke-width:0.26458332px" /></text>
    <flowRoot
       xml:space="preserve"
       id="flowRoot835"
       style="font-style:normal;font-weight:normal;font-size:40px;line-height:125%;font-family:sans-serif;text-align:center;letter-spacing:0px;word-spacing:0px;text-anchor:middle;fill:#000000;fill-opacity:1;stroke:none;stroke-width:1px;stroke-linecap:butt;stroke-linejoin:miter;stroke-opacity:1"><flowRegion
         id="flowRegion837"><rect
           id="rect839"
           width="225.38579"
           height="40.250282"
           x="648.57141"
           y="280.44125" /></flowRegion><flowPara
         id="flowPara841" /></flowRoot>    <g
       transform="matrix(0.4349593,0,0,0.4349593,-243.97253,-5.0535097)"
       id="g350"
       style="display:inline">
      <path
         style="display:inline;fill:#88aa00;stroke:none"
         d="m 808.79643,318.73946 c -41.36411,9.35099 -57.15548,-39.13936 -45.23747,-103.07579 42.94906,32.20104 91.23498,85.91655 45.23747,103.07579 z"
         id="path346"
         inkscape:connector-curvature="0"
         sodipodi:nodetypes="ccc" />
      <path
         sodipodi:nodetypes="ccc"
         inkscape:connector-curvature="0"
         id="path348"
         d="m 793.72622,311.92153 c 38.21383,15.97487 50.47164,-45.5142 44.88524,-71.72984 -34.49716,16.4416 -76.63248,56.77549 -44.88524,71.72984 z"
         style="display:inline;fill:#333333;fill-opacity:1;stroke:none" />
    </g>
    <g
       aria-label="Libres"
       style="font-style:normal;font-variant:normal;font-weight:normal;font-stretch:normal;font-size:3.1355536px;line-height:0%;font-family:Convergence;-inkscape-font-specification:Convergence;text-align:start;letter-spacing:0px;word-spacing:0px;writing-mode:lr-tb;text-anchor:start;display:inline;fill:#88aa00;fill-opacity:1;stroke:none;stroke-width:0.26129612"
       id="text358">
      <path
         d="M 135.04201,122.67696 V 97.592534 h 3.9717 v 21.739836 h 9.51118 l -0.48775,3.34459 z"
         style="font-style:normal;font-variant:normal;font-weight:normal;font-stretch:normal;font-size:34.83948517px;font-family:Convergence;-inkscape-font-specification:Convergence;fill:#88aa00;fill-opacity:1;stroke-width:0.26129612"
         id="path851" />
      <path
         d="m 155.05348,96.198955 q 0.87099,0 1.46326,0.557432 0.59227,0.522592 0.59227,1.602616 0,2.264567 -2.36909,2.264567 -0.83614,0 -1.39357,-0.52259 -0.55744,-0.557434 -0.55744,-1.602619 0,-2.299406 2.26457,-2.299406 z m -1.98585,26.478005 v -18.3604 l 3.76266,-0.48776 v 18.84816 z"
         style="font-style:normal;font-variant:normal;font-weight:normal;font-stretch:normal;font-size:34.83948517px;line-height:0%;font-family:Convergence;-inkscape-font-specification:Convergence;letter-spacing:0px;opacity:0.98000004;fill:#88aa00;fill-opacity:1;stroke-width:0.26129612"
         id="path853" />
      <path
         d="M 163.81888,121.42274 V 96.407992 l 3.76266,-0.487753 v 8.849231 q 2.29941,-1.11487 4.91237,-1.11487 3.13555,0 5.15624,2.43877 2.05553,2.43876 2.05553,7.03757 0,4.59882 -2.2994,7.28146 -2.26457,2.68264 -6.82854,2.68264 -1.70714,0 -3.69299,-0.52259 -1.95101,-0.55744 -3.06587,-1.14971 z m 11.9151,-8.2918 q 0,-3.48394 -1.1497,-5.01688 -1.11487,-1.53294 -3.20523,-1.53294 -2.09037,0 -3.79751,0.97551 v 12.15898 q 1.18454,0.45291 3.06588,0.45291 2.85683,0 3.9717,-1.77681 1.11486,-1.81166 1.11486,-5.26077 z"
         style="font-style:normal;font-variant:normal;font-weight:normal;font-stretch:normal;font-size:34.83948517px;line-height:0%;font-family:Convergence;-inkscape-font-specification:Convergence;letter-spacing:0px;opacity:0.98000004;fill:#88aa00;fill-opacity:1;stroke-width:0.26129612"
         id="path855" />
      <path
         d="m 184.84505,109.99539 q 0,-3.13555 -0.62711,-5.644 l 2.92652,-0.38323 0.87098,2.26457 q 2.19489,-2.57813 4.94721,-2.57813 1.84649,0 2.85684,0.87099 1.04518,0.87099 1.04518,2.47361 0,1.60261 -0.52259,2.82199 l -2.99619,-0.38323 q 0,-1.56778 -0.31356,-2.19489 -0.27872,-0.66195 -1.21938,-0.66195 -0.90583,0 -1.81165,0.73163 -0.87099,0.73163 -1.39358,1.63746 v 13.72675 h -3.76267 z"
         style="font-style:normal;font-variant:normal;font-weight:normal;font-stretch:normal;font-size:34.83948517px;line-height:0%;font-family:Convergence;-inkscape-font-specification:Convergence;letter-spacing:0px;opacity:0.98000004;fill:#88aa00;fill-opacity:1;stroke-width:0.26129612"
         id="path857" />
      <path
         d="m 212.75746,118.70526 1.28907,2.36909 q -0.59228,0.55743 -2.50845,1.28906 -1.91617,0.73163 -4.11106,0.73163 -3.90202,0 -6.30594,-2.36909 -2.36909,-2.36908 -2.36909,-7.10725 0,-2.61296 0.83615,-4.59881 0.83615,-2.02069 2.16005,-3.13556 2.71748,-2.22973 5.67883,-2.22973 2.9962,0 4.73817,1.53294 1.77682,1.4981 1.77682,3.69299 0,2.89167 -2.75232,4.73817 -2.75232,1.81165 -8.81439,1.81165 0,1.60262 1.3239,3.17039 1.35874,1.56778 3.9717,1.56778 2.6478,0 5.08656,-1.46326 z m -2.19488,-9.51118 q 0,-1.04518 -0.80131,-1.81165 -0.76647,-0.80131 -2.19489,-0.80131 -2.2994,0 -3.7975,1.74198 -1.46326,1.70713 -1.4981,4.49429 8.2918,0 8.2918,-3.62331 z"
         style="font-style:normal;font-variant:normal;font-weight:normal;font-stretch:normal;font-size:34.83948517px;line-height:0%;font-family:Convergence;-inkscape-font-specification:Convergence;letter-spacing:0px;opacity:0.98000004;fill:#88aa00;fill-opacity:1;stroke-width:0.26129612"
         id="path859" />
      <path
         d="m 216.70467,121.7363 0.80131,-2.822 q 2.85683,1.25422 4.91236,1.25422 3.55363,0 3.55363,-2.40392 0,-1.88134 -3.41427,-3.13556 -1.3239,-0.48775 -1.98585,-0.76647 -0.66195,-0.31355 -1.63745,-0.94066 -1.91618,-1.25422 -1.91618,-3.76267 0,-2.54328 1.77682,-3.9717 1.81165,-1.46326 4.87753,-1.46326 3.10071,0 5.33044,1.04519 0.41807,0.1742 0.45291,0.1742 l -0.73163,2.82199 q -2.54328,-1.11486 -4.52913,-1.11486 -3.48395,0 -3.48395,2.36909 0,0.69679 0.34839,1.08002 0.38324,0.34839 0.59228,0.52259 0.20903,0.13936 0.69679,0.38324 0.48775,0.20903 0.69679,0.31355 0.24387,0.0697 0.87098,0.31356 0.62711,0.24387 1.25422,0.48775 0.66195,0.20904 1.35874,0.59227 0.73163,0.38324 1.53294,1.04519 1.60262,1.3239 1.60262,4.04138 0,1.84649 -1.08003,3.06587 -1.91617,2.22973 -6.41046,2.22973 -2.9962,0 -5.4698,-1.35874 z"
         style="font-style:normal;font-variant:normal;font-weight:normal;font-stretch:normal;font-size:34.83948517px;line-height:0%;font-family:Convergence;-inkscape-font-specification:Convergence;letter-spacing:0px;opacity:0.98000004;fill:#88aa00;fill-opacity:1;stroke-width:0.26129612"
         id="path861" />
    </g>
    <g
       aria-label="Champs
"
       style="font-style:normal;font-variant:normal;font-weight:normal;font-stretch:normal;font-size:3.1355536px;line-height:0%;font-family:Convergence;-inkscape-font-specification:Convergence;text-align:start;letter-spacing:0px;word-spacing:0px;writing-mode:lr-tb;text-anchor:start;display:inline;fill:#333333;fill-opacity:1;stroke:none;stroke-width:0.26129612"
       id="text368">
      <path
         d="m -55.38897,110.03023 q 0,-7.87372 5.086564,-11.113795 2.682641,-1.741974 6.584663,-1.741974 3.867183,0 7.281452,1.254221 0.452914,0.174198 0.487753,0.174198 l -1.010345,3.06587 q -0.03484,0 -0.487753,-0.10451 -0.418073,-0.13936 -0.870987,-0.24388 -0.418074,-0.13936 -1.114863,-0.27872 -0.69679,-0.13935 -1.323901,-0.24387 -1.393579,-0.27872 -2.961356,-0.27872 -3.902022,0 -5.713676,2.19489 -1.776813,2.19489 -1.776813,7.38597 0,5.88787 2.055529,7.87372 1.045185,1.01035 2.299406,1.39358 1.254222,0.38324 3.031036,0.38324 3.240072,0 6.863378,-1.28906 l 1.010345,3.17039 -0.905826,0.27872 q -3.762665,1.18454 -7.734366,1.18454 -5.191083,0 -8.013082,-3.30975 -2.787158,-3.30975 -2.787158,-9.75506 z"
         style="font-style:normal;font-variant:normal;font-weight:normal;font-stretch:normal;font-size:34.83948517px;line-height:0%;font-family:Convergence;-inkscape-font-specification:Convergence;letter-spacing:0px;fill:#333333;fill-opacity:1;stroke-width:0.26129612"
         id="path864" />
      <path
         d="M -27.165176,122.67696 H -30.92784 V 96.407992 l 3.762664,-0.487753 v 9.371821 q 2.752319,-1.63746 5.40012,-1.63746 6.340786,0 6.340786,6.82854 v 12.19382 h -3.762664 v -11.49703 q 0,-4.59881 -3.658146,-4.59881 -1.393579,0 -2.647801,0.52259 -1.254221,0.5226 -1.672295,0.97551 z"
         style="font-style:normal;font-variant:normal;font-weight:normal;font-stretch:normal;font-size:34.83948517px;line-height:0%;font-family:Convergence;-inkscape-font-specification:Convergence;letter-spacing:0px;opacity:0.98000004;fill:#333333;fill-opacity:1;stroke-width:0.26129612"
         id="path866" />
      <path
         d="m 4.9219889,105.22238 v 13.02997 q 0,1.21938 0.2787158,1.63745 0.2787159,0.38324 1.35874,0.38324 l 0.1393579,2.19489 q -0.8709871,0.31355 -1.8464927,0.31355 -2.7174799,0 -3.2400721,-2.4736 -1.84649274,2.78716 -5.4697992,2.78716 -3.588467,0 -5.3652807,-2.68264 -1.7419739,-2.68264 -1.7419739,-6.89822 0,-4.25042 2.4039241,-7.03758 2.4039245,-2.822 6.4453048,-2.822 1.63745576,0 3.7975038,0.5226 2.1948876,0.48775 3.2400722,1.04518 z m -11.915104,8.57052 q 0,3.37943 1.0103451,4.87752 1.0451846,1.4981 2.9961957,1.4981 1.9510112,0 3.03103524,-1.35874 1.11486356,-1.39358 1.11486356,-3.41427 v -8.36148 q -1.35873996,-0.45291 -3.1007142,-0.45291 -2.6478009,0 -3.8671829,1.91617 -1.1845425,1.91618 -1.1845425,5.29561 z"
         style="font-style:normal;font-variant:normal;font-weight:normal;font-stretch:normal;font-size:34.83948517px;line-height:0%;font-family:Convergence;-inkscape-font-specification:Convergence;letter-spacing:0px;opacity:0.98000004;fill:#333333;fill-opacity:1;stroke-width:0.26129612"
         id="path868" />
      <path
         d="m 11.736916,109.99539 q 0,-3.13555 -0.62711,-5.644 l 2.926516,-0.38323 0.661951,1.74197 q 2.961356,-2.05553 6.06207,-2.05553 3.135554,0 4.598812,2.0207 2.821998,-2.0207 6.027231,-2.0207 3.240072,0 4.668491,1.70714 1.463258,1.70713 1.463258,5.1214 v 12.19382 h -3.762664 v -11.49703 q 0,-3.37943 -1.602616,-4.21557 -0.69679,-0.38324 -1.776814,-0.38324 -1.811653,0 -4.04138,1.56778 0.209037,1.08002 0.209037,2.33424 v 12.19382 h -3.762665 v -11.49703 q 0,-2.16004 -0.66195,-3.37943 -0.66195,-1.21938 -2.68264,-1.21938 -2.020691,0 -3.936862,1.4981 v 14.59774 h -3.762665 z"
         style="font-style:normal;font-variant:normal;font-weight:normal;font-stretch:normal;font-size:34.83948517px;line-height:0%;font-family:Convergence;-inkscape-font-specification:Convergence;letter-spacing:0px;opacity:0.98000004;fill:#333333;fill-opacity:1;stroke-width:0.26129612"
         id="path870" />
      <path
         d="m 43.786523,130.06293 v -21.0082 q 0,-1.95102 -0.627111,-4.70334 l 2.926517,-0.38323 0.62711,1.53294 q 2.578122,-1.8465 5.365281,-1.8465 3.553628,0 5.574318,2.61297 2.02069,2.57812 2.02069,7.03757 0,4.42462 -2.160048,7.10726 -2.160048,2.68264 -5.922713,2.68264 -2.264566,0 -4.04138,-0.94067 v 7.90856 z m 7.351131,-23.48181 q -1.637456,0 -3.588467,1.28906 v 11.35767 q 1.393579,0.94067 3.274912,0.94067 2.578122,0 3.727825,-1.63745 1.149703,-1.63746 1.149703,-5.36529 0,-3.72782 -1.149703,-5.15624 -1.149703,-1.42842 -3.41427,-1.42842 z"
         style="font-style:normal;font-variant:normal;font-weight:normal;font-stretch:normal;font-size:34.83948517px;line-height:0%;font-family:Convergence;-inkscape-font-specification:Convergence;letter-spacing:0px;opacity:0.98000004;fill:#333333;fill-opacity:1;stroke-width:0.26129612"
         id="path872" />
      <path
         d="m 62.513293,121.7363 0.801308,-2.822 q 2.856838,1.25422 4.912368,1.25422 3.553627,0 3.553627,-2.40392 0,-1.88134 -3.414269,-3.13556 -1.323901,-0.48775 -1.985851,-0.76647 -0.66195,-0.31355 -1.637456,-0.94066 -1.916172,-1.25422 -1.916172,-3.76267 0,-2.54328 1.776814,-3.9717 1.811653,-1.46326 4.877528,-1.46326 3.100714,0 5.330441,1.04519 0.418074,0.1742 0.452914,0.1742 l -0.73163,2.82199 q -2.543282,-1.11486 -4.529133,-1.11486 -3.483948,0 -3.483948,2.36909 0,0.69679 0.348395,1.08002 0.383234,0.34839 0.592271,0.52259 0.209037,0.13936 0.69679,0.38324 0.487752,0.20903 0.696789,0.31355 0.243877,0.0697 0.870988,0.31356 0.62711,0.24387 1.254221,0.48775 0.66195,0.20904 1.35874,0.59227 0.731629,0.38324 1.532937,1.04519 1.602617,1.3239 1.602617,4.04138 0,1.84649 -1.080024,3.06587 -1.916172,2.22973 -6.410466,2.22973 -2.996195,0 -5.469799,-1.35874 z"
         style="font-style:normal;font-variant:normal;font-weight:normal;font-stretch:normal;font-size:34.83948517px;line-height:0%;font-family:Convergence;-inkscape-font-specification:Convergence;letter-spacing:0px;opacity:0.98000004;fill:#333333;fill-opacity:1;stroke-width:0.26129612"
         id="path874" />
    </g>
  </g>
</svg>
