<?xml version="1.0" encoding="UTF-8"?>
<svg id="Layer_1" data-name="Layer 1" xmlns="http://www.w3.org/2000/svg" xmlns:xlink="http://www.w3.org/1999/xlink" viewBox="0 0 909.07 286.02">
  <defs>
    <style>
      .cls-1 {
        fill: url(#linear-gradient);
      }

      .cls-1, .cls-2, .cls-3, .cls-4, .cls-5 {
        stroke-width: 0px;
      }

      .cls-2 {
        fill: #3375b0;
      }

      .cls-3 {
        fill: #66c3ff;
      }

      .cls-4 {
        fill: #00295e;
      }

      .cls-5 {
        fill: #002d5b;
      }
    </style>
    <linearGradient id="linear-gradient" x1="98.76" y1="102.4" x2="178.91" y2="183.59" gradientUnits="userSpaceOnUse">
      <stop offset=".13" stop-color="#c42990"/>
      <stop offset=".84" stop-color="#01295e"/>
    </linearGradient>
  </defs>
  <g>
    <path class="cls-1" d="M180.47,147.25c-1.41-3.38-3.41-6.32-5.95-8.73-2.52-2.41-5.55-4.31-8.99-5.68-3.44-1.36-7.2-2.05-11.18-2.05-2.74,0-5.1.33-7,.99-.55.19-1.06.4-1.55.64l2.39-13.6h35.47v-16.81h-48.94,0s-21.33,0-21.33,0l-.34.68c-.1.12-.46.52-1.62,1.68-1.09,1.09-2.53,2.3-4.26,3.59-1.73,1.29-3.65,2.48-5.71,3.55-1.92,1-3.83,1.5-5.65,1.5v17.04c1.69,0,3.57-.38,5.59-1.12,1.94-.71,3.86-1.61,5.72-2.68,1.85-1.06,3.52-2.18,4.98-3.32.26-.21.51-.41.75-.61v48h-15.82v16.7h48.91c1.68.22,3.41.35,5.19.35,4.5,0,8.71-.7,12.52-2.09,3.83-1.39,7.18-3.4,9.98-5.96,2.81-2.56,5.02-5.65,6.59-9.18,1.56-3.53,2.36-7.5,2.36-11.81,0-3.99-.71-7.72-2.11-11.09ZM99.86,184.21v-11.04h15.82v-59.02l-2.59,3.87c-.53.79-1.45,1.7-2.73,2.71-1.35,1.06-2.92,2.1-4.65,3.1-1.72.99-3.5,1.82-5.29,2.48-.62.23-1.21.4-1.79.55v-11.3c1.37-.29,2.75-.79,4.13-1.51,2.2-1.14,4.25-2.41,6.1-3.79,1.84-1.37,3.38-2.67,4.57-3.86.73-.73,1.2-1.21,1.49-1.53h19.25c-1.55,8.03-2.97,15.31-4.26,21.8-.6,2.92-1.18,5.88-1.72,8.79-.53,2.86-1.03,5.45-1.49,7.78-.46,2.33-.84,4.23-1.14,5.72-.45,2.19-.49,2.62-.49,2.86v1.41h15.59l.42-.64c1.16-1.77,2.75-3.19,4.74-4.22,2-1.04,4.14-1.56,6.34-1.56,1.72,0,3.31.29,4.74.87,1.42.58,2.67,1.4,3.71,2.44,1.04,1.04,1.86,2.31,2.44,3.76.58,1.48.88,3.09.88,4.81,0,3.76-1.15,6.66-3.51,8.89-2.39,2.25-5.39,3.34-9.17,3.34-3.18,0-6.29-.83-9.23-2.46-2.98-1.65-5.55-3.91-7.63-6.71l-1-1.34-10.72,11.13.52.92c2.64,4.65,6.46,8.34,11.33,10.97.51.28,1.04.53,1.57.78h-36.23ZM177.64,169c-1.4,3.17-3.39,5.94-5.91,8.24-2.52,2.31-5.57,4.12-9.04,5.39-3.5,1.27-7.39,1.92-11.55,1.92-5.7,0-10.83-1.22-15.26-3.61-4.08-2.21-7.33-5.23-9.68-8.98l6.95-7.23c2.13,2.53,4.64,4.61,7.5,6.2,3.37,1.87,6.93,2.81,10.6,2.81,4.48,0,8.22-1.38,11.11-4.11,2.92-2.75,4.4-6.43,4.4-10.94,0-2.07-.36-4.04-1.07-5.85-.72-1.81-1.75-3.4-3.07-4.72-1.31-1.31-2.88-2.34-4.65-3.06-1.77-.71-3.72-1.08-5.8-1.08-2.66,0-5.23.63-7.64,1.88-2.18,1.13-3.98,2.65-5.36,4.54h-11.01c.05-.25.11-.54.18-.88.3-1.49.69-3.41,1.15-5.74.46-2.33.96-4.94,1.49-7.81.54-2.9,1.12-5.84,1.72-8.75,1.31-6.65,2.77-14.1,4.36-22.36h43.78v11.16h-35.01l-4.31,24.47,3.36-3.91c.75-.87,1.9-1.58,3.4-2.11,1.6-.56,3.64-.84,6.07-.84,3.62,0,7.03.62,10.14,1.85,3.1,1.23,5.82,2.94,8.08,5.1,2.25,2.15,4.03,4.76,5.29,7.77,1.26,3.03,1.9,6.39,1.9,10,0,3.91-.71,7.5-2.11,10.66Z"/>
    <g>
      <path class="cls-5" d="M126.02,206.67l3.93-10h1.91l3.9,10h-2.2l-2.01-5.38c-.06-.15-.13-.35-.21-.59-.08-.24-.16-.49-.25-.76-.09-.27-.17-.52-.24-.76s-.13-.45-.17-.61h.39c-.06.21-.12.43-.19.66-.07.23-.15.47-.22.71-.08.24-.16.48-.24.71-.09.23-.17.45-.24.67l-2.01,5.34h-2.13ZM127.85,204.57l.7-1.71h4.58l.71,1.71h-6Z"/>
      <path class="cls-5" d="M138.73,206.67v-10h1.91l5.53,7.47h-.4c-.04-.29-.07-.58-.1-.86-.03-.28-.06-.57-.08-.86-.02-.29-.04-.59-.06-.9s-.03-.64-.04-.99c0-.35-.01-.73-.01-1.13v-2.73h2.1v10h-1.94l-5.64-7.54h.54c.05.51.09.93.12,1.28.03.35.06.65.09.91.02.26.04.48.05.67,0,.19.02.37.02.54,0,.17,0,.35,0,.54v3.6h-2.1Z"/>
      <path class="cls-5" d="M151.76,206.67v-10h1.91l5.53,7.47h-.4c-.04-.29-.07-.58-.1-.86-.03-.28-.06-.57-.08-.86-.02-.29-.04-.59-.06-.9s-.03-.64-.04-.99c0-.35-.01-.73-.01-1.13v-2.73h2.1v10h-1.94l-5.64-7.54h.54c.05.51.09.93.12,1.28.03.35.06.65.09.91.02.26.04.48.05.67,0,.19.02.37.02.54,0,.17,0,.35,0,.54v3.6h-2.1Z"/>
      <path class="cls-5" d="M164.52,206.67v-1.84h1.67v-6.31h-1.67v-1.84h5.48v1.84h-1.67v6.31h1.67v1.84h-5.48Z"/>
      <path class="cls-5" d="M176.76,206.67l-3.98-10h2.27l2.08,5.41c.11.29.21.55.29.78.08.22.15.43.21.63.06.2.12.39.18.57s.11.39.17.61h-.41c.08-.28.15-.55.22-.81.07-.25.16-.52.26-.8.1-.28.22-.61.36-.98l1.97-5.41h2.26l-4.01,10h-1.87Z"/>
      <path class="cls-5" d="M185.67,206.67v-10h6.75v1.89h-4.66v6.23h4.76v1.88h-6.85ZM186.67,202.48v-1.83h5.07v1.83h-5.07Z"/>
      <path class="cls-5" d="M196.31,206.67v-10h4.43c.62,0,1.18.14,1.69.42.5.28.9.66,1.19,1.13.29.48.44,1.02.44,1.63s-.15,1.14-.44,1.63-.69.88-1.19,1.16c-.5.29-1.07.43-1.69.43h-2.36v3.58h-2.07ZM198.38,201.34h2.26c.26,0,.48-.06.68-.18.19-.12.34-.29.45-.5.1-.21.16-.46.16-.72,0-.29-.06-.53-.19-.74-.12-.21-.3-.37-.54-.49-.24-.12-.51-.18-.83-.18h-1.99v2.81ZM201.98,206.67l-2.54-4.51,2.2-.36,2.83,4.88h-2.48Z"/>
      <path class="cls-5" d="M211.12,206.81c-.62,0-1.18-.08-1.69-.23s-.96-.38-1.36-.67-.75-.65-1.06-1.07l1.34-1.53c.47.65.93,1.09,1.39,1.32s.96.35,1.51.35c.29,0,.56-.04.79-.13s.42-.2.55-.35c.13-.15.2-.33.2-.54,0-.15-.03-.29-.1-.42-.07-.13-.16-.24-.29-.34-.12-.1-.27-.19-.44-.27s-.36-.15-.57-.21c-.21-.06-.44-.11-.69-.15-.53-.12-1-.27-1.4-.45-.4-.18-.73-.39-1-.66s-.46-.56-.59-.89-.19-.71-.19-1.13.1-.83.29-1.19c.19-.37.45-.68.79-.95s.73-.47,1.17-.61c.44-.14.91-.21,1.41-.21.61,0,1.14.07,1.6.2.46.13.85.33,1.19.59.34.26.62.58.85.95l-1.36,1.31c-.2-.27-.42-.49-.65-.67s-.49-.32-.76-.41c-.27-.09-.55-.14-.84-.14-.31,0-.59.04-.81.12-.23.08-.41.2-.54.36-.13.16-.19.34-.19.55,0,.17.04.32.13.46.09.13.21.25.37.35.16.1.36.19.59.26s.48.14.76.2c.52.1.99.24,1.41.41.42.17.78.38,1.08.62.3.24.53.53.69.86.16.33.24.7.24,1.11,0,.68-.16,1.25-.49,1.73-.32.48-.77.84-1.34,1.09s-1.24.38-2,.38Z"/>
      <path class="cls-5" d="M217.26,206.67l3.93-10h1.91l3.9,10h-2.2l-2.01-5.38c-.06-.15-.13-.35-.21-.59-.08-.24-.16-.49-.25-.76-.09-.27-.17-.52-.24-.76s-.13-.45-.17-.61h.39c-.06.21-.12.43-.19.66-.07.23-.15.47-.22.71-.08.24-.16.48-.24.71-.09.23-.17.45-.24.67l-2.01,5.34h-2.13ZM219.09,204.57l.7-1.71h4.58l.71,1.71h-6Z"/>
      <path class="cls-5" d="M229.97,206.67v-10h4.43c.62,0,1.18.14,1.69.42.5.28.9.66,1.19,1.13.29.48.44,1.02.44,1.63s-.15,1.14-.44,1.63-.69.88-1.19,1.16c-.5.29-1.07.43-1.69.43h-2.36v3.58h-2.07ZM232.04,201.34h2.26c.26,0,.48-.06.68-.18.19-.12.34-.29.45-.5.1-.21.16-.46.16-.72,0-.29-.06-.53-.19-.74-.12-.21-.3-.37-.54-.49-.24-.12-.51-.18-.83-.18h-1.99v2.81ZM235.64,206.67l-2.54-4.51,2.2-.36,2.83,4.88h-2.48Z"/>
      <path class="cls-5" d="M243.44,206.67v-4.98l.1.7-4.04-5.71h2.47l3.08,4.43-.97-.04,2.78-4.38h2.38l-3.87,5.87.21-.97v5.1h-2.16Z"/>
    </g>
    <g>
      <path class="cls-5" d="M111.02,197.74v-1.29h3.56v1.29h-3.56ZM112.03,201.83v-6.75h1.45v6.75h-1.45Z"/>
      <path class="cls-5" d="M116.64,201.83v-7.54h1.43v3.25l-.29.12c.07-.24.21-.47.4-.67.19-.2.43-.36.7-.48s.56-.18.86-.18c.41,0,.75.08,1.02.25s.48.41.62.74.21.73.21,1.22v3.3h-1.45v-3.19c0-.24-.03-.45-.1-.61s-.17-.28-.31-.36c-.14-.08-.31-.11-.51-.1-.16,0-.31.03-.45.08-.14.05-.26.12-.36.22-.1.09-.18.2-.23.33-.06.12-.09.25-.09.4v3.24h-1.45Z"/>
    </g>
  </g>
  <g>
    <g>
      <path class="cls-4" d="M336.7,169.28c-3.64,0-7.04-.66-10.2-1.98-3.16-1.32-5.94-3.15-8.33-5.5-2.4-2.35-4.25-5.09-5.57-8.23-1.32-3.14-1.98-6.53-1.98-10.17s.66-6.94,1.98-10.06c1.32-3.11,3.16-5.83,5.53-8.16,2.37-2.32,5.14-4.13,8.3-5.42s6.56-1.94,10.2-1.94c2.54,0,5.02.36,7.44,1.08s4.61,1.72,6.58,3.02c1.96,1.29,3.57,2.78,4.81,4.46l-5.03,5.25c-1.44-1.39-2.91-2.54-4.42-3.45-1.51-.91-3.05-1.6-4.63-2.08-1.58-.48-3.16-.72-4.74-.72-2.59,0-4.97.46-7.15,1.37-2.18.91-4.1,2.18-5.75,3.81-1.65,1.63-2.93,3.53-3.84,5.71-.91,2.18-1.37,4.56-1.37,7.15s.48,4.85,1.44,7.08c.96,2.23,2.29,4.18,3.99,5.86,1.7,1.68,3.66,2.99,5.89,3.95,2.23.96,4.59,1.44,7.08,1.44,1.87,0,3.64-.27,5.32-.83,1.68-.55,3.16-1.33,4.46-2.33s2.3-2.17,3.02-3.48,1.08-2.72,1.08-4.2v-1.44l1.08,1.01h-15.38v-7.69h22.27c.1.53.17,1.04.22,1.54.05.5.08.98.11,1.44.02.46.04.9.04,1.33,0,3.31-.57,6.31-1.72,9.02-1.15,2.71-2.74,5.04-4.78,7-2.04,1.96-4.41,3.49-7.11,4.56-2.71,1.08-5.64,1.62-8.8,1.62Z"/>
      <path class="cls-4" d="M386.74,169.28c-3.88,0-7.32-.83-10.31-2.48-2.99-1.65-5.34-3.92-7.04-6.79-1.7-2.87-2.55-6.18-2.55-9.92,0-2.97.48-5.68,1.44-8.12.96-2.44,2.29-4.56,3.99-6.36,1.7-1.8,3.74-3.18,6.11-4.17,2.37-.98,4.95-1.47,7.72-1.47,2.44,0,4.72.47,6.83,1.4,2.11.93,3.94,2.22,5.5,3.84,1.56,1.63,2.75,3.56,3.59,5.78.84,2.23,1.23,4.66,1.19,7.29l-.07,3.16h-30.82l-1.65-5.89h26.08l-1.08,1.22v-1.72c-.14-1.58-.67-2.99-1.58-4.24-.91-1.25-2.06-2.23-3.45-2.95-1.39-.72-2.9-1.08-4.53-1.08-2.59,0-4.77.49-6.54,1.47-1.77.98-3.11,2.42-4.02,4.31-.91,1.89-1.36,4.23-1.36,7,0,2.63.55,4.92,1.65,6.86,1.1,1.94,2.66,3.44,4.67,4.49,2.01,1.05,4.33,1.58,6.97,1.58,1.87,0,3.6-.31,5.21-.93,1.6-.62,3.34-1.75,5.21-3.38l3.74,5.25c-1.15,1.15-2.55,2.16-4.2,3.02s-3.4,1.54-5.25,2.05c-1.84.5-3.65.75-5.42.75Z"/>
      <path class="cls-4" d="M429.79,169.28c-3.69,0-6.98-.85-9.88-2.55s-5.19-4.02-6.86-6.97c-1.68-2.95-2.51-6.31-2.51-10.09s.84-7.15,2.51-10.09c1.68-2.95,3.96-5.27,6.86-6.97,2.9-1.7,6.19-2.55,9.88-2.55s6.91.85,9.81,2.55c2.9,1.7,5.18,4.02,6.86,6.97,1.68,2.95,2.51,6.31,2.51,10.09s-.84,7.15-2.51,10.09c-1.68,2.95-3.96,5.27-6.86,6.97-2.9,1.7-6.17,2.55-9.81,2.55ZM429.79,162.53c2.25,0,4.26-.56,6.04-1.69,1.77-1.12,3.16-2.66,4.17-4.6,1.01-1.94,1.48-4.13,1.44-6.57.05-2.49-.43-4.71-1.44-6.65-1.01-1.94-2.4-3.46-4.17-4.56-1.77-1.1-3.78-1.65-6.04-1.65s-4.28.56-6.07,1.69c-1.8,1.13-3.2,2.66-4.2,4.6-1.01,1.94-1.49,4.13-1.44,6.57-.05,2.44.43,4.63,1.44,6.57,1.01,1.94,2.41,3.47,4.2,4.6,1.8,1.13,3.82,1.69,6.07,1.69Z"/>
      <path class="cls-4" d="M459.81,168.56v-50.29h20.48c2.73,0,5.21.68,7.44,2.05s4.01,3.22,5.35,5.57c1.34,2.35,2.01,4.96,2.01,7.83s-.67,5.49-2.01,7.83c-1.34,2.35-3.12,4.23-5.35,5.64s-4.71,2.12-7.44,2.12h-12.72v19.26h-7.76ZM467.57,141.83h12.57c1.29,0,2.47-.37,3.52-1.11,1.05-.74,1.9-1.72,2.55-2.95.65-1.22.97-2.57.97-4.06s-.32-2.83-.97-4.02c-.65-1.2-1.5-2.16-2.55-2.87-1.05-.72-2.23-1.08-3.52-1.08h-12.57v16.09Z"/>
      <path class="cls-4" d="M519.58,169.28c-3.69,0-6.98-.85-9.88-2.55s-5.19-4.02-6.86-6.97c-1.68-2.95-2.51-6.31-2.51-10.09s.84-7.15,2.51-10.09c1.68-2.95,3.96-5.27,6.86-6.97,2.9-1.7,6.19-2.55,9.88-2.55s6.91.85,9.81,2.55c2.9,1.7,5.18,4.02,6.86,6.97,1.68,2.95,2.51,6.31,2.51,10.09s-.84,7.15-2.51,10.09c-1.68,2.95-3.96,5.27-6.86,6.97-2.9,1.7-6.17,2.55-9.81,2.55ZM519.58,162.53c2.25,0,4.26-.56,6.04-1.69,1.77-1.12,3.16-2.66,4.17-4.6,1.01-1.94,1.48-4.13,1.44-6.57.05-2.49-.43-4.71-1.44-6.65-1.01-1.94-2.4-3.46-4.17-4.56-1.77-1.1-3.78-1.65-6.04-1.65s-4.28.56-6.07,1.69c-1.8,1.13-3.2,2.66-4.2,4.6-1.01,1.94-1.49,4.13-1.44,6.57-.05,2.44.43,4.63,1.44,6.57,1.01,1.94,2.41,3.47,4.2,4.6,1.8,1.13,3.82,1.69,6.07,1.69Z"/>
      <path class="cls-4" d="M560.25,169.28c-3.16,0-6.01-.55-8.55-1.65-2.54-1.1-4.65-2.73-6.32-4.89l5.03-4.31c1.44,1.68,3.01,2.89,4.71,3.63,1.7.74,3.63,1.11,5.78,1.11.86,0,1.66-.11,2.41-.32.74-.22,1.39-.54,1.94-.97.55-.43.97-.95,1.26-1.54.29-.6.43-1.26.43-1.98,0-1.24-.46-2.25-1.37-3.02-.48-.33-1.23-.71-2.26-1.11-1.03-.41-2.36-.83-3.99-1.26-2.78-.72-5.05-1.53-6.83-2.44-1.77-.91-3.14-1.94-4.1-3.09-.72-.91-1.25-1.9-1.58-2.98-.33-1.08-.5-2.26-.5-3.56,0-1.58.35-3.03,1.04-4.35s1.65-2.47,2.87-3.45c1.22-.98,2.66-1.74,4.31-2.26,1.65-.53,3.41-.79,5.28-.79s3.53.24,5.28.72c1.75.48,3.36,1.17,4.85,2.08,1.48.91,2.73,1.99,3.74,3.23l-4.24,4.67c-.91-.91-1.9-1.71-2.98-2.41-1.08-.69-2.17-1.23-3.27-1.62-1.1-.38-2.11-.58-3.02-.58-1.01,0-1.92.1-2.73.29-.81.19-1.5.48-2.05.86-.55.38-.97.86-1.26,1.44-.29.57-.43,1.22-.43,1.94.05.62.2,1.21.47,1.76.26.55.63,1.02,1.11,1.4.53.38,1.32.79,2.37,1.22,1.05.43,2.39.84,4.02,1.22,2.39.62,4.37,1.31,5.93,2.05,1.56.74,2.79,1.59,3.7,2.55.96.91,1.63,1.96,2.01,3.16.38,1.2.58,2.54.58,4.02,0,2.16-.61,4.08-1.83,5.78-1.22,1.7-2.86,3.03-4.92,3.99-2.06.96-4.36,1.44-6.9,1.44Z"/>
      <path class="cls-4" d="M580.86,138.03v-7.19h24v7.19h-24ZM588.7,168.56v-47.35h7.4v47.35h-7.4Z"/>
      <path class="cls-4" d="M628.48,169.28c-3.5,0-6.62-.86-9.38-2.59-2.75-1.72-4.93-4.07-6.54-7.04-1.61-2.97-2.41-6.3-2.41-9.99s.8-7.02,2.41-9.99c1.6-2.97,3.78-5.32,6.54-7.04,2.75-1.72,5.88-2.59,9.38-2.59s6.41.68,9.16,2.05c2.75,1.37,4.85,3.22,6.29,5.57l-4.1,5.03c-.77-1.1-1.75-2.11-2.95-3.02-1.2-.91-2.47-1.63-3.81-2.16-1.34-.53-2.63-.79-3.88-.79-2.3,0-4.35.56-6.14,1.69-1.8,1.13-3.22,2.67-4.28,4.63-1.05,1.96-1.58,4.17-1.58,6.61s.55,4.63,1.65,6.57c1.1,1.94,2.56,3.48,4.38,4.63,1.82,1.15,3.83,1.72,6.04,1.72,1.29,0,2.55-.21,3.77-.65,1.22-.43,2.41-1.08,3.56-1.94,1.15-.86,2.23-1.92,3.23-3.16l4.1,5.03c-1.53,2.16-3.72,3.93-6.57,5.32-2.85,1.39-5.81,2.08-8.87,2.08Z"/>
      <path class="cls-4" d="M669.06,169.28c-3.69,0-6.98-.85-9.88-2.55s-5.19-4.02-6.86-6.97c-1.68-2.95-2.51-6.31-2.51-10.09s.84-7.15,2.51-10.09c1.68-2.95,3.96-5.27,6.86-6.97,2.9-1.7,6.19-2.55,9.88-2.55s6.91.85,9.81,2.55c2.9,1.7,5.18,4.02,6.86,6.97,1.68,2.95,2.51,6.31,2.51,10.09s-.84,7.15-2.51,10.09c-1.68,2.95-3.96,5.27-6.86,6.97-2.9,1.7-6.17,2.55-9.81,2.55ZM669.06,162.53c2.25,0,4.26-.56,6.04-1.69,1.77-1.12,3.16-2.66,4.17-4.6,1.01-1.94,1.48-4.13,1.44-6.57.05-2.49-.43-4.71-1.44-6.65-1.01-1.94-2.4-3.46-4.17-4.56-1.77-1.1-3.78-1.65-6.04-1.65s-4.28.56-6.07,1.69c-1.8,1.13-3.2,2.66-4.2,4.6-1.01,1.94-1.49,4.13-1.44,6.57-.05,2.44.43,4.63,1.44,6.57,1.01,1.94,2.41,3.47,4.2,4.6,1.8,1.13,3.82,1.69,6.07,1.69Z"/>
      <path class="cls-4" d="M713.32,169.28c-3.45,0-6.53-.85-9.23-2.55-2.71-1.7-4.85-4.02-6.43-6.97-1.58-2.95-2.37-6.31-2.37-10.09s.78-7.15,2.33-10.09c1.56-2.95,3.68-5.27,6.36-6.97,2.68-1.7,5.72-2.55,9.12-2.55,1.87,0,3.68.3,5.42.9,1.75.6,3.32,1.41,4.71,2.44,1.39,1.03,2.48,2.16,3.27,3.38.79,1.22,1.19,2.46,1.19,3.7l-2.16.14v-25.22h7.4v53.17h-7.4v-8.98h1.44c0,1.15-.38,2.29-1.15,3.41-.77,1.13-1.79,2.17-3.05,3.12-1.27.96-2.73,1.72-4.38,2.3-1.65.57-3.34.86-5.07.86ZM714.32,162.89c2.25,0,4.24-.58,5.96-1.72s3.08-2.72,4.06-4.71c.98-1.99,1.47-4.25,1.47-6.79s-.49-4.8-1.47-6.79c-.98-1.99-2.33-3.56-4.06-4.71s-3.71-1.72-5.96-1.72-4.24.58-5.96,1.72c-1.72,1.15-3.08,2.72-4.06,4.71-.98,1.99-1.47,4.25-1.47,6.79s.49,4.8,1.47,6.79c.98,1.99,2.33,3.56,4.06,4.71,1.72,1.15,3.71,1.72,5.96,1.72Z"/>
      <path class="cls-4" d="M762.04,169.28c-3.88,0-7.32-.83-10.31-2.48-2.99-1.65-5.34-3.92-7.04-6.79-1.7-2.87-2.55-6.18-2.55-9.92,0-2.97.48-5.68,1.44-8.12.96-2.44,2.29-4.56,3.99-6.36,1.7-1.8,3.74-3.18,6.11-4.17,2.37-.98,4.95-1.47,7.72-1.47,2.44,0,4.72.47,6.83,1.4,2.11.93,3.94,2.22,5.5,3.84,1.56,1.63,2.75,3.56,3.59,5.78.84,2.23,1.23,4.66,1.19,7.29l-.07,3.16h-30.82l-1.65-5.89h26.08l-1.08,1.22v-1.72c-.14-1.58-.67-2.99-1.58-4.24-.91-1.25-2.06-2.23-3.45-2.95-1.39-.72-2.9-1.08-4.53-1.08-2.59,0-4.77.49-6.54,1.47-1.77.98-3.11,2.42-4.02,4.31-.91,1.89-1.36,4.23-1.36,7,0,2.63.55,4.92,1.65,6.86,1.1,1.94,2.66,3.44,4.67,4.49,2.01,1.05,4.33,1.58,6.97,1.58,1.87,0,3.6-.31,5.21-.93,1.6-.62,3.34-1.75,5.21-3.38l3.74,5.25c-1.15,1.15-2.55,2.16-4.2,3.02s-3.4,1.54-5.25,2.05c-1.84.5-3.65.75-5.42.75Z"/>
      <path class="cls-4" d="M800.1,169.28c-3.16,0-6.01-.55-8.55-1.65-2.54-1.1-4.65-2.73-6.32-4.89l5.03-4.31c1.44,1.68,3.01,2.89,4.71,3.63,1.7.74,3.63,1.11,5.78,1.11.86,0,1.66-.11,2.41-.32.74-.22,1.39-.54,1.94-.97.55-.43.97-.95,1.26-1.54.29-.6.43-1.26.43-1.98,0-1.24-.46-2.25-1.37-3.02-.48-.33-1.23-.71-2.26-1.11-1.03-.41-2.36-.83-3.99-1.26-2.78-.72-5.05-1.53-6.83-2.44-1.77-.91-3.14-1.94-4.1-3.09-.72-.91-1.25-1.9-1.58-2.98-.33-1.08-.5-2.26-.5-3.56,0-1.58.35-3.03,1.04-4.35s1.65-2.47,2.87-3.45c1.22-.98,2.66-1.74,4.31-2.26,1.65-.53,3.41-.79,5.28-.79s3.53.24,5.28.72c1.75.48,3.36,1.17,4.85,2.08,1.48.91,2.73,1.99,3.74,3.23l-4.24,4.67c-.91-.91-1.9-1.71-2.98-2.41-1.08-.69-2.17-1.23-3.27-1.62-1.1-.38-2.11-.58-3.02-.58-1.01,0-1.92.1-2.73.29-.81.19-1.5.48-2.05.86-.55.38-.97.86-1.26,1.44-.29.57-.43,1.22-.43,1.94.05.62.2,1.21.47,1.76.26.55.63,1.02,1.11,1.4.53.38,1.32.79,2.37,1.22,1.05.43,2.39.84,4.02,1.22,2.39.62,4.37,1.31,5.93,2.05,1.56.74,2.79,1.59,3.7,2.55.96.91,1.63,1.96,2.01,3.16.38,1.2.58,2.54.58,4.02,0,2.16-.61,4.08-1.83,5.78-1.22,1.7-2.86,3.03-4.92,3.99-2.06.96-4.36,1.44-6.9,1.44Z"/>
    </g>
    <g>
      <path class="cls-4" d="M196.41,95.64c-18.2,0-32.95,14.75-32.95,32.95,0,5.96,1.59,11.51,4.33,16.33l24.21,41.93c.98,1.7,2.7,2.54,4.41,2.54,1.71,0,3.43-.85,4.41-2.54l24.21-41.93c2.74-4.82,4.33-10.37,4.33-16.33,0-18.2-14.75-32.95-32.95-32.95ZM196.41,137.91c-6.25,0-11.32-5.07-11.32-11.32s5.07-11.32,11.32-11.32,11.32,5.07,11.32,11.32-5.07,11.32-11.32,11.32Z"/>
      <path class="cls-3" d="M265.66,141.91s-24.21-41.93-24.21-41.93c-.98-1.7-2.7-2.54-4.41-2.54-1.71,0-3.43.85-4.41,2.54,0,0-24.17,41.89-24.21,41.93-2.74,4.82-4.33,10.37-4.33,16.33,0,18.2,14.75,32.95,32.95,32.95s32.95-14.75,32.95-32.95c0-5.96-1.59-11.51-4.33-16.33ZM237.04,171.56c-6.25,0-11.32-5.07-11.32-11.32s5.07-11.32,11.32-11.32,11.32,5.07,11.32,11.32-5.07,11.32-11.32,11.32Z"/>
      <path class="cls-2" d="M229.35,128.59c0-5.76-1.48-11.17-4.07-15.87-7.12,12.33-16.84,29.17-16.86,29.2-2.74,4.82-4.33,10.37-4.33,16.33,0,5.76,1.48,11.17,4.08,15.88l16.86-29.2c2.74-4.82,4.33-10.37,4.33-16.33Z"/>
    </g>
  </g>
</svg>