<?xml version="1.0" encoding="UTF-8" standalone="no"?>
<svg
   id="Calque_1"
   data-name="Calque 1"
   viewBox="0 0 164 74.999999"
   version="1.1"
   sodipodi:docname="spacebel.svg"
   inkscape:version="1.2 (1:1.2.1+202207142221+cd75a1ee6d)"
   inkscape:export-filename="spacebel.png"
   inkscape:export-xdpi="96"
   inkscape:export-ydpi="96"
   width="164"
   height="75"
   xmlns:inkscape="http://www.inkscape.org/namespaces/inkscape"
   xmlns:sodipodi="http://sodipodi.sourceforge.net/DTD/sodipodi-0.dtd"
   xmlns="http://www.w3.org/2000/svg"
   xmlns:svg="http://www.w3.org/2000/svg">
  <sodipodi:namedview
     id="namedview25"
     pagecolor="#ffffff"
     bordercolor="#666666"
     borderopacity="1.0"
     inkscape:showpageshadow="2"
     inkscape:pageopacity="0.0"
     inkscape:pagecheckerboard="0"
     inkscape:deskcolor="#d1d1d1"
     showgrid="false"
     inkscape:zoom="2.4400695"
     inkscape:cx="79.096107"
     inkscape:cy="124.79153"
     inkscape:window-width="1920"
     inkscape:window-height="982"
     inkscape:window-x="0"
     inkscape:window-y="25"
     inkscape:window-maximized="1"
     inkscape:current-layer="Calque_1" />
  <defs
     id="defs4">
    <style
       id="style2">.cls-1{fill:#fff;}</style>
  </defs>
  <path
     class="cls-1"
     d="m 31.292466,49.453051 h 4.641535 a 0.51875984,0.51875984 0 0 0 0.273032,-0.136515 c 0.477805,-0.614321 1.023868,-1.228642 1.501673,-1.842963 2.662057,-3.20812 5.255857,-6.41624 7.917914,-9.692618 l 0.204773,-0.204774 c -0.06826,2.593799 -0.06826,5.119341 -0.136516,7.71314 h -3.549409 a 0.62114666,0.62114666 0 0 0 -0.477805,0.204774 c -0.95561,1.228641 -1.979478,2.457283 -3.003347,3.685925 -0.06826,0.06826 -0.06826,0.136516 -0.136515,0.204773 H 49.995124 C 49.858608,41.944685 49.653834,34.572835 49.517318,27.064469 43.37411,34.641093 37.367417,42.012943 31.292466,49.453051 Z m -11.603839,0 h 3.822441 c 0.273032,0 0.409548,-0.06826 0.477805,-0.341289 0.887353,-3.071604 1.842963,-6.143209 2.730315,-9.214813 0.06826,-0.204774 0.136516,-0.273032 0.34129,-0.273032 1.160384,0 2.320768,0 3.481151,-0.06826 a 13.815394,13.815394 0 0 0 3.754183,-0.477806 5.0715601,5.0715601 0 0 0 3.208121,-2.457283 7.9725197,7.9725197 0 0 0 0.819094,-4.368504 4.0545177,4.0545177 0 0 0 -2.389026,-3.549409 6.743878,6.743878 0 0 0 -3.071604,-0.682579 h -6.552756 c -0.204773,0 -0.273031,0.06826 -0.341289,0.273031 -0.34129,1.160384 -0.682579,2.25251 -1.023868,3.412894 -0.06826,0.136516 -0.06826,0.273031 -0.136516,0.409547 h 0.409547 c 2.457284,0 4.982825,0 7.440109,0.06826 a 5.2695079,5.2695079 0 0 1 1.023868,0.136516 1.283248,1.283248 0 0 1 1.023868,0.819094 2.0477362,2.0477362 0 0 1 -1.023868,2.320768 5.8087451,5.8087451 0 0 1 -1.501674,0.273032 h -8.190945 a 0.31398622,0.31398622 0 0 0 -0.341289,0.204773 C 22.4872,39.896949 21.258559,43.855906 20.098175,47.88312 a 6.6687943,6.6687943 0 0 1 -0.409548,1.569931 z M 71.428096,28.770915 c 0,-0.06826 -0.06826,-0.06826 -0.06826,-0.136515 l -0.819094,-0.409548 a 8.4093701,8.4093701 0 0 0 -4.846309,-0.409547 12.968996,12.968996 0 0 0 -8.737008,5.801919 15.822175,15.822175 0 0 0 -2.457284,6.211467 15.160074,15.160074 0 0 0 -0.204773,4.641535 6.0271703,6.0271703 0 0 0 4.709793,5.119341 10.061211,10.061211 0 0 0 5.324114,-0.204774 11.085079,11.085079 0 0 0 2.730315,-1.296899 c -0.614321,-1.023868 -1.2969,-2.115994 -1.91122,-3.139862 -0.06826,0.06826 -0.204774,0.06826 -0.273032,0.136515 a 6.4981496,6.4981496 0 0 1 -4.231988,0.614321 2.2525098,2.2525098 0 0 1 -1.979478,-1.774705 6.8735679,6.8735679 0 0 1 -0.204774,-1.706446 12.839306,12.839306 0 0 1 1.092126,-4.778052 10.102165,10.102165 0 0 1 3.549409,-4.505019 5.8906545,5.8906545 0 0 1 4.778052,-0.955611 0.72353347,0.72353347 0 0 0 0.341289,-0.136515 l 1.433415,-1.433416 c 0.546063,-0.546063 1.160384,-1.092126 1.774705,-1.638189 z M 132.9967,57.166191 h -32.35423 c 8.80526,7.167077 22.66161,7.71314 32.35423,0 z M 22.4872,28.088337 h -4.436762 a 3.7814862,3.7814862 0 0 0 -1.228641,0.136515 5.8360482,5.8360482 0 0 0 -4.641536,4.095473 c -1.092126,3.481151 -2.115994,6.962303 -3.2081198,10.511712 a 2.1091683,2.1091683 0 0 1 -0.7508367,1.092126 5.1466437,5.1466437 0 0 1 -2.7303149,1.160384 21.200896,21.200896 0 0 1 -2.184252,0.273032 c -0.4095472,1.365157 -0.8190945,2.730315 -1.2286417,4.16373 a 21.45345,21.45345 0 0 0 3.6859252,-0.204773 10.177249,10.177249 0 0 0 4.8463089,-1.979479 5.842874,5.842874 0 0 0 2.184252,-3.071604 c 0.887352,-3.003347 1.842963,-6.074951 2.730315,-9.078297 a 12.736919,12.736919 0 0 1 0.477805,-1.501674 1.8702658,1.8702658 0 0 1 1.979479,-1.433415 h 2.935088 a 0.31398622,0.31398622 0 0 0 0.34129,-0.204774 c 0.204773,-0.819094 0.477805,-1.638189 0.750836,-2.525541 0.204774,-0.546063 0.34129,-0.95561 0.477805,-1.433415 z m 52.149016,17.269242 c 0,-0.136516 0.06826,-0.204774 0.06826,-0.273032 0.409547,-1.365157 0.819094,-2.798573 1.228642,-4.16373 0.06826,-0.273031 0.204773,-0.341289 0.409547,-0.341289 h 7.576624 c 0.204774,0 0.273032,-0.06826 0.341289,-0.273032 0.204774,-0.819094 0.477806,-1.569931 0.750837,-2.389025 0.136516,-0.477806 0.273032,-0.955611 0.409547,-1.501674 H 73.066285 c -1.2969,4.300246 -2.593799,8.66875 -3.890699,12.968996 H 81.25723 c 0.136516,0 0.204774,-0.06826 0.273031,-0.204773 0.273032,-0.819095 0.477806,-1.706447 0.750837,-2.525542 0.136516,-0.477805 0.273032,-0.887352 0.409547,-1.365157 -2.593799,0.06826 -5.324114,0.06826 -8.054429,0.06826 z M 88.014759,28.156595 H 75.864858 c -0.136516,0 -0.204774,0.06826 -0.273032,0.204773 -0.341289,1.2969 -0.750836,2.525542 -1.160383,3.822441 a 0.25255413,0.25255413 0 0 1 -0.06826,0.204774 h 11.467323 c 0.273031,0 0.61432,0.06826 0.819094,-0.06826 0.204774,-0.136516 0.204774,-0.477805 0.273031,-0.750837 0.409548,-1.160384 0.750837,-2.320767 1.092126,-3.412893 z"
     id="path6"
     style="fill:#0000fe;fill-opacity:1;stroke-width:0.682579" />
  <path
     class="cls-1"
     d="m 116.88784,10 c 0.0683,0 0.13652,0.06826 0.20477,0.06826 a 25.419232,25.419232 0 0 1 5.05109,0.546063 26.361191,26.361191 0 0 1 18.77091,15.08499 23.658179,23.658179 0 0 1 1.91122,6.484498 27.023292,27.023292 0 0 1 0.0683,7.781398 27.30315,27.30315 0 0 1 -1.22864,5.187598 c -0.0683,0.136516 -0.13652,0.204774 -0.27303,0.204774 h -10.30694 c 1.70644,-5.733662 3.41289,-11.467323 5.1876,-17.269242 h -3.8907 a 0.31398622,0.31398622 0 0 0 -0.34129,0.204773 c -1.56993,5.324114 -3.20812,10.648229 -4.77805,15.972343 l -1.43342,4.914567 c 0,0.06826 -0.0683,0.136516 -0.0683,0.273031 h 13.99287 a 25.419232,25.419232 0 0 1 -4.02722,5.324114 h 15.28977 c -0.88736,-1.228641 -1.77471,-2.389025 -2.66206,-3.617667 v -0.06826 c 1.22864,0.614321 2.52554,1.2969 3.82244,1.979479 0.34129,-4.709794 0.68258,-9.419587 1.02387,-14.061122 v 0 c 0.34129,4.641535 0.75084,9.214813 1.09213,13.924606 1.22864,-0.819095 2.45728,-1.569931 3.61766,-2.320768 l 0.0683,0.06826 c -0.81909,1.365158 -1.56993,2.730315 -2.38903,4.095472 l 8.66875,1.228642 v 0 l -8.737,0.819095 c 1.09212,1.433415 2.18425,2.798573 3.27638,4.16373 v 0.06826 c -1.43342,-0.887352 -2.79858,-1.774705 -4.23199,-2.662057 -0.40955,2.184252 -0.8191,4.300246 -1.22864,6.484498 v 0 c -0.20478,-2.25251 -0.47781,-4.50502 -0.75084,-6.825788 -1.22864,0.682579 -2.45729,1.2969 -3.61767,1.911221 l -0.0683,-0.06826 c 0.68258,-0.95561 1.36516,-1.842963 2.116,-2.798573 h -17.74705 c 0.88735,-0.750836 1.70645,-1.501673 2.52554,-2.25251 a 0.06825787,0.06825787 0 0 0 -0.0683,-0.06826 H 98.185183 a 0.06825787,0.06825787 0 0 1 -0.06826,0.06826 c 0.819094,0.750837 1.638189,1.433416 2.457287,2.184252 H 0.03035964 a 1.4743701,1.4743701 0 0 1 0.06825788,-0.750836 c 0.13651575,-0.409548 0.2730315,-0.887353 0.40954724,-1.2969 0.0682579,-0.136516 0.13651575,-0.204774 0.2730315,-0.204774 H 97.912151 a 27.30315,27.30315 0 0 1 -4.027214,-5.324114 h 0.341289 c 1.979478,0 4.027215,0.06826 6.006694,0 a 10.593622,10.593622 0 0 0 5.87018,-1.774704 6.8667421,6.8667421 0 0 0 3.00334,-5.597146 A 3.9862599,3.9862599 0 0 0 107.4,38.463534 c -0.13652,-0.06826 -0.27304,-0.204774 -0.40955,-0.273032 0.40955,-0.273031 0.75084,-0.477805 1.16038,-0.750837 a 6.0749508,6.0749508 0 0 0 2.18425,-3.822441 4.5459744,4.5459744 0 0 0 -0.27303,-3.003346 4.1637303,4.1637303 0 0 0 -3.20812,-2.389026 7.6039272,7.6039272 0 0 0 -1.16038,-0.136515 h -8.532235 c -0.204774,0 -0.273032,0.06826 -0.34129,0.273031 -0.341289,1.228642 -0.682578,2.389026 -1.092126,3.617667 0,0.06826 0,0.06826 -0.06826,0.204774 h 8.600491 a 4.5050197,4.5050197 0 0 1 0.95561,0.06826 1.2968996,1.2968996 0 0 1 1.09213,1.433415 3.016998,3.016998 0 0 1 -3.13986,3.003347 h -8.532239 c -0.273031,0 -0.341289,0.06826 -0.409547,0.341289 -0.273031,1.023868 -0.614321,2.047736 -0.95561,3.071605 0,0.06826 -0.06826,0.204773 -0.06826,0.273031 h 9.146556 a 8.3615896,8.3615896 0 0 1 1.2969,0.136516 1.7883563,1.7883563 0 0 1 1.43342,2.457283 3.0989075,3.0989075 0 0 1 -2.18425,2.115994 4.9623475,4.9623475 0 0 1 -1.70645,0.273032 h -8.805267 a 0.37541831,0.37541831 0 0 1 -0.409547,-0.273034 27.985728,27.985728 0 0 1 -1.433415,-6.621013 26.388494,26.388494 0 0 1 0.819094,-8.941782 25.937992,25.937992 0 0 1 6.347983,-11.330807 25.125723,25.125723 0 0 1 9.692622,-6.41624 24.170113,24.170113 0 0 1 6.55275,-1.569931 c 0.8191,-0.06826 1.63819,-0.06826 2.38903,-0.136516 A 0.61432087,0.61432087 0 0 0 116.68307,10 Z m 9.21481,26.484055 h -11.94512 c -0.27304,0 -0.34129,0.06826 -0.40955,0.34129 l -3.27638,10.853002 c -0.20477,0.61432 -0.34129,1.228641 -0.54606,1.842962 h 12.08164 c 0.20477,0 0.27303,-0.06826 0.27303,-0.204773 0.27303,-0.887353 0.47781,-1.706447 0.75084,-2.5938 0.13651,-0.409547 0.27303,-0.887352 0.40955,-1.296899 h -8.19095 c 0,-0.06826 0.0683,-0.136516 0.0683,-0.204774 0.40955,-1.433415 0.81909,-2.798573 1.22864,-4.231988 0.0683,-0.204774 0.13652,-0.273032 0.40955,-0.273032 h 7.57662 c 0.20478,0 0.27303,-0.06826 0.34129,-0.273031 0.20478,-0.750837 0.47781,-1.569931 0.68258,-2.320768 0.20477,-0.546063 0.34129,-1.092126 0.54606,-1.638189 z m -11.12603,-4.16373 h 12.08164 c 0.20478,0 0.27304,-0.06826 0.27304,-0.273032 0.20477,-0.682578 0.40954,-1.433415 0.61432,-2.115994 0.20477,-0.682578 0.34129,-1.228641 0.54606,-1.842962 h -12.1499 c -0.13652,0 -0.20478,0.06826 -0.27303,0.204773 l -0.8191,2.866831 a 4.0476919,4.0476919 0 0 1 -0.27303,1.160384 z"
     id="path8"
     style="fill:#0000fe;fill-opacity:1;stroke-width:0.682579" />
  <path
     class="cls-1"
     d="m 31.292466,49.453051 c 6.074951,-7.440108 12.081644,-14.811958 18.156595,-22.320325 0.136515,7.508367 0.341289,14.880217 0.477805,22.320325 H 38.459543 c 0.06826,-0.06826 0.06826,-0.136515 0.136516,-0.204773 1.023868,-1.228642 1.979478,-2.457284 3.003346,-3.685926 a 0.62114666,0.62114666 0 0 1 0.477805,-0.204773 h 3.54941 c 0.06826,-2.593799 0.06826,-5.119341 0.136515,-7.71314 l -0.204773,0.204774 c -2.662057,3.20812 -5.255857,6.41624 -7.917914,9.692618 -0.477805,0.614321 -0.95561,1.228642 -1.501673,1.842962 a 0.51875984,0.51875984 0 0 1 -0.273031,0.136516 h -4.50502 c 0,-0.06826 0,-0.06826 -0.06826,-0.06826 z"
     id="path10"
     style="fill:#0000fe;fill-opacity:1;stroke-width:0.682579" />
  <path
     class="cls-1"
     d="m 19.688627,49.453051 c 0.136516,-0.546063 0.34129,-1.092126 0.477806,-1.569931 1.160383,-3.958957 2.389025,-7.917913 3.549409,-11.945128 0.06826,-0.204773 0.136516,-0.204773 0.341289,-0.204773 h 8.190945 a 5.8087451,5.8087451 0 0 0 1.501673,-0.273032 1.9521752,1.9521752 0 0 0 1.023869,-2.320768 1.5289764,1.5289764 0 0 0 -1.023869,-0.819094 5.2695079,5.2695079 0 0 0 -1.023868,-0.136516 c -2.457283,0 -4.982824,0 -7.440108,-0.06826 h -0.409547 c 0.06826,-0.136516 0.06826,-0.273031 0.136516,-0.409547 0.341289,-1.160384 0.682578,-2.25251 1.023868,-3.412894 0.06826,-0.204773 0.136515,-0.273031 0.341289,-0.273031 h 6.552756 a 6.9486516,6.9486516 0 0 1 3.071604,0.682579 3.9726083,3.9726083 0 0 1 2.389026,3.549409 8.0885581,8.0885581 0 0 1 -0.819095,4.368504 5.0715601,5.0715601 0 0 1 -3.20812,2.457283 13.815394,13.815394 0 0 1 -3.754183,0.477806 c -1.160384,0 -2.320767,0 -3.481151,0.06826 -0.204774,0 -0.34129,0.06826 -0.34129,0.273032 -0.887352,3.071604 -1.842962,6.143209 -2.730315,9.214813 -0.06826,0.273031 -0.204773,0.341289 -0.477805,0.341289 z"
     id="path12"
     style="fill:#0000fe;fill-opacity:1;stroke-width:0.682579" />
  <path
     class="cls-1"
     d="m 71.428096,28.770915 a 20.955167,20.955167 0 0 0 -1.774705,1.706447 l -1.433415,1.433416 a 0.51875984,0.51875984 0 0 1 -0.341289,0.136515 5.8906545,5.8906545 0 0 0 -4.778052,0.955611 9.6584892,9.6584892 0 0 0 -3.549409,4.505019 12.839306,12.839306 0 0 0 -1.092126,4.778051 7.289941,7.289941 0 0 0 0.204774,1.706447 2.409503,2.409503 0 0 0 1.979478,1.774705 6.0954282,6.0954282 0 0 0 4.231988,-0.614321 c 0.06826,-0.06826 0.204774,-0.06826 0.273032,-0.136516 0.61432,1.023869 1.296899,2.115995 1.91122,3.139863 a 14.252244,14.252244 0 0 1 -2.730315,1.296899 9.440064,9.440064 0 0 1 -5.324114,0.204774 6.0271703,6.0271703 0 0 1 -4.709793,-5.119341 11.781309,11.781309 0 0 1 0.204773,-4.641535 16.245374,16.245374 0 0 1 2.457284,-6.211467 12.968996,12.968996 0 0 1 8.737008,-5.801919 8.4093701,8.4093701 0 0 1 4.846309,0.409547 l 0.819094,0.409548 c 0,-0.06826 0.06826,0 0.06826,0.06826 z"
     id="path14"
     style="fill:#0000fe;fill-opacity:1;stroke-width:0.682579" />
  <path
     class="cls-1"
     d="m 132.9967,57.166191 c -9.62436,7.71314 -23.54897,7.167077 -32.35423,0 z"
     id="path16"
     style="fill:#0000fe;fill-opacity:1;stroke-width:0.682579" />
  <path
     class="cls-1"
     d="m 22.4872,28.088337 c -0.136515,0.477805 -0.273031,0.95561 -0.409547,1.365157 -0.273031,0.819095 -0.477805,1.638189 -0.750837,2.525541 -0.06826,0.204774 -0.136515,0.204774 -0.341289,0.204774 h -2.935089 a 1.9180463,1.9180463 0 0 0 -1.979478,1.433415 12.736919,12.736919 0 0 1 -0.477805,1.501674 c -0.887352,3.003346 -1.842963,6.074951 -2.730315,9.078297 a 6.2387697,6.2387697 0 0 1 -2.184252,3.071604 9.7881792,9.7881792 0 0 1 -4.846309,1.979479 22.258893,22.258893 0 0 1 -3.6859253,0.204773 l 1.2286418,-4.095472 c 0.7508366,-0.06826 1.4334153,-0.136516 2.184252,-0.273032 A 5.4606299,5.4606299 0 0 0 8.2895624,43.924163 2.1091683,2.1091683 0 0 0 9.040399,42.832037 c 1.023868,-3.549409 2.115994,-7.030561 3.20812,-10.57997 a 5.7404872,5.7404872 0 0 1 4.641536,-4.095472 7.5083662,7.5083662 0 0 1 1.228641,-0.136516 c 1.365158,0 2.866831,0.06826 4.368504,0.06826 z"
     id="path18"
     style="fill:#0000fe;fill-opacity:1;stroke-width:0.682579" />
  <path
     class="cls-1"
     d="m 74.636216,45.357579 h 8.122687 c -0.136516,0.477805 -0.273031,0.95561 -0.409547,1.365157 -0.273032,0.819095 -0.477805,1.706447 -0.750837,2.525542 -0.06826,0.136515 -0.06826,0.204773 -0.273031,0.204773 H 69.243844 c 1.2969,-4.300246 2.593799,-8.66875 3.890699,-12.968996 h 12.354675 c -0.136516,0.477805 -0.273031,0.95561 -0.409547,1.501673 -0.273032,0.819095 -0.477805,1.569932 -0.750837,2.389026 -0.06826,0.204774 -0.136515,0.273032 -0.341289,0.273032 h -7.576624 c -0.273032,0 -0.34129,0.06826 -0.409547,0.341289 -0.409548,1.365157 -0.819095,2.798573 -1.228642,4.16373 -0.06826,0.06826 -0.06826,0.136516 -0.136516,0.204774 z"
     id="path20"
     style="fill:#0000fe;fill-opacity:1;stroke-width:0.682579" />
  <path
     class="cls-1"
     d="m 88.014759,28.156595 c -0.341289,1.160383 -0.682578,2.252509 -1.023868,3.344635 a 1.9248721,1.9248721 0 0 1 -0.273031,0.750837 c -0.204774,0.136516 -0.546063,0.06826 -0.819095,0.06826 H 74.431443 a 0.25255413,0.25255413 0 0 1 0.06826,-0.204774 c 0.409548,-1.296899 0.750837,-2.525541 1.160384,-3.822441 0.06826,-0.136515 0.06826,-0.204773 0.273032,-0.204773 h 12.013386 c -0.06826,0 0,0 0.06826,0.06826 z"
     id="path22"
     style="fill:#0000fe;fill-opacity:1;stroke-width:0.682579" />
</svg>
