<?xml version="1.0" encoding="utf-8"?>
<!-- Generator: Adobe Illustrator 15.0.0, SVG Export Plug-In . SVG Version: 6.00 Build 0)  -->
<!DOCTYPE svg PUBLIC "-//W3C//DTD SVG 1.1//EN" "http://www.w3.org/Graphics/SVG/1.1/DTD/svg11.dtd">
<svg version="1.1" id="Layer_1" xmlns="http://www.w3.org/2000/svg" xmlns:xlink="http://www.w3.org/1999/xlink" x="0px" y="0px"
	 width="476.802px" height="149.197px" viewBox="0 0 476.802 149.197" enable-background="new 0 0 476.802 149.197"
	 xml:space="preserve">
<g>
	<path d="M9.555,33.417H1.083c0.125-4.644,1.161-7.97,3.106-9.978c2.51-2.604,6.291-3.907,11.343-3.907
		c5.459,0,9.382,1.569,11.767,4.707c1.412,1.883,2.212,3.954,2.4,6.213c0.125,1.506,0.188,3.546,0.188,6.119v29.605h-8.425v-4.942
		c-2.667,3.734-6.338,5.601-11.013,5.601c-3.923,0-6.7-1.317-8.331-3.953C0.706,60.622,0,57.438,0,53.327
		c0-4.549,0.989-7.954,2.965-10.213c2.354-2.698,6.558-4.33,12.614-4.895c1.506-0.157,3.467-0.313,5.883-0.471v-4.33
		c0-2.573-0.235-4.33-0.706-5.271c-0.879-1.757-2.699-2.636-5.46-2.636c-2.479,0-4.158,0.911-5.036,2.73
		C9.853,29.056,9.617,30.782,9.555,33.417z M21.462,43.725c-4.456,0.157-7.578,0.785-9.366,1.882
		c-2.447,1.476-3.671,4.001-3.671,7.578c0,4.55,1.709,6.825,5.13,6.825c2.102,0,3.922-0.8,5.46-2.4
		c1.192-1.255,1.945-2.808,2.259-4.66c0.125-0.722,0.188-2.118,0.188-4.189V43.725z"/>
	<path d="M52.103,8.048v12.144h7.154v6.26h-7.154v27.11c0,2.636,0.062,4.158,0.188,4.565c0.313,0.879,0.753,1.491,1.318,1.835
		c0.439,0.251,1.271,0.393,2.495,0.424h3.153v5.789h-6.024c-3.985-0.062-6.715-1.019-8.189-2.871
		c-0.785-1.004-1.224-2.149-1.318-3.436c-0.032-0.094-0.047-1.396-0.047-3.906V26.452h-6.025v-6.26h6.025v-8.708L52.103,8.048z"/>
	<path d="M97.004,45.325H75.307v4.801c0,3.797,0.455,6.495,1.365,8.096c1.036,1.789,2.824,2.683,5.366,2.683
		c2.071,0,3.749-0.659,5.036-1.977c1.13-1.161,1.71-3.467,1.742-6.919h8.189c-0.126,4.362-0.958,7.625-2.495,9.79
		c-2.417,3.358-6.605,5.036-12.567,5.036c-7.719,0-12.425-3.059-14.12-9.178c-0.597-2.102-0.895-7.766-0.895-16.991
		c0-7.75,0.769-12.88,2.306-15.391c2.354-3.828,6.589-5.742,12.708-5.742c6.15,0,10.308,1.726,12.473,5.177
		c1.192,1.883,1.93,4.111,2.212,6.684c0.25,2.322,0.376,4.879,0.376,7.672V45.325z M88.485,39.065v-2.871
		c0-3.64-0.346-6.244-1.036-7.813c-0.847-1.945-2.746-2.918-5.695-2.918c-2.071,0-3.609,0.47-4.613,1.412
		c-1.224,1.193-1.835,4.064-1.835,8.613v3.577H88.485z"/>
	<path d="M113.808,0v66.176h-8.425V0H113.808z"/>
	<path d="M131.928,0v8.896h-9.178V0H131.928z M131.551,20.192v45.984h-8.425V20.192H131.551z"/>
	<path d="M169.911,45.325h-21.698v4.801c0,3.797,0.455,6.495,1.365,8.096c1.036,1.789,2.824,2.683,5.366,2.683
		c2.071,0,3.749-0.659,5.036-1.977c1.13-1.161,1.71-3.467,1.742-6.919h8.189c-0.126,4.362-0.958,7.625-2.495,9.79
		c-2.417,3.358-6.605,5.036-12.567,5.036c-7.719,0-12.425-3.059-14.12-9.178c-0.597-2.102-0.895-7.766-0.895-16.991
		c0-7.75,0.769-12.88,2.306-15.391c2.354-3.828,6.589-5.742,12.708-5.742c6.15,0,10.308,1.726,12.473,5.177
		c1.192,1.883,1.93,4.111,2.212,6.684c0.25,2.322,0.376,4.879,0.376,7.672V45.325z M161.392,39.065v-2.871
		c0-3.64-0.346-6.244-1.036-7.813c-0.847-1.945-2.746-2.918-5.695-2.918c-2.071,0-3.609,0.47-4.613,1.412
		c-1.224,1.193-1.835,4.064-1.835,8.613v3.577H161.392z"/>
	<path d="M178.382,20.192h8.425v6.683c1.098-2.698,2.196-4.581,3.294-5.648c1.161-1.129,2.934-1.694,5.318-1.694
		c0.283,0,1.036,0,2.259,0v7.342c-0.973-0.062-1.741-0.094-2.306-0.094c-3.106,0-5.318,0.847-6.636,2.542
		c-1.287,1.6-1.93,4.612-1.93,9.037v27.816h-8.425V20.192z"/>
</g>
<g>
	<path d="M28.193,100.105H19.58c-0.094-2.478-0.299-4.282-0.612-5.412c-0.628-2.26-2.212-3.389-4.754-3.389
		c-2.229,0-3.718,0.973-4.471,2.918c-0.534,1.412-0.816,4.409-0.847,8.99c0,0.973-0.032,2.824-0.094,5.554c0,0.847,0,1.443,0,1.788
		c0,5.335,0.157,9.053,0.471,11.154c0.533,3.327,2.322,4.99,5.366,4.99c2.259,0,3.812-0.91,4.659-2.73
		c0.69-1.475,1.036-3.592,1.036-6.354h8.472c0,3.2-0.361,5.711-1.083,7.53c-1.036,2.542-2.871,4.503-5.507,5.884
		c-2.009,1.066-4.535,1.6-7.578,1.6c-6.213,0-10.261-1.945-12.144-5.836c-1.129-2.354-1.773-5.742-1.93-10.166
		c-0.125-2.793-0.188-5.334-0.188-7.625c0-5.178,0.078-8.959,0.235-11.344c0.564-8.221,5.067-12.331,13.508-12.331
		c6.213,0,10.338,1.867,12.378,5.601C27.314,92.433,27.879,95.494,28.193,100.105z"/>
	<path d="M45.722,99.211H37.25c0.125-4.644,1.161-7.97,3.106-9.978c2.51-2.605,6.291-3.907,11.343-3.907
		c5.459,0,9.382,1.569,11.767,4.706c1.412,1.883,2.212,3.954,2.4,6.213c0.125,1.507,0.188,3.547,0.188,6.119v29.605h-8.425v-4.942
		c-2.667,3.734-6.338,5.601-11.013,5.601c-3.923,0-6.7-1.317-8.331-3.953c-1.412-2.26-2.118-5.443-2.118-9.555
		c0-4.549,0.989-7.954,2.965-10.213c2.354-2.699,6.558-4.33,12.614-4.896c1.506-0.157,3.467-0.313,5.883-0.471v-4.33
		c0-2.573-0.235-4.33-0.706-5.271c-0.879-1.757-2.699-2.636-5.46-2.636c-2.479,0-4.158,0.91-5.036,2.73
		C46.02,94.85,45.784,96.576,45.722,99.211z M57.629,109.519c-4.456,0.157-7.578,0.785-9.366,1.883
		c-2.447,1.475-3.671,4-3.671,7.578c0,4.549,1.709,6.824,5.13,6.824c2.102,0,3.922-0.801,5.46-2.4
		c1.192-1.255,1.945-2.809,2.259-4.66c0.125-0.721,0.188-2.117,0.188-4.188V109.519z"/>
	<path d="M74.497,85.986h8.425v6.684c1.098-2.699,2.196-4.581,3.294-5.648c1.161-1.129,2.934-1.694,5.318-1.694
		c0.283,0,1.036,0,2.259,0v7.343c-0.973-0.062-1.741-0.094-2.306-0.094c-3.106,0-5.318,0.847-6.636,2.541
		c-1.287,1.6-1.93,4.612-1.93,9.037v27.816h-8.425V85.986z"/>
	<path d="M114.042,73.842v12.144h7.154v6.26h-7.154v27.11c0,2.636,0.062,4.157,0.188,4.565c0.313,0.879,0.753,1.49,1.318,1.836
		c0.439,0.251,1.271,0.393,2.495,0.424h3.153v5.789h-6.024c-3.985-0.062-6.715-1.02-8.189-2.871
		c-0.785-1.004-1.224-2.149-1.318-3.437c-0.032-0.094-0.047-1.396-0.047-3.906V92.246h-6.025v-6.26h6.025v-8.708L114.042,73.842z"/>
	<path d="M144.023,85.327c7.217,0,11.845,2.526,13.885,7.577c1.004,2.542,1.506,7.484,1.506,14.826
		c0,6.213-0.205,10.811-0.612,13.791c-0.973,7.406-5.806,11.107-14.497,11.107c-7.845,0-12.52-3.105-14.026-9.318
		c-0.628-2.511-0.941-7.767-0.941-15.768c0-7.438,0.548-12.395,1.647-14.873C133.12,87.774,137.465,85.327,144.023,85.327z
		 M144.306,91.304c-3.452,0-5.476,1.647-6.072,4.941c-0.314,1.789-0.471,5.916-0.471,12.379c0,7.248,0.298,11.955,0.895,14.12
		c0.721,2.636,2.588,3.954,5.601,3.954c3.263,0,5.271-1.632,6.024-4.896c0.471-1.977,0.706-6.511,0.706-13.603
		c0-6.651-0.173-10.746-0.518-12.284C149.781,92.841,147.726,91.304,144.306,91.304z"/>
	<path d="M198.244,85.986v44.384c0,4.706-0.188,7.828-0.564,9.366c-0.816,3.2-2.683,5.616-5.601,7.248
		c-2.667,1.475-5.727,2.213-9.178,2.213c-4.393,0-7.829-1.115-10.308-3.342c-2.196-1.978-3.311-4.99-3.341-9.037
		c0-0.158,0-0.629,0-1.412h8.896c0.094,0.973,0.141,1.615,0.141,1.93c0.188,2.165,0.596,3.607,1.224,4.33
		c0.941,1.035,2.306,1.553,4.095,1.553c2.384,0,4.126-0.816,5.225-2.447c0.659-0.973,0.988-3.248,0.988-6.824v-7.39
		c-2.479,3.075-5.727,4.612-9.743,4.612c-3.734,0-6.668-1.381-8.802-4.142c-1.569-2.071-2.511-5.13-2.824-9.179
		c-0.157-2.227-0.235-5.334-0.235-9.318c0-5.555,0.078-9.382,0.235-11.484c0.345-4.143,1.819-7.217,4.424-9.225
		c2.133-1.663,4.769-2.495,7.907-2.495c2.667,0,4.848,0.581,6.542,1.741c0.816,0.534,1.647,1.443,2.495,2.73v-3.812H198.244z
		 M189.819,112.908v-10.072c0-4.11-0.376-6.871-1.129-8.283c-0.471-0.848-1.224-1.569-2.259-2.166
		c-1.224-0.721-2.542-1.082-3.954-1.082c-2.793,0-4.535,1.161-5.225,3.482c-0.282,0.974-0.471,5.288-0.564,12.943
		c0.062,7.688,0.219,12.002,0.47,12.943c0.377,1.35,1.036,2.417,1.977,3.201c1.098,0.879,2.384,1.317,3.859,1.317
		c1.914,0,3.451-0.675,4.613-2.023c0.941-1.099,1.537-2.384,1.788-3.86C189.678,117.521,189.819,115.386,189.819,112.908z"/>
	<path d="M208.646,85.986h8.425v6.684c1.098-2.699,2.196-4.581,3.294-5.648c1.161-1.129,2.934-1.694,5.318-1.694
		c0.283,0,1.036,0,2.259,0v7.343c-0.973-0.062-1.741-0.094-2.306-0.094c-3.106,0-5.318,0.847-6.636,2.541
		c-1.287,1.6-1.93,4.612-1.93,9.037v27.816h-8.425V85.986z"/>
	<path d="M243.116,99.211h-8.472c0.126-4.644,1.161-7.97,3.106-9.978c2.51-2.605,6.291-3.907,11.344-3.907
		c5.459,0,9.381,1.569,11.766,4.706c1.412,1.883,2.213,3.954,2.4,6.213c0.125,1.507,0.189,3.547,0.189,6.119v29.605h-8.426v-4.942
		c-2.667,3.734-6.338,5.601-11.014,5.601c-3.922,0-6.699-1.317-8.33-3.953c-1.412-2.26-2.119-5.443-2.119-9.555
		c0-4.549,0.989-7.954,2.965-10.213c2.354-2.699,6.558-4.33,12.614-4.896c1.506-0.157,3.467-0.313,5.883-0.471v-4.33
		c0-2.573-0.235-4.33-0.705-5.271c-0.879-1.757-2.699-2.636-5.461-2.636c-2.479,0-4.158,0.91-5.035,2.73
		C243.415,94.85,243.179,96.576,243.116,99.211z M255.024,109.519c-4.455,0.157-7.578,0.785-9.366,1.883
		c-2.447,1.475-3.671,4-3.671,7.578c0,4.549,1.709,6.824,5.13,6.824c2.103,0,3.923-0.801,5.46-2.4
		c1.191-1.255,1.945-2.809,2.26-4.66c0.125-0.721,0.188-2.117,0.188-4.188V109.519z"/>
	<path d="M273.192,85.986h8.425v3.766c2.385-2.949,5.396-4.425,9.037-4.425c3.701,0,6.684,1.161,8.941,3.483
		c1.57,1.6,2.574,3.859,3.014,6.777c0.344,2.229,0.518,6.715,0.518,13.461c0,8.253-0.439,13.539-1.318,15.861
		c-0.941,2.511-2.572,4.456-4.895,5.836c-2.07,1.255-4.361,1.883-6.871,1.883c-2.104,0-3.955-0.455-5.555-1.365
		c-0.785-0.471-1.742-1.317-2.871-2.541v20.475h-8.425V85.986z M281.617,102.882v12.19c0,3.546,0.299,6.056,0.895,7.53
		c0.471,1.193,1.191,2.15,2.164,2.871c1.1,0.816,2.322,1.225,3.672,1.225c3.201,0,5.146-1.977,5.836-5.931
		c0.346-2.04,0.518-5.663,0.518-10.872c0-7.405-0.156-11.798-0.471-13.18c-0.783-3.607-2.775-5.412-5.977-5.412
		c-2.699,0-4.598,1.271-5.695,3.812C281.93,96.623,281.617,99.211,281.617,102.882z"/>
	<path d="M320.682,65.794v24.192c2.667-3.105,5.993-4.659,9.979-4.659c4.863,0,8.158,1.616,9.884,4.849
		c0.973,1.757,1.506,3.781,1.601,6.07c0.094,1.664,0.141,3.766,0.141,6.308v29.417h-8.425v-29.417c0-4.581-0.376-7.483-1.129-8.708
		c-1.005-1.693-2.794-2.541-5.366-2.541c-2.259,0-3.97,0.785-5.13,2.354c-1.036,1.443-1.554,4.111-1.554,8.001v30.312h-8.425V65.794
		H320.682z"/>
	<path d="M360.03,65.794v8.896h-9.178v-8.896H360.03z M359.654,85.986v45.984h-8.425V85.986H359.654z"/>
	<path d="M398.483,85.986v63.211h-8.425v-20.521c-2.259,2.667-5.099,4-8.519,4c-2.322,0-4.519-0.596-6.59-1.788
		c-3.64-2.071-5.647-5.443-6.024-10.119c-0.188-2.636-0.282-7.641-0.282-15.015c0-7.028,0.486-11.672,1.459-13.932
		c0.941-2.228,2.495-3.906,4.66-5.036c1.882-0.972,3.984-1.459,6.307-1.459c2.165,0,4.063,0.487,5.695,1.459
		c0.941,0.565,2.039,1.569,3.294,3.013v-3.812H398.483z M390.059,115.919v-13.555c0-3.42-0.173-5.632-0.518-6.637
		c-0.439-1.412-1.317-2.525-2.636-3.342c-1.161-0.752-2.385-1.129-3.671-1.129c-2.636,0-4.472,1.35-5.507,4.047
		c-0.439,1.162-0.659,5.648-0.659,13.462c0,6.777,0.22,11.218,0.659,13.319c0.407,1.758,1.255,3.044,2.542,3.859
		c0.847,0.502,1.788,0.754,2.823,0.754c1.694,0,3.185-0.596,4.472-1.789C389.228,123.341,390.059,120.344,390.059,115.919z"/>
	<path d="M438.113,85.986v45.984h-8.425v-4.096c-2.541,3.17-5.68,4.754-9.413,4.754c-2.981,0-5.554-0.895-7.719-2.683
		c-1.883-1.568-3.06-3.749-3.53-6.542c-0.22-1.225-0.329-3.169-0.329-5.836V85.986h8.425v30.922c0,3.703,0.329,6.136,0.988,7.296
		c0.909,1.694,2.541,2.542,4.895,2.542c3.326,0,5.366-1.601,6.119-4.801c0.376-1.537,0.564-4.079,0.564-7.625V85.986H438.113z"/>
	<path d="M476.802,111.119h-21.697v4.801c0,3.797,0.454,6.496,1.365,8.096c1.035,1.789,2.823,2.684,5.365,2.684
		c2.071,0,3.749-0.659,5.036-1.977c1.13-1.161,1.71-3.467,1.741-6.92h8.189c-0.125,4.362-0.957,7.625-2.494,9.791
		c-2.416,3.357-6.605,5.035-12.566,5.035c-7.719,0-12.426-3.059-14.12-9.178c-0.597-2.102-0.895-7.766-0.895-16.991
		c0-7.749,0.769-12.88,2.307-15.391c2.354-3.827,6.589-5.742,12.708-5.742c6.149,0,10.308,1.726,12.473,5.177
		c1.191,1.883,1.93,4.111,2.212,6.684c0.251,2.322,0.376,4.88,0.376,7.672V111.119z M468.283,104.859v-2.871
		c0-3.639-0.346-6.243-1.035-7.812c-0.848-1.945-2.746-2.918-5.695-2.918c-2.071,0-3.608,0.471-4.612,1.412
		c-1.224,1.192-1.836,4.063-1.836,8.613v3.576H468.283z"/>
</g>
</svg>
