<?xml version="1.0" encoding="UTF-8" standalone="no"?>
<!-- Created with Inkscape (http://www.inkscape.org/) -->

<svg
   xmlns:dc="http://purl.org/dc/elements/1.1/"
   xmlns:cc="http://creativecommons.org/ns#"
   xmlns:rdf="http://www.w3.org/1999/02/22-rdf-syntax-ns#"
   xmlns:svg="http://www.w3.org/2000/svg"
   xmlns="http://www.w3.org/2000/svg"
   xmlns:sodipodi="http://sodipodi.sourceforge.net/DTD/sodipodi-0.dtd"
   xmlns:inkscape="http://www.inkscape.org/namespaces/inkscape"
   width="210mm"
   height="297mm"
   id="svg4445"
   sodipodi:version="0.32"
   inkscape:version="0.48.3.1 r9886"
   sodipodi:docname="oslandia_final.svg"
   inkscape:output_extension="org.inkscape.output.svg.inkscape"
   version="1.1">
  <defs
     id="defs4447">
    <inkscape:perspective
       sodipodi:type="inkscape:persp3d"
       inkscape:vp_x="0 : 526.18109 : 1"
       inkscape:vp_y="0 : 1000 : 0"
       inkscape:vp_z="744.09448 : 526.18109 : 1"
       inkscape:persp3d-origin="372.04724 : 350.78739 : 1"
       id="perspective4453" />
  </defs>
  <sodipodi:namedview
     id="base"
     pagecolor="#ffffff"
     bordercolor="#666666"
     borderopacity="1.0"
     inkscape:pageopacity="0.0"
     inkscape:pageshadow="2"
     inkscape:zoom="1"
     inkscape:cx="283.50381"
     inkscape:cy="799"
     inkscape:document-units="px"
     inkscape:current-layer="layer1"
     showgrid="false"
     inkscape:window-width="1600"
     inkscape:window-height="845"
     inkscape:window-x="-7"
     inkscape:window-y="-10"
     showguides="true"
     inkscape:guide-bbox="true"
     inkscape:window-maximized="1" />
  <metadata
     id="metadata4450">
    <rdf:RDF>
      <cc:Work
         rdf:about="">
        <dc:format>image/svg+xml</dc:format>
        <dc:type
           rdf:resource="http://purl.org/dc/dcmitype/StillImage" />
        <dc:title />
      </cc:Work>
    </rdf:RDF>
  </metadata>
  <g
     inkscape:label="Calque 1"
     inkscape:groupmode="layer"
     id="layer1">
    <g
       id="g5101"
       transform="translate(152.61034,251)"
       inkscape:export-filename="/home/sbe/tmp/oslandia_12.png"
       inkscape:export-xdpi="90"
       inkscape:export-ydpi="90">
      <path
         id="path5095"
         d="m 290.65625,207.90625 c -7.1796,0 -13.21875,5.8387 -13.21875,12.78125 -10e-6,7.28122 5.86981,13.125 13.21875,13.125 7.24735,0 13.21875,-5.85949 13.21875,-12.9375 10e-6,-7.14575 -5.97141,-12.96875 -13.21875,-12.96875 z m 0,2.28125 c 5.82498,1e-5 10.6875,4.85992 10.6875,10.71875 -10e-6,5.7911 -4.86253,10.59375 -10.6875,10.59375 -5.89269,0 -10.6875,-4.79219 -10.6875,-10.71875 0,-5.72338 4.8964,-10.59375 10.6875,-10.59375 z"
         style="font-size:33.86613083px;font-style:normal;font-variant:normal;font-weight:normal;font-stretch:normal;text-align:center;text-anchor:middle;fill:#3a75ac;fill-opacity:1;stroke:none;font-family:'Yikes!';-inkscape-font-specification:'Yikes!'"
         inkscape:connector-curvature="0" />
      <path
         id="path5091"
         d="m 315.51006,226.35484 c 0.23706,4.50419 3.31888,7.45055 7.82307,7.45055 4.33486,0 7.55215,-3.14956 7.55215,-7.41669 0,-2.20129 -0.91439,-4.16553 -2.50609,-5.35084 -1.01599,-0.74506 -2.06584,-1.21919 -4.63966,-1.99811 -2.26903,-0.67732 -3.01409,-0.98211 -3.69141,-1.55784 -0.71119,-0.64345 -1.18532,-1.76104 -1.18532,-2.91249 0,-2.50609 1.82878,-4.36873 4.33487,-4.36873 2.53995,0 4.301,1.76105 4.47033,4.47033 l 2.60769,0 c -0.1016,-4.06393 -2.91249,-6.77322 -7.01029,-6.77322 -4.03007,0 -6.94256,2.84476 -6.94256,6.73936 0,1.72717 0.64346,3.38661 1.76104,4.43646 0.98212,0.94825 1.76104,1.32078 4.67353,2.2013 1.96423,0.60959 3.04795,1.08372 3.86074,1.65944 1.11758,0.77892 1.72717,2.06583 1.72717,3.58981 0,2.87862 -2.0997,4.97832 -4.94446,4.97832 -1.5917,0 -3.11568,-0.71119 -4.03007,-1.86264 -0.71118,-0.88052 -1.01598,-1.72717 -1.18531,-3.28501 l -2.67542,0"
         style="font-size:33.86613083px;font-style:normal;font-variant:normal;font-weight:normal;font-stretch:normal;text-align:center;text-anchor:middle;fill:#3a75ac;fill-opacity:1;stroke:none;font-family:'Yikes!';-inkscape-font-specification:'Yikes!'"
         inkscape:connector-curvature="0" />
      <path
         id="path5089"
         d="m 343.59831,233.36513 12.86913,0 0,-2.26903 -10.36304,0 0,-22.75804 -2.50609,0 0,25.02707"
         style="font-size:33.86613083px;font-style:normal;font-variant:normal;font-weight:normal;font-stretch:normal;text-align:center;text-anchor:middle;fill:#1a1a1a;fill-opacity:1;stroke:none;font-family:'Yikes!';-inkscape-font-specification:'Yikes!'"
         inkscape:connector-curvature="0" />
      <path
         id="path5087"
         d="m 377.1875,208.34375 -10.71875,25.03125 2.625,0 3.65625,-8.4375 11.65625,0 3.625,8.4375 2.75,0 L 380,208.34375 l -2.8125,0 z m 1.4375,2.84375 4.8125,11.46875 -9.71875,0 4.90625,-11.46875 z"
         style="font-size:33.86613083px;font-style:normal;font-variant:normal;font-weight:normal;font-stretch:normal;text-align:center;text-anchor:middle;fill:#1a1a1a;fill-opacity:1;stroke:none;font-family:'Yikes!';-inkscape-font-specification:'Yikes!'"
         inkscape:connector-curvature="0" />
      <path
         id="path5083"
         d="m 403.12861,233.36513 2.5061,0 0,-22.01299 14.9011,22.01299 2.50609,0 0,-25.02707 -2.50609,0 0,20.75994 -14.02058,-20.75994 -3.38662,0 0,25.02707"
         style="font-size:33.86613083px;font-style:normal;font-variant:normal;font-weight:normal;font-stretch:normal;text-align:center;text-anchor:middle;fill:#1a1a1a;fill-opacity:1;stroke:none;font-family:'Yikes!';-inkscape-font-specification:'Yikes!'"
         inkscape:connector-curvature="0" />
      <path
         id="path5081"
         d="m 437.59375,208.34375 0,25.03125 6.75,0 c 3.75914,0 6.39246,-0.58809 8.59375,-1.875 3.79302,-2.23516 5.78125,-5.88898 5.78125,-10.5625 -10e-6,-4.70739 -1.96223,-8.4237 -5.6875,-10.625 -2.37064,-1.42237 -5.02444,-1.96875 -9.5625,-1.96875 l -5.875,0 z m 2.5,2.25 3.5,0 c 3.79301,0 6.166,0.47355 8.0625,1.625 2.87862,1.72716 4.53125,4.89973 4.53125,8.625 0,3.28501 -1.29085,6.16862 -3.59375,8.03125 -1.99809,1.59171 -4.56354,2.21875 -9,2.21875 l -3.5,0 0,-20.5 z"
         style="font-size:33.86613083px;font-style:normal;font-variant:normal;font-weight:normal;font-stretch:normal;text-align:center;text-anchor:middle;fill:#1a1a1a;fill-opacity:1;stroke:none;font-family:'Yikes!';-inkscape-font-specification:'Yikes!'"
         inkscape:connector-curvature="0" />
      <path
         id="path5077"
         d="m 472.18377,233.36513 2.5061,0 0,-25.02707 -2.5061,0 0,25.02707"
         style="font-size:33.86613083px;font-style:normal;font-variant:normal;font-weight:normal;font-stretch:normal;text-align:center;text-anchor:middle;fill:#1a1a1a;fill-opacity:1;stroke:none;font-family:'Yikes!';-inkscape-font-specification:'Yikes!'"
         inkscape:connector-curvature="0" />
      <path
         id="path5075"
         d="m 497.78125,208.34375 -10.71875,25.03125 2.625,0 3.65625,-8.4375 11.65625,0 3.625,8.4375 2.75,0 -10.78125,-25.03125 -2.8125,0 z m 1.4375,2.84375 4.78125,11.46875 -9.71875,0 4.9375,-11.46875 z"
         style="font-size:33.86613083px;font-style:normal;font-variant:normal;font-weight:normal;font-stretch:normal;text-align:center;text-anchor:middle;fill:#1a1a1a;fill-opacity:1;stroke:none;font-family:'Yikes!';-inkscape-font-specification:'Yikes!'"
         inkscape:connector-curvature="0" />
    </g>
    <rect
       style="opacity:1;fill:#3a75ac;fill-opacity:1;fill-rule:nonzero;stroke:none;stroke-width:2.5999999;stroke-linecap:round;stroke-linejoin:round;marker:none;marker-start:none;marker-mid:none;marker-end:none;stroke-miterlimit:4;stroke-dasharray:none;stroke-dashoffset:0;stroke-opacity:0.43729906;visibility:visible;display:inline;overflow:visible;enable-background:accumulate"
       id="rect4482"
       width="40"
       height="40"
       x="92"
       y="483.36218"
       inkscape:export-filename="/home/sbe/tmp/oslandia_12.png"
       inkscape:export-xdpi="90"
       inkscape:export-ydpi="90" />
    <text
       xml:space="preserve"
       style="font-size:20px;font-style:normal;font-variant:normal;font-weight:normal;font-stretch:normal;text-align:center;text-anchor:middle;fill:#000000;fill-opacity:1;stroke:none;stroke-width:1px;stroke-linecap:butt;stroke-linejoin:miter;stroke-opacity:1;font-family:'Yikes!';-inkscape-font-specification:'Yikes!'"
       x="179"
       y="407.36218"
       id="text4995"><tspan
         sodipodi:role="line"
         id="tspan4997" /></text>
    <text
       id="text5007"
       y="463.74026"
       x="118.84778"
       style="font-size:33.86613083px;font-style:normal;font-variant:normal;font-weight:normal;font-stretch:normal;text-align:center;text-anchor:middle;fill:#666666;fill-opacity:1;stroke:none;stroke-width:1px;stroke-linecap:butt;stroke-linejoin:miter;stroke-opacity:1;font-family:'Yikes!';-inkscape-font-specification:'Yikes!'"
       xml:space="preserve"
       inkscape:export-filename="/home/sbe/tmp/oslandia_12.png"
       inkscape:export-xdpi="90"
       inkscape:export-ydpi="90"><tspan
         style="font-size:20px;font-style:normal;font-variant:normal;font-weight:normal;font-stretch:normal;fill:#666666;fill-opacity:1;font-family:URW Gothic L;-inkscape-font-specification:URW Gothic L"
         y="463.74026"
         x="118.84778"
         id="tspan5009"
         sodipodi:role="line">Bleu utilisé :</tspan></text>
    <text
       id="text5015"
       y="437.12219"
       x="194.297"
       style="font-size:33.86613083px;font-style:normal;font-variant:normal;font-weight:normal;font-stretch:normal;text-align:center;text-anchor:middle;fill:#000000;fill-opacity:1;stroke:none;stroke-width:1px;stroke-linecap:butt;stroke-linejoin:miter;stroke-opacity:1;font-family:'Yikes!';-inkscape-font-specification:'Yikes!'"
       xml:space="preserve"
       inkscape:export-filename="/home/sbe/tmp/oslandia_12.png"
       inkscape:export-xdpi="90"
       inkscape:export-ydpi="90"><tspan
         style="font-size:20px;font-style:normal;font-variant:normal;font-weight:normal;font-stretch:normal;fill:#000000;fill-opacity:1;font-family:URW Gothic L;-inkscape-font-specification:URW Gothic L"
         y="437.12219"
         x="194.297"
         id="tspan5017"
         sodipodi:role="line"><tspan
   style="fill:#666666"
   id="tspan5019">Font utilisée :</tspan> URW Gothic L</tspan></text>
    <text
       xml:space="preserve"
       style="font-size:20px;font-style:normal;font-variant:normal;font-weight:normal;font-stretch:normal;text-align:center;text-anchor:middle;fill:#000000;fill-opacity:1;stroke:none;stroke-width:1px;stroke-linecap:butt;stroke-linejoin:miter;stroke-opacity:1;font-family:'Yikes!';-inkscape-font-specification:'Yikes!'"
       x="258"
       y="464.36218"
       id="text5021"
       inkscape:export-filename="/home/sbe/tmp/oslandia_12.png"
       inkscape:export-xdpi="90"
       inkscape:export-ydpi="90"><tspan
         sodipodi:role="line"
         id="tspan5023"
         x="258"
         y="464.36218"
         style="font-style:normal;font-variant:normal;font-weight:normal;font-stretch:normal;font-family:URW Gothic L;-inkscape-font-specification:URW Gothic L"><tspan
   style="fill:#666666"
   id="tspan5035">hexa :</tspan> #3a75ac</tspan></text>
    <text
       xml:space="preserve"
       style="font-size:20px;font-style:normal;font-variant:normal;font-weight:normal;font-stretch:normal;text-align:center;text-anchor:middle;fill:#000000;fill-opacity:1;stroke:none;stroke-width:1px;stroke-linecap:butt;stroke-linejoin:miter;stroke-opacity:1;font-family:'Yikes!';-inkscape-font-specification:'Yikes!'"
       x="182.60001"
       y="495.36218"
       id="text5025"
       inkscape:export-filename="/home/sbe/tmp/oslandia_12.png"
       inkscape:export-xdpi="90"
       inkscape:export-ydpi="90"><tspan
         sodipodi:role="line"
         id="tspan5027"
         x="182.60001"
         y="495.36218"
         style="font-style:normal;font-variant:normal;font-weight:normal;font-stretch:normal;text-align:start;text-anchor:start;font-family:URW Gothic L;-inkscape-font-specification:URW Gothic L"><tspan
   style="fill:#666666"
   id="tspan5037">R :</tspan> 58</tspan><tspan
         sodipodi:role="line"
         x="182.60001"
         y="520.36218"
         id="tspan5031"
         style="font-style:normal;font-variant:normal;font-weight:normal;font-stretch:normal;text-align:start;text-anchor:start;font-family:URW Gothic L;-inkscape-font-specification:URW Gothic L"><tspan
   style="fill:#666666"
   id="tspan5039">V :</tspan> 117</tspan><tspan
         sodipodi:role="line"
         x="182.60001"
         y="545.36218"
         id="tspan5033"
         style="font-style:normal;font-variant:normal;font-weight:normal;font-stretch:normal;text-align:start;text-anchor:start;font-family:URW Gothic L;-inkscape-font-specification:URW Gothic L"><tspan
   style="fill:#666666"
   id="tspan5041">B :</tspan>  72</tspan><tspan
         sodipodi:role="line"
         x="182.60001"
         y="570.36218"
         id="tspan5029"
         style="font-style:normal;font-variant:normal;font-weight:normal;font-stretch:normal;text-align:start;text-anchor:start;font-family:URW Gothic L;-inkscape-font-specification:URW Gothic L" /></text>
    <text
       xml:space="preserve"
       style="font-size:20px;font-style:normal;font-variant:normal;font-weight:normal;font-stretch:normal;text-align:center;text-anchor:middle;fill:#000000;fill-opacity:1;stroke:none;stroke-width:1px;stroke-linecap:butt;stroke-linejoin:miter;stroke-opacity:1;font-family:'Yikes!';-inkscape-font-specification:'Yikes!'"
       x="185.79483"
       y="603.37219"
       id="text5043"
       inkscape:export-filename="/home/sbe/tmp/oslandia_12.png"
       inkscape:export-xdpi="90"
       inkscape:export-ydpi="90"><tspan
         sodipodi:role="line"
         id="tspan5045"
         x="185.79483"
         y="603.37219"
         style="font-style:normal;font-variant:normal;font-weight:normal;font-stretch:normal;fill:#666666;font-family:URW Gothic L;-inkscape-font-specification:URW Gothic L">Pantone : <tspan
   style="fill:#000000"
   id="tspan4599">646C</tspan></tspan><tspan
         sodipodi:role="line"
         x="188.56827"
         y="628.37219"
         style="font-style:normal;font-variant:normal;font-weight:normal;font-stretch:normal;fill:#666666;font-family:URW Gothic L;-inkscape-font-specification:URW Gothic L"
         id="tspan4595">Nuancier Solid coated </tspan></text>
    <text
       id="text5111"
       y="562.74023"
       x="550.26599"
       style="font-size:33.86613083px;font-style:normal;font-variant:normal;font-weight:normal;font-stretch:normal;text-align:center;text-anchor:middle;fill:#000000;fill-opacity:1;stroke:none;stroke-width:1px;stroke-linecap:butt;stroke-linejoin:miter;stroke-opacity:1;font-family:'Yikes!';-inkscape-font-specification:'Yikes!'"
       xml:space="preserve"
       inkscape:export-filename="/home/sbe/tmp/oslandia_12.png"
       inkscape:export-xdpi="90"
       inkscape:export-ydpi="90"><tspan
         style="font-style:normal;font-variant:normal;font-weight:normal;font-stretch:normal;fill:#000000;fill-opacity:1;font-family:URW Gothic L;-inkscape-font-specification:URW Gothic L"
         y="562.74023"
         x="550.26599"
         id="tspan5113"
         sodipodi:role="line"><tspan
           style="fill:#3a74ac;fill-opacity:1"
           id="tspan5115">O S</tspan><tspan
           style="fill:#282828;fill-opacity:1"
           id="tspan5117"> L A N D I A</tspan></tspan></text>
    <text
       id="text5119"
       y="436.12219"
       x="481.81268"
       style="font-size:33.86613083px;font-style:normal;font-variant:normal;font-weight:normal;font-stretch:normal;text-align:center;text-anchor:middle;fill:#666666;fill-opacity:1;stroke:none;stroke-width:1px;stroke-linecap:butt;stroke-linejoin:miter;stroke-opacity:1;font-family:'Yikes!';-inkscape-font-specification:'Yikes!'"
       xml:space="preserve"
       inkscape:export-filename="/home/sbe/tmp/oslandia_12.png"
       inkscape:export-xdpi="90"
       inkscape:export-ydpi="90"><tspan
         style="font-size:20px;font-style:normal;font-variant:normal;font-weight:normal;font-stretch:normal;fill:#666666;fill-opacity:1;font-family:URW Gothic L;-inkscape-font-specification:URW Gothic L"
         y="436.12219"
         x="481.81268"
         id="tspan5121"
         sodipodi:role="line">Vectoriel :</tspan></text>
    <text
       id="text5123"
       y="519.82214"
       x="463.92346"
       style="font-size:33.86613083px;font-style:normal;font-variant:normal;font-weight:normal;font-stretch:normal;text-align:center;text-anchor:middle;fill:#666666;fill-opacity:1;stroke:none;stroke-width:1px;stroke-linecap:butt;stroke-linejoin:miter;stroke-opacity:1;font-family:'Yikes!';-inkscape-font-specification:'Yikes!'"
       xml:space="preserve"
       inkscape:export-filename="/home/sbe/tmp/oslandia_12.png"
       inkscape:export-xdpi="90"
       inkscape:export-ydpi="90"><tspan
         style="font-size:20px;font-style:normal;font-variant:normal;font-weight:normal;font-stretch:normal;fill:#666666;fill-opacity:1;font-family:URW Gothic L;-inkscape-font-specification:URW Gothic L"
         y="519.82214"
         x="463.92346"
         id="tspan5125"
         sodipodi:role="line">Texte :</tspan></text>
    <g
       id="g5133"
       transform="translate(-21,141)"
       inkscape:export-filename="/home/sbe/tmp/oslandia_12.png"
       inkscape:export-xdpi="90"
       inkscape:export-ydpi="90">
      <path
         id="path5129"
         d="M 67.499998,202.86217 L 67.499998,260.86217"
         style="fill:none;fill-rule:evenodd;stroke:#000000;stroke-width:0.99999994px;stroke-linecap:butt;stroke-linejoin:miter;stroke-opacity:1" />
      <path
         id="path5131"
         d="M 96.499996,231.86217 L 38.499999,231.86217"
         style="fill:none;fill-rule:evenodd;stroke:#000000;stroke-width:0.99999994px;stroke-linecap:butt;stroke-linejoin:miter;stroke-opacity:1" />
    </g>
    <g
       id="g5137"
       transform="translate(627,141)"
       inkscape:export-filename="/home/sbe/tmp/oslandia_12.png"
       inkscape:export-xdpi="90"
       inkscape:export-ydpi="90">
      <path
         id="path5139"
         d="M 67.499998,202.86217 L 67.499998,260.86217"
         style="fill:none;fill-rule:evenodd;stroke:#000000;stroke-width:0.99999994px;stroke-linecap:butt;stroke-linejoin:miter;stroke-opacity:1" />
      <path
         id="path5141"
         d="M 96.499996,231.86217 L 38.499999,231.86217"
         style="fill:none;fill-rule:evenodd;stroke:#000000;stroke-width:0.99999994px;stroke-linecap:butt;stroke-linejoin:miter;stroke-opacity:1" />
    </g>
    <g
       id="g5143"
       transform="translate(-21,429)"
       inkscape:export-filename="/home/sbe/tmp/oslandia_12.png"
       inkscape:export-xdpi="90"
       inkscape:export-ydpi="90">
      <path
         id="path5145"
         d="M 67.499998,202.86217 L 67.499998,260.86217"
         style="fill:none;fill-rule:evenodd;stroke:#000000;stroke-width:0.99999994px;stroke-linecap:butt;stroke-linejoin:miter;stroke-opacity:1" />
      <path
         id="path5147"
         d="M 96.499996,231.86217 L 38.499999,231.86217"
         style="fill:none;fill-rule:evenodd;stroke:#000000;stroke-width:0.99999994px;stroke-linecap:butt;stroke-linejoin:miter;stroke-opacity:1" />
    </g>
    <g
       id="g5149"
       transform="translate(627,429)"
       inkscape:export-filename="/home/sbe/tmp/oslandia_12.png"
       inkscape:export-xdpi="90"
       inkscape:export-ydpi="90">
      <path
         id="path5151"
         d="M 67.499998,202.86217 L 67.499998,260.86217"
         style="fill:none;fill-rule:evenodd;stroke:#000000;stroke-width:0.99999994px;stroke-linecap:butt;stroke-linejoin:miter;stroke-opacity:1" />
      <path
         id="path5153"
         d="M 96.499996,231.86217 L 38.499999,231.86217"
         style="fill:none;fill-rule:evenodd;stroke:#000000;stroke-width:0.99999994px;stroke-linecap:butt;stroke-linejoin:miter;stroke-opacity:1" />
    </g>
    <g
       id="g5155"
       transform="translate(-21,-165)"
       inkscape:export-filename="/home/sbe/tmp/oslandia_12.png"
       inkscape:export-xdpi="90"
       inkscape:export-ydpi="90">
      <path
         id="path5157"
         d="M 67.499998,202.86217 L 67.499998,260.86217"
         style="fill:none;fill-rule:evenodd;stroke:#000000;stroke-width:0.99999994px;stroke-linecap:butt;stroke-linejoin:miter;stroke-opacity:1" />
      <path
         id="path5159"
         d="M 96.499996,231.86217 L 38.499999,231.86217"
         style="fill:none;fill-rule:evenodd;stroke:#000000;stroke-width:0.99999994px;stroke-linecap:butt;stroke-linejoin:miter;stroke-opacity:1" />
    </g>
    <g
       id="g5161"
       transform="translate(627,-165)"
       inkscape:export-filename="/home/sbe/tmp/oslandia_12.png"
       inkscape:export-xdpi="90"
       inkscape:export-ydpi="90">
      <path
         id="path5163"
         d="M 67.499998,202.86217 L 67.499998,260.86217"
         style="fill:none;fill-rule:evenodd;stroke:#000000;stroke-width:0.99999994px;stroke-linecap:butt;stroke-linejoin:miter;stroke-opacity:1" />
      <path
         id="path5165"
         d="M 96.499996,231.86217 L 38.499999,231.86217"
         style="fill:none;fill-rule:evenodd;stroke:#000000;stroke-width:0.99999994px;stroke-linecap:butt;stroke-linejoin:miter;stroke-opacity:1" />
    </g>
    <text
       xml:space="preserve"
       style="font-size:20px;font-style:normal;font-variant:normal;font-weight:normal;font-stretch:normal;text-align:center;text-anchor:middle;fill:#000000;fill-opacity:1;stroke:none;stroke-width:1px;stroke-linecap:butt;stroke-linejoin:miter;stroke-opacity:1;font-family:'Yikes!';-inkscape-font-specification:'Yikes!'"
       x="274.57422"
       y="494.85217"
       id="text5199"
       inkscape:export-filename="/home/sbe/tmp/oslandia_12.png"
       inkscape:export-xdpi="90"
       inkscape:export-ydpi="90"><tspan
         sodipodi:role="line"
         id="tspan5201"
         x="274.57422"
         y="494.85217"
         style="font-style:normal;font-variant:normal;font-weight:normal;font-stretch:normal;text-align:start;text-anchor:start;fill:#666666;font-family:URW Gothic L;-inkscape-font-specification:URW Gothic L">C : <tspan
   style="fill:#000000"
   id="tspan5220">66</tspan></tspan><tspan
         sodipodi:role="line"
         x="274.57422"
         y="519.85217"
         id="tspan5205"
         style="font-style:normal;font-variant:normal;font-weight:normal;font-stretch:normal;text-align:start;text-anchor:start;fill:#666666;font-family:URW Gothic L;-inkscape-font-specification:URW Gothic L">M : <tspan
   style="fill:#000000"
   id="tspan5217">32</tspan></tspan><tspan
         sodipodi:role="line"
         x="274.57422"
         y="544.85217"
         id="tspan5209"
         style="font-style:normal;font-variant:normal;font-weight:normal;font-stretch:normal;text-align:start;text-anchor:start;fill:#666666;font-family:URW Gothic L;-inkscape-font-specification:URW Gothic L">J :  <tspan
   style="fill:#000000"
   id="tspan5224">0</tspan></tspan><tspan
         sodipodi:role="line"
         x="274.57422"
         y="569.85217"
         style="font-style:normal;font-variant:normal;font-weight:normal;font-stretch:normal;text-align:start;text-anchor:start;fill:#666666;font-family:URW Gothic L;-inkscape-font-specification:URW Gothic L"
         id="tspan5215">N : <tspan
   style="fill:#000000"
   id="tspan5222">33</tspan></tspan><tspan
         sodipodi:role="line"
         x="274.57422"
         y="594.85217"
         id="tspan5213"
         style="font-style:normal;font-variant:normal;font-weight:normal;font-stretch:normal;text-align:start;text-anchor:start;font-family:URW Gothic L;-inkscape-font-specification:URW Gothic L" /></text>
    <path
       inkscape:connector-curvature="0"
       style="fill:#3a74ac;fill-opacity:1;fill-rule:nonzero;stroke:none;stroke-width:1px;marker:none;visibility:visible;display:inline;overflow:visible;enable-background:accumulate"
       d="m 308.49767,187.54491 c -26.9207,0 -48.7724,17.9912 -48.7724,40.152 0,22.1615 21.7867,42.0373 48.7724,40.1521 13.1033,-0.9153 19.0353,-12.5021 23.7259,-5.0862 3.7732,5.9658 14.8987,29.6372 31.3082,29.6372 17.3682,0 31.5039,-14.582 31.5039,-32.5716 0,-17.9897 -10.5149,-34.848 -31.5039,-32.6204 -8.038,1.3572 -9.8853,7.0178 -11.1048,-4.7439 -2.841,-16.3595 -17.0085,-34.9192 -43.9293,-34.9192 z m -0.4892,5.6731 c 20.7552,0 37.6189,14.1738 37.6189,31.6425 0,17.4682 -16.8635,31.6423 -37.6189,31.6423 -20.7551,2e-4 -37.5698,-14.1744 -37.5698,-31.6423 0,-17.4682 16.815,-31.6425 37.5698,-31.6425 z m 4.2559,6.6025 c -15.9787,0 -28.9601,9.3134 -28.9601,20.785 0,11.4718 12.9814,20.7852 28.9601,20.7852 15.9789,0 28.9603,-9.3134 28.9603,-20.7852 0,-11.4717 -12.9814,-20.785 -28.9603,-20.785 z m 7.2401,7.5804 c 9.7263,0 17.6109,5.6761 17.6109,12.7156 0,7.0394 -7.8846,12.7646 -17.6109,12.7646 -9.7262,0 -17.6108,-5.7251 -17.6108,-12.7646 0,-7.0395 7.8846,-12.7156 17.6108,-12.7156 z m 45.6415,25.4802 c 11.9842,0 21.6712,11.4502 21.6712,25.529 0,14.0789 -9.6868,25.4802 -21.6712,25.4802 -11.9839,0 -21.72,-11.401 -21.72,-25.4802 10e-5,-14.079 9.7363,-25.529 21.72,-25.529 z m 0.2937,5.6731 c -7.8157,0 -14.1377,6.5406 -14.1377,14.6229 0,8.0824 6.322,14.6719 14.1377,14.6719 7.8156,0 14.1376,-6.5895 14.1376,-14.6719 0,-8.0823 -6.3221,-14.6232 -14.1376,-14.6229 z m 0.2934,7.5315 c 3.6475,0 6.604,3.1807 6.604,7.0914 0,3.9108 -2.9564,7.0916 -6.604,7.0916 -3.6474,0 -6.6041,-3.1808 -6.6041,-7.0916 3e-4,-3.9107 2.9569,-7.0914 6.6041,-7.0914 z"
       id="path3612-7"
       sodipodi:nodetypes="csssssccccsssccsssccsssccsssccsssccsssc"
       inkscape:export-filename="/home/sbe/tmp/oslandia_transparent_90.png"
       inkscape:export-xdpi="90"
       inkscape:export-ydpi="90" />
    <rect
       style="fill:#ffffff;fill-opacity:0;fill-rule:nonzero;stroke:#000000;stroke-width:0.39999995;stroke-linecap:butt;stroke-linejoin:miter;stroke-miterlimit:4;stroke-opacity:1;stroke-dasharray:none;stroke-dashoffset:0;marker:none;visibility:visible;display:inline;overflow:visible;enable-background:accumulate"
       id="rect3614-6"
       width="66.002251"
       height="155.008"
       x="299.37885"
       y="142.19086"
       inkscape:export-filename="/home/sbe/tmp/oslandia_transparent_90.png"
       inkscape:export-xdpi="90"
       inkscape:export-ydpi="90" />
    <path
       inkscape:connector-curvature="0"
       style="fill:none;stroke:#000000;stroke-width:1px;stroke-linecap:butt;stroke-linejoin:miter;stroke-miterlimit:4;stroke-opacity:1;stroke-dashoffset:0;marker:none;visibility:visible;display:inline;overflow:visible;enable-background:accumulate"
       d="m 308.49787,187.54491 c -26.9208,0 -48.7725,17.9912 -48.7725,40.152 0,22.1615 21.7868,42.0373 48.7725,40.1521 13.1033,-0.9153 19.0352,-12.5021 23.7259,-5.0862 3.7732,5.9658 14.8986,29.6372 31.3081,29.6372 17.3683,0 31.504,-14.582 31.504,-32.5716 0,-17.9897 -10.5149,-34.848 -31.504,-32.6204 -8.0379,1.3572 -9.8852,7.0178 -11.1047,-4.7439 -2.841,-16.3595 -17.0085,-34.9192 -43.9293,-34.9192 z m -0.4892,5.6731 c 20.7552,0 37.6189,14.1738 37.6189,31.6425 0,17.4682 -16.8635,31.6423 -37.6189,31.6423 -20.7552,2e-4 -37.5699,-14.1744 -37.5699,-31.6423 0,-17.4682 16.8151,-31.6425 37.5699,-31.6425 z m 4.2559,6.6025 c -15.9787,0 -28.9601,9.3134 -28.9601,20.785 0,11.4718 12.9814,20.7852 28.9601,20.7852 15.9789,0 28.9603,-9.3134 28.9603,-20.7852 0,-11.4717 -12.9814,-20.785 -28.9603,-20.785 z m 7.2401,7.5804 c 9.7262,0 17.6109,5.676 17.6109,12.7156 0,7.0394 -7.8847,12.7646 -17.6109,12.7646 -9.7262,0 -17.6108,-5.7251 -17.6108,-12.7646 0,-7.0396 7.8846,-12.7156 17.6108,-12.7156 z m 45.6415,25.4802 c 11.9842,0 21.6712,11.4502 21.6712,25.529 0,14.0789 -9.6868,25.4802 -21.6712,25.4802 -11.9839,0 -21.7201,-11.401 -21.7201,-25.4802 2e-4,-14.079 9.7363,-25.529 21.7201,-25.529 z m 0.2937,5.6731 c -7.8158,0 -14.1377,6.5406 -14.1377,14.6229 0,8.0824 6.3219,14.6719 14.1377,14.6719 7.8155,0 14.1376,-6.5895 14.1376,-14.6719 0,-8.0823 -6.3221,-14.6232 -14.1376,-14.6229 z m 0.2934,7.5315 c 3.6475,0 6.604,3.1807 6.604,7.0914 0,3.9108 -2.9564,7.0916 -6.604,7.0916 -3.6474,0 -6.6041,-3.1808 -6.6041,-7.0916 3e-4,-3.9107 2.9569,-7.0914 6.6041,-7.0914 z"
       id="path3618-1"
       sodipodi:nodetypes="csssssccccsssccsssccsssccsssccsssccsssc"
       inkscape:export-filename="/home/sbe/tmp/oslandia_transparent_90.png"
       inkscape:export-xdpi="90"
       inkscape:export-ydpi="90" />
    <text
       id="text5064-7"
       y="177.94458"
       x="422.23724"
       style="font-size:33.86613083px;font-style:normal;font-variant:normal;font-weight:normal;font-stretch:normal;text-align:center;text-anchor:middle;fill:#000000;fill-opacity:1;stroke:none;font-family:'Yikes!';-inkscape-font-specification:'Yikes!'"
       xml:space="preserve"
       inkscape:export-filename="/home/sbe/tmp/oslandia_transparent_90.png"
       inkscape:export-xdpi="90"
       inkscape:export-ydpi="90"><tspan
         style="font-style:normal;font-variant:normal;font-weight:normal;font-stretch:normal;fill:#000000;fill-opacity:1;font-family:URW Gothic L;-inkscape-font-specification:URW Gothic L"
         y="177.94458"
         x="422.23724"
         id="tspan5066-9"
         sodipodi:role="line"><tspan
           style="fill:#3a74ac;fill-opacity:1"
           id="tspan5068-4">O S</tspan><tspan
           style="fill:#282828;fill-opacity:1"
           id="tspan5070-9"> L A N D I A</tspan></tspan></text>
    <path
       style="fill:#ffffff;fill-opacity:1;fill-rule:nonzero;stroke:none;stroke-width:0.39999995;marker:none;visibility:visible;display:inline;overflow:visible;enable-background:accumulate"
       d="m 308.49532,188.05754 c -3.04072,0 -6.02258,0.24622 -8.90628,0.6875 l 0,4.75 c 2.70629,-0.51602 5.51769,-0.78125 8.40628,-0.78125 20.98291,0 38.12515,14.36576 38.12515,32.15625 0,17.78999 -17.14203,32.125 -38.12515,32.125 -2.88865,3e-5 -5.69996,-0.26626 -8.40628,-0.78125 l 0,10.9375 c 2.87497,0.315 5.84234,0.39936 8.87503,0.1875 6.41061,-0.4478 11.07851,-3.49455 14.81256,-5.59375 1.86703,-1.0496 3.50542,-1.873 5.09377,-1.9375 1.58835,-0.0645 3.05169,0.74358 4.28127,2.6875 1.92762,3.04776 5.61228,10.38849 10.87504,17 5.26276,6.61151 12.03571,12.40625 20.00007,12.40625 0.55525,0 1.1081,-0.001 1.65626,-0.0312 l 0,-7.46875 c -0.0103,2e-5 -0.0208,0 -0.0312,0 -12.30107,0 -22.21883,-11.69029 -22.21883,-26 2e-4,-14.30951 9.91649,-26.03125 22.21883,-26.03125 0.0103,0 0.0208,-2e-5 0.0312,0 l 0,-4.78125 c -0.51551,0.0316 -1.03301,0.0693 -1.56251,0.125 -0.011,0.001 -0.02,-0.001 -0.0312,0 -1.94029,0.33143 -3.50804,0.9071 -4.81251,1.4375 -1.31227,0.53357 -2.34162,1.02505 -3.31252,1.09375 -0.48545,0.0344 -0.99458,-0.0524 -1.40625,-0.34375 -0.41167,-0.29139 -0.71124,-0.74023 -0.96876,-1.34375 -0.51248,-1.20102 -0.85086,-3.06814 -1.15625,-6 -0.002,-0.0147 0.002,-0.0164 0,-0.0312 -2.81562,-16.13919 -16.76255,-34.46875 -43.43767,-34.46875 z m 3.78127,12.25 c -4.56463,0 -8.86371,0.79093 -12.68755,2.15625 l 0,36.3125 c 3.82145,1.36317 8.12677,2.125 12.68755,2.125 7.89234,0 15.01136,-2.30783 20.15633,-6 5.14496,-3.69217 8.28128,-8.7652 8.28128,-14.3125 0,-5.54725 -3.13632,-10.58912 -8.28128,-14.28125 -5.14497,-3.69213 -12.26399,-6 -20.15633,-6 z m 7.21878,6.59375 c 4.96037,0 9.46505,1.44284 12.75004,3.8125 3.285,2.36966 5.37502,5.69978 5.37502,9.40625 0,3.70638 -2.0903,7.02414 -5.37502,9.40625 -3.28471,2.38211 -7.78882,3.84375 -12.75004,3.84375 -4.96122,0 -9.46536,-1.46165 -12.75005,-3.84375 -3.2847,-2.3821 -5.34377,-5.69982 -5.34377,-9.40625 0,-3.70647 2.0588,-7.03659 5.34377,-9.40625 3.28496,-2.36966 7.78967,-3.8125 12.75005,-3.8125 z m 45.68762,32.15625 c -7.42096,0.13767 -13.37505,6.39017 -13.37505,14.125 0,7.73493 5.95605,14.01791 13.37505,14.15625 l 0,-6.59375 c -3.6699,-0.31323 -6.56253,-3.60341 -6.56253,-7.5625 3e-4,-3.90252 2.81143,-7.17031 6.40628,-7.5625 0.052,-0.006 0.10395,0.004 0.15625,0 z"
       id="rect3614-6-5-5"
       inkscape:connector-curvature="0"
       sodipodi:nodetypes="cccsscccssscssccscsccccsccsccccsccsssssssssssssscscccccc"
       inkscape:export-filename="/home/sbe/tmp/oslandia_transparent_90.png"
       inkscape:export-xdpi="90"
       inkscape:export-ydpi="90" />
  </g>
</svg>
